<?xml version="1.0" standalone="no"?>
<!DOCTYPE svg PUBLIC "-//W3C//DTD SVG 1.1//EN" "http://www.w3.org/Graphics/SVG/1.1/DTD/svg11.dtd">
<svg width="100%" height="100%" viewBox="0 0 48 48" version="1.1" xmlns="http://www.w3.org/2000/svg" xmlns:xlink="http://www.w3.org/1999/xlink" xml:space="preserve" style="fill-rule:evenodd;clip-rule:evenodd;stroke-linecap:round;stroke-linejoin:round;stroke-miterlimit:1.41421;">
    <clipPath id="_clip1">
        <rect id="Artboard1" x="0" y="0" width="48" height="48"/>
    </clipPath>
    <g clip-path="url(#_clip1)">
        <g id="XMLID_1_" transform="matrix(1.91304,0,0,1.91304,1.04348,1.04348)">
            <circle id="XMLID_10_" cx="12" cy="12" r="11.5" style="fill:none;stroke-width:1px;stroke:rgb(96,186,178);"/>
            <path id="XMLID_9_" d="M14.5,6.5C13.7,6.8 12.3,6.7 11.5,6.7C10.7,6.7 9.3,6.7 8.5,6.5" style="fill:none;stroke-width:1px;stroke:rgb(96,186,178);"/>
            <path id="XMLID_8_" d="M10,7L15.5,22.5" style="fill:none;stroke-width:1px;stroke:rgb(96,186,178);"/>
            <path id="XMLID_7_" d="M13.5,7L17.5,19.5" style="fill:none;stroke-width:1px;stroke:rgb(96,186,178);"/>
            <path id="XMLID_6_" d="M6.5,6.5C5.7,6.8 4.3,6.7 3.5,6.7C2.5,6.8 2,6.5 2,6.5" style="fill:none;stroke-width:1px;stroke:rgb(96,186,178);"/>
            <path id="XMLID_5_" d="M2,7L7.5,22.5" style="fill:none;stroke-width:1px;stroke:rgb(96,186,178);"/>
            <path id="XMLID_4_" d="M5.5,7L9.5,19.5" style="fill:none;stroke-width:1px;stroke:rgb(96,186,178);"/>
            <path id="XMLID_3_" d="M17,22C17,22 19.5,14.3 20.5,11C21.5,7.7 21.5,5.9 21,5C20.5,4.1 19.9,3.5 19,3.5C18.1,3.5 17.5,4 17.5,5.5C17.5,7 20.7,10.1 20,12.5" style="fill:none;stroke-width:1px;stroke:rgb(96,186,178);"/>
            <path id="XMLID_2_" d="M8.5,22.5L12,12.5" style="fill:none;stroke-width:1px;stroke:rgb(96,186,178);"/>
        </g>
    </g>
</svg>
