<?xml version="1.0" standalone="no"?>
<!DOCTYPE svg PUBLIC "-//W3C//DTD SVG 1.1//EN" "http://www.w3.org/Graphics/SVG/1.1/DTD/svg11.dtd">
<svg width="100%" height="100%" viewBox="0 0 48 48" version="1.1" xmlns="http://www.w3.org/2000/svg" xmlns:xlink="http://www.w3.org/1999/xlink" xml:space="preserve" style="fill-rule:evenodd;clip-rule:evenodd;stroke-linecap:round;stroke-linejoin:round;stroke-miterlimit:1.41421;">
    <clipPath id="_clip1">
        <rect id="Artboard1" x="0" y="0" width="48" height="48"/>
    </clipPath>
    <g clip-path="url(#_clip1)">
        <g transform="matrix(1,0,0,1,18.6191,11.8393)">
            <g transform="matrix(1.91304,0,0,1.91304,-17.6191,-10.7958)">
                <rect x="0.5" y="0.5" width="22" height="23" style="fill:none;stroke-width:1px;stroke:rgb(96,186,178);"/>
            </g>
            <g transform="matrix(1.91304,0,0,1.91304,-17.6191,-10.7958)">
                <path d="M11.5,14.5L11.5,7.5" style="fill:none;stroke-width:1px;stroke:rgb(96,186,178);"/>
            </g>
            <g transform="matrix(1.91304,0,0,1.91304,-17.6191,-10.7958)">
                <path d="M17.5,14.5L17.5,12.5" style="fill:none;stroke-width:1px;stroke:rgb(96,186,178);"/>
            </g>
            <g transform="matrix(1.91304,0,0,1.91304,-17.6191,-10.7958)">
                <path d="M5.5,8.5L5.5,3.5" style="fill:none;stroke-width:1px;stroke:rgb(96,186,178);"/>
            </g>
            <g transform="matrix(1.91304,0,0,1.91304,-17.6191,-10.7958)">
                <path d="M5.5,14.5L5.5,10.5" style="fill:none;stroke-width:1px;stroke:rgb(96,186,178);"/>
            </g>
            <g transform="matrix(1.91304,0,0,1.91304,-17.6191,-10.7958)">
                <path d="M17.5,10.5L17.5,3.5" style="fill:none;stroke-width:1px;stroke:rgb(96,186,178);"/>
            </g>
            <g transform="matrix(1.91304,0,0,1.91304,-17.6191,-10.7958)">
                <path d="M11.5,5.5L11.5,3.5" style="fill:none;stroke-width:1px;stroke:rgb(96,186,178);"/>
            </g>
            <g transform="matrix(1.91304,0,0,1.91304,-17.6191,-10.7958)">
                <rect x="15.5" y="10.5" width="4" height="2" style="fill:none;stroke-width:1px;stroke:rgb(96,186,178);"/>
            </g>
            <g transform="matrix(1.91304,0,0,1.91304,-17.6191,-10.7958)">
                <rect x="9.5" y="5.5" width="4" height="2" style="fill:none;stroke-width:1px;stroke:rgb(96,186,178);"/>
            </g>
            <g transform="matrix(1.91304,0,0,1.91304,-17.6191,-10.7958)">
                <rect x="3.5" y="8.5" width="4" height="2" style="fill:none;stroke-width:1px;stroke:rgb(96,186,178);"/>
            </g>
            <g transform="matrix(1.91304,0,0,1.91304,-17.6191,-10.7958)">
                <circle cx="17.5" cy="19" r="1.5" style="fill:none;stroke-width:1px;stroke:rgb(96,186,178);"/>
            </g>
            <g transform="matrix(1.91304,0,0,1.91304,-17.6191,-10.7958)">
                <circle cx="11.5" cy="19" r="1.5" style="fill:none;stroke-width:1px;stroke:rgb(96,186,178);"/>
            </g>
            <g transform="matrix(1.91304,0,0,1.91304,-17.6191,-10.7958)">
                <circle cx="5.5" cy="19" r="1.5" style="fill:none;stroke-width:1px;stroke:rgb(96,186,178);"/>
            </g>
        </g>
    </g>
</svg>
