<svg id="Layer_1" data-name="Layer 1" xmlns="http://www.w3.org/2000/svg" viewBox="0 0 38.35 46">
  <title>feature-export</title>
  <g>
    <path d="M20.67,34.06a2.38,2.38,0,1,0,4.75-.16c0-2.07-2-2.13-2.37-2.25s-2.37-.18-2.37-2.25a2.38,2.38,0,1,1,4.75-.16" transform="translate(-4.83 -1)" style="fill: none;stroke: #60bab2;stroke-linecap: round;stroke-linejoin: round;stroke-width: 2px"/>
    <path d="M16.74,29.24c-.31-1.42-1-2.37-2.48-2.37-2.3,0-2.7,2-2.7,4.78s.4,4.78,2.7,4.78c1.48,0,2.17-1,2.48-2.37" transform="translate(-4.83 -1)" style="fill: none;stroke: #60bab2;stroke-linecap: round;stroke-linejoin: round;stroke-width: 2px"/>
    <polyline points="24.91 25.87 27.78 35.44 30.65 25.87" style="fill: none;stroke: #60bab2;stroke-linecap: round;stroke-linejoin: round;stroke-width: 2px"/>
    <g>
      <polygon points="37.35 45 1 45 1 1 25.87 1 37.35 12.48 37.35 45" style="fill: none;stroke: #60bab2;stroke-linecap: round;stroke-linejoin: round;stroke-width: 2px"/>
      <polyline points="25.87 1 25.87 12.48 37.35 12.48" style="fill: none;stroke: #60bab2;stroke-linecap: round;stroke-linejoin: round;stroke-width: 2px"/>
    </g>
  </g>
</svg>
