<?xml version="1.0" standalone="no"?>
<!DOCTYPE svg PUBLIC "-//W3C//DTD SVG 1.1//EN" "http://www.w3.org/Graphics/SVG/1.1/DTD/svg11.dtd">
<svg width="100%" height="100%" viewBox="0 0 48 48" version="1.1" xmlns="http://www.w3.org/2000/svg" xmlns:xlink="http://www.w3.org/1999/xlink" xml:space="preserve" style="fill-rule:evenodd;clip-rule:evenodd;stroke-linecap:round;stroke-linejoin:round;stroke-miterlimit:1.41421;">
    <clipPath id="_clip1">
        <rect id="Artboard1" x="0" y="0" width="48" height="48"/>
    </clipPath>
    <g clip-path="url(#_clip1)">
        <g transform="matrix(1.91304,0,0,1.91304,4.86957,1.04348)">
            <g transform="matrix(1,0,0,1,-1.56818,0)">
                <path d="M8.3,17.3C8.3,18 8.9,18.5 9.5,18.5C10.2,18.5 10.7,17.9 10.7,17.2C10.7,16.1 9.7,16.1 9.5,16C9.3,15.9 8.3,15.9 8.3,14.8C8.3,14.1 8.9,13.5 9.5,13.5C10.2,13.5 10.7,14 10.7,14.7" style="fill:none;stroke-width:1px;stroke:rgb(96,186,178);"/>
            </g>
            <g transform="matrix(1,0,0,1,-1.56818,0)">
                <path d="M6.2,14.7C6,14 5.7,13.5 4.9,13.5C3.7,13.5 3.5,14.5 3.5,16C3.5,17.5 3.7,18.5 4.9,18.5C5.7,18.5 6,18 6.2,17.3" style="fill:none;stroke-width:1px;stroke:rgb(96,186,178);"/>
            </g>
            <g transform="matrix(1,0,0,1,-1.56818,0)">
                <path d="M13,13.5L14.5,18.5L16,13.5" style="fill:none;stroke-width:1px;stroke:rgb(96,186,178);"/>
            </g>
            <g transform="matrix(1,0,0,1,-1.56818,0)">
                <path d="M19.5,23.5L0.5,23.5L0.5,0.5L13.5,0.5L19.5,6.5L19.5,23.5Z" style="fill:none;stroke-width:1px;stroke:rgb(96,186,178);"/>
                <path d="M13.5,0.5L13.5,6.5L19.5,6.5" style="fill:none;stroke-width:1px;stroke:rgb(96,186,178);"/>
            </g>
        </g>
    </g>
</svg>
