<?xml version="1.0" standalone="no"?>
<!DOCTYPE svg PUBLIC "-//W3C//DTD SVG 1.1//EN" "http://www.w3.org/Graphics/SVG/1.1/DTD/svg11.dtd">
<svg width="100%" height="100%" viewBox="0 0 48 48" version="1.1" xmlns="http://www.w3.org/2000/svg" xmlns:xlink="http://www.w3.org/1999/xlink" xml:space="preserve" style="fill-rule:evenodd;clip-rule:evenodd;stroke-linecap:round;stroke-linejoin:round;stroke-miterlimit:1.41421;">
    <clipPath id="_clip1">
        <rect id="Artboard1" x="0" y="0" width="48" height="48"/>
    </clipPath>
    <g clip-path="url(#_clip1)">
        <g id="creatives" transform="matrix(1.91304,0,-4.93038e-32,1.91304,1.82609,1.04348)">
            <path d="M14.5,12.5L15.5,12.5C17.2,12.5 18.5,13.8 18.5,15.5C18.5,17.2 17.2,18.5 15.5,18.5L14.5,18.5" style="fill:none;stroke-width:1px;stroke:rgb(96,186,178);"/>
            <path d="M14.5,21.5C14.5,22.6 13.6,23.5 12.5,23.5L3.5,23.5C2.4,23.5 1.5,22.6 1.5,21.5L1.5,10.5L14.5,10.5L14.5,21.5Z" style="fill:none;stroke-width:1px;stroke:rgb(96,186,178);"/>
            <path d="M14.4,0.6C15.4,2.2 13.9,3 13.5,3.9C13.1,4.8 13.5,5.7 14.4,6C17.3,7.2 18.2,1.5 14.4,0.6Z" style="fill:none;stroke-width:1px;stroke:rgb(96,186,178);"/>
            <path d="M11.5,10.5L14.053,5.85" style="fill:none;stroke-width:1px;stroke:rgb(96,186,178);"/>
            <path d="M15.1,6.2L13.5,10.5" style="fill:none;stroke-width:1px;stroke:rgb(96,186,178);"/>
            <path d="M5.5,10.5L2.5,10.5L1,7.5L0.5,4.5L3,6L5.5,10.5Z" style="fill:none;stroke-width:1px;stroke:rgb(96,186,178);"/>
            <path d="M1,7.5L3,6" style="fill:none;stroke-width:1px;stroke:rgb(96,186,178);"/>
            <rect x="6.5" y="0.5" width="4" height="10" style="fill:none;stroke-width:1px;stroke:rgb(96,186,178);"/>
            <path d="M10.5,2.5L8.5,2.5" style="fill:none;stroke-width:1px;stroke:rgb(96,186,178);"/>
            <path d="M10.5,4.5L9.5,4.5" style="fill:none;stroke-width:1px;stroke:rgb(96,186,178);"/>
            <path d="M10.5,6.5L8.5,6.5" style="fill:none;stroke-width:1px;stroke:rgb(96,186,178);"/>
            <path d="M10.5,8.5L9.5,8.5" style="fill:none;stroke-width:1px;stroke:rgb(96,186,178);"/>
        </g>
    </g>
</svg>
