<?xml version="1.0" standalone="no"?>
<!DOCTYPE svg PUBLIC "-//W3C//DTD SVG 1.1//EN" "http://www.w3.org/Graphics/SVG/1.1/DTD/svg11.dtd">
<svg width="100%" height="100%" viewBox="0 0 48 48" version="1.1" xmlns="http://www.w3.org/2000/svg" xmlns:xlink="http://www.w3.org/1999/xlink" xml:space="preserve" style="fill-rule:evenodd;clip-rule:evenodd;stroke-linecap:round;stroke-linejoin:round;stroke-miterlimit:1.41421;">
    <clipPath id="_clip1">
        <rect id="Artboard1" x="0" y="0" width="48" height="48"/>
    </clipPath>
    <g clip-path="url(#_clip1)">
        <g id="documentation" transform="matrix(0.977273,0,0,0.977273,0.545455,0.545455)">
            <g id="XMLID_5_" transform="matrix(1.91304,-8.2173e-33,-8.2173e-33,1.91304,5.82609,1.04348)">
                <path id="XMLID_7_" d="M18.5,6.5C17.2,5.2 17.2,1.8 18.5,0.5L3.2,0.5C1.8,0.5 0.5,1.6 0.5,3L0.5,4C0.5,5.4 1.8,6.5 3.2,6.5L18.5,6.5L18.5,23.5L3.7,23.5L2.7,23.5C1.3,23.5 0.5,22.4 0.5,21L0.5,4" style="fill:none;stroke-width:1px;stroke:rgb(96,186,178);"/>
                <path id="XMLID_6_" d="M3,3.5L17.5,3.5" style="fill:none;stroke-width:1px;stroke-linejoin:miter;stroke:rgb(96,186,178);"/>
            </g>
            <g id="documentation1" transform="matrix(1.91304,-8.2173e-33,-8.2173e-33,1.91304,5.82609,1.04348)">
                <circle id="XMLID_3_" cx="8.5" cy="14" r="3.5" style="fill:none;stroke-width:1px;stroke:rgb(96,186,178);"/>
                <path id="XMLID_2_" d="M11,16.5L14,19.5" style="fill:none;stroke-width:1px;stroke:rgb(96,186,178);"/>
            </g>
        </g>
    </g>
</svg>
