<?xml version="1.0" standalone="no"?>
<!DOCTYPE svg PUBLIC "-//W3C//DTD SVG 1.1//EN" "http://www.w3.org/Graphics/SVG/1.1/DTD/svg11.dtd">
<svg width="100%" height="100%" viewBox="0 0 48 48" version="1.1" xmlns="http://www.w3.org/2000/svg" xmlns:xlink="http://www.w3.org/1999/xlink" xml:space="preserve" style="fill-rule:evenodd;clip-rule:evenodd;stroke-linejoin:round;stroke-miterlimit:1.41421;">
    <g transform="matrix(1.82708,0,0,1.82708,2.0751,2.0751)">
        <g transform="matrix(1.02326,0,0,1.02326,-0.27907,-0.377302)">
            <path d="M20,7.006C18.247,7.006 16.774,5.871 16.233,4.303C15.597,4.74 14.833,5.006 14,5.006C11.791,5.006 10,3.215 10,1.006C10,0.897 10.023,0.793 10.032,0.686C4.62,1.621 0.5,6.327 0.5,12.006C0.5,18.358 5.648,23.506 12,23.506C18.352,23.506 23.5,18.358 23.5,12.006C23.5,9.978 22.963,8.081 22.039,6.429C21.44,6.787 20.748,7.006 20,7.006Z" style="fill:none;stroke-width:1px;stroke:rgb(96,186,178);"/>
        </g>
        <g transform="matrix(1.02326,0,0,1.02326,-0.27907,-0.377302)">
            <circle cx="8" cy="9.006" r="2" style="fill:rgb(96,186,178);"/>
        </g>
        <g transform="matrix(1.02326,0,0,1.02326,-0.27907,-0.377302)">
            <circle cx="15" cy="14.006" r="1" style="fill:rgb(96,186,178);"/>
        </g>
        <g transform="matrix(1.02326,0,0,1.02326,-0.27907,-0.377302)">
            <circle cx="9" cy="17.006" r="2" style="fill:rgb(96,186,178);"/>
        </g>
        <g transform="matrix(1.98871,0,0,1.98871,-15.7264,-10.0377)">
            <circle cx="16" cy="10.006" r="0.5" style="fill:rgb(96,186,178);"/>
        </g>
        <g transform="matrix(2.60156,0,0,2.60156,-6.59227,-20.9047)">
            <circle cx="4" cy="13.006" r="0.5" style="fill:rgb(96,186,178);"/>
        </g>
        <g transform="matrix(2.20322,0,0,2.20322,-17.9785,-22.8036)">
            <circle cx="15" cy="19.006" r="0.5" style="fill:rgb(96,186,178);"/>
        </g>
    </g>
</svg>
