<?xml version="1.0" standalone="no"?>
<!DOCTYPE svg PUBLIC "-//W3C//DTD SVG 1.1//EN" "http://www.w3.org/Graphics/SVG/1.1/DTD/svg11.dtd">
<svg width="100%" height="100%" viewBox="0 0 48 48" version="1.1" xmlns="http://www.w3.org/2000/svg" xmlns:xlink="http://www.w3.org/1999/xlink" xml:space="preserve" style="fill-rule:evenodd;clip-rule:evenodd;stroke-linecap:round;stroke-linejoin:round;stroke-miterlimit:1.41421;">
    <clipPath id="_clip1">
        <rect id="Artboard1" x="0" y="0" width="48" height="48"/>
    </clipPath>
    <g clip-path="url(#_clip1)">
        <g id="complete integration" transform="matrix(1.91304,0,0,1.91304,1.04348,9.65217)">
            <path id="XMLID_9_" d="M4,8.5C4.4,8.8 5.5,10.1 6,10.5C7.9,12.1 10.1,13.7 10.5,14C10.8,14.2 11.5,14.5 12,14.5C12.5,14.5 12.9,14.4 13,14C13.7,14.7 14.9,14 15,13C15.6,13.6 17.1,13 17,12C17.7,12.5 19,11.6 18.5,10.5C17.8,9.1 14,6.5 12.5,5C11.6,5.3 11.7,5.4 11,5.5C10.5,6.2 9.7,6.9 8.5,6.5C7.3,6.1 8.3,4.2 9.2,3.3C10.9,1.6 12,1.1 14,2C16,2.9 18,3.6 18,3.6" style="fill:none;stroke-width:1px;stroke:rgb(96,186,178);"/>
            <path id="XMLID_8_" d="M10,2.5C8.8,2.5 6.5,2.5 5.5,2.5" style="fill:none;stroke-width:1px;stroke:rgb(96,186,178);"/>
            <path id="XMLID_7_" d="M18.5,10.5L20,9.5" style="fill:none;stroke-width:1px;stroke:rgb(96,186,178);"/>
            <path id="XMLID_6_" d="M17,12C16.5,11.6 14,9 14,9" style="fill:none;stroke-width:1px;stroke:rgb(96,186,178);"/>
            <path id="XMLID_5_" d="M15,13C14.4,12.5 12.8,10.8 12.5,10.5" style="fill:none;stroke-width:1px;stroke:rgb(96,186,178);"/>
            <path id="XMLID_4_" d="M13,14C12.3,13.4 11,12.1 10.5,11.5" style="fill:none;stroke-width:1px;stroke:rgb(96,186,178);"/>
            <path id="XMLID_3_" d="M0.5,9.5C1.7,9.5 3.5,9.5 3.5,9.5C3.5,9.5 5.3,4.1 5.5,1.5C4.7,0.7 0.5,0.5 0.5,0.5C0.5,0.5 0.5,5.8 0.5,9.5Z" style="fill:none;stroke-width:1px;stroke:rgb(96,186,178);"/>
            <path id="XMLID_2_" d="M17.5,2.5C18.2,3.6 20.1,9.2 20.5,10.5C21.4,10.5 23.5,10.5 23.5,10.5C23.5,10.5 23.5,3.6 23.5,1.5C19.6,1.5 17.5,2.5 17.5,2.5Z" style="fill:none;stroke-width:1px;stroke:rgb(96,186,178);"/>
        </g>
    </g>
</svg>
