<?xml version="1.0" standalone="no"?>
<!DOCTYPE svg PUBLIC "-//W3C//DTD SVG 1.1//EN" "http://www.w3.org/Graphics/SVG/1.1/DTD/svg11.dtd">
<svg width="100%" height="100%" viewBox="0 0 48 48" version="1.1" xmlns="http://www.w3.org/2000/svg" xmlns:xlink="http://www.w3.org/1999/xlink" xml:space="preserve" style="fill-rule:evenodd;clip-rule:evenodd;stroke-linecap:round;stroke-linejoin:round;stroke-miterlimit:1.41421;">
    <g>
        <g transform="matrix(1.91304,9.86076e-32,1.47911e-31,1.91304,1.04348,2)">
            <path d="M23.5,18.5C23.5,19.604 22.605,20.5 21.5,20.5L2.5,20.5C1.396,20.5 0.5,19.604 0.5,18.5L0.5,4.5C0.5,3.396 1.396,2.5 2.5,2.5L21.5,2.5C22.605,2.5 23.5,3.396 23.5,4.5L23.5,18.5Z" style="fill:none;stroke-width:1px;stroke:rgb(96,186,178);"/>
        </g>
        <g transform="matrix(1.91304,9.86076e-32,1.47911e-31,1.91304,1.04348,2)">
            <path d="M0.5,7.5L23.5,7.5" style="fill:none;stroke-width:1px;stroke:rgb(96,186,178);"/>
        </g>
        <g transform="matrix(1.91304,9.86076e-32,1.47911e-31,1.91304,1.04348,2)">
            <circle cx="4" cy="5" r="0.5" style="fill:none;stroke-width:1px;stroke:rgb(96,186,178);"/>
        </g>
        <g transform="matrix(1.91304,9.86076e-32,1.47911e-31,1.91304,1.04348,2)">
            <circle cx="7" cy="5" r="0.5" style="fill:none;stroke-width:1px;stroke:rgb(96,186,178);"/>
        </g>
        <g transform="matrix(1.91304,9.86076e-32,1.47911e-31,1.91304,1.04348,2)">
            <circle cx="10" cy="5" r="0.5" style="fill:none;stroke-width:1px;stroke:rgb(96,186,178);"/>
        </g>
        <g transform="matrix(1.91304,9.86076e-32,1.47911e-31,1.91304,1.04348,2)">
            <path d="M5.5,11.5L8,14L5.5,16.5" style="fill:none;stroke-width:1px;stroke:rgb(96,186,178);"/>
        </g>
        <g transform="matrix(1.91304,9.86076e-32,1.47911e-31,1.91304,1.04348,2)">
            <path d="M11.5,14.5L15.5,14.5" style="fill:none;stroke-width:1px;stroke:rgb(96,186,178);"/>
        </g>
    </g>
</svg>
