<?xml version="1.0" standalone="no"?>
<!DOCTYPE svg PUBLIC "-//W3C//DTD SVG 1.1//EN" "http://www.w3.org/Graphics/SVG/1.1/DTD/svg11.dtd">
<svg width="100%" height="100%" viewBox="0 0 24 24" version="1.1" xmlns="http://www.w3.org/2000/svg" xmlns:xlink="http://www.w3.org/1999/xlink" xml:space="preserve" style="fill-rule:evenodd;clip-rule:evenodd;stroke-linecap:round;stroke-linejoin:round;stroke-miterlimit:1.41421;">
    <g>
        <path d="M6.5,15.5L0.5,15.5L0.5,4.5L14.5,4.5L14.5,6.5" style="fill:none;stroke-width:1px;stroke:rgb(227,79,67);"/>
        <path d="M14.5,4.5L0.5,4.5L4.5,0.5L10.5,0.5L14.5,4.5Z" style="fill:none;stroke-width:1px;stroke:rgb(227,79,67);"/>
        <path d="M7.5,0.5L7.5,4.5" style="fill:none;stroke-width:1px;stroke:rgb(227,79,67);"/>
        <g>
            <circle cx="16.5" cy="16.5" r="7" style="fill:none;stroke-width:1px;stroke-linecap:butt;stroke:rgb(227,79,67);"/>
            <g>
                <path d="M14.9,18.1C14.9,19 15.6,19.7 16.5,19.7C17.4,19.7 18.1,19 18.1,18.1C18.1,17.2 17.4,16.5 16.5,16.5C15.6,16.5 14.9,15.8 14.9,14.9C14.9,14 15.6,13.3 16.5,13.3C17.4,13.3 18.1,14 18.1,14.9" style="fill:none;stroke-width:1px;stroke:rgb(227,79,67);"/>
                <path d="M16.5,19.7L16.5,20.8" style="fill:none;stroke-width:1px;stroke:rgb(227,79,67);"/>
                <path d="M16.5,12.1L16.5,13.2" style="fill:none;stroke-width:1px;stroke:rgb(227,79,67);"/>
            </g>
        </g>
    </g>
</svg>
