<?xml version="1.0" standalone="no"?>
<!DOCTYPE svg PUBLIC "-//W3C//DTD SVG 1.1//EN" "http://www.w3.org/Graphics/SVG/1.1/DTD/svg11.dtd">
<svg width="100%" height="100%" viewBox="0 0 48 48" version="1.1" xmlns="http://www.w3.org/2000/svg" xmlns:xlink="http://www.w3.org/1999/xlink" xml:space="preserve" style="fill-rule:evenodd;clip-rule:evenodd;stroke-linecap:round;stroke-linejoin:round;stroke-miterlimit:1.41421;">
    <clipPath id="_clip1">
        <rect id="Artboard1" x="0" y="0" width="48" height="48"/>
    </clipPath>
    <g clip-path="url(#_clip1)">
        <g id="XMLID_5_" transform="matrix(1.91304,0,0,1.91304,1.04348,1.04348)">
            <g id="XMLID_13_">
                <path id="XMLID_15_" d="M1.5,19.5L2.5,17.5L4.5,18.5" style="fill:none;stroke-width:1px;stroke:rgb(96,186,178);"/>
                <path id="XMLID_14_" d="M7.5,22.5C4.7,22.5 2.8,20.1 2.5,17.5" style="fill:none;stroke-width:1px;stroke:rgb(96,186,178);"/>
            </g>
            <g id="XMLID_10_">
                <path id="XMLID_12_" d="M22.5,4.5L21.5,6.5L19.5,5.5" style="fill:none;stroke-width:1px;stroke:rgb(96,186,178);"/>
                <path id="XMLID_11_" d="M16.5,1.5C19.3,1.5 21.2,3.9 21.5,6.5" style="fill:none;stroke-width:1px;stroke:rgb(96,186,178);"/>
            </g>
            <path id="XMLID_9_" d="M12.5,17.5C12.5,18.6 13.8,19.5 15.5,19.5C17.2,19.5 18.5,18.6 18.5,17.5C18.5,16.4 17.2,15.5 15.5,15.5C13.8,15.5 12.5,14.6 12.5,13.5C12.5,12.4 13.8,11.5 15.5,11.5C17.2,11.5 18.5,12.4 18.5,13.5" style="fill:none;stroke-width:1px;stroke:rgb(96,186,178);"/>
            <path id="XMLID_8_" d="M15.5,10.5L15.5,20.5" style="fill:none;stroke-width:1px;stroke:rgb(96,186,178);"/>
            <path id="XMLID_7_" d="M7.5,14.5C3.6,14.5 0.5,11.4 0.5,7.5C0.5,3.6 3.6,0.5 7.5,0.5C11.4,0.5 14.5,3.6 14.5,7.5" style="fill:none;stroke-width:1px;stroke:rgb(96,186,178);"/>
            <circle id="XMLID_6_" cx="15.5" cy="15.5" r="8" style="fill:none;stroke-width:1px;stroke:rgb(96,186,178);"/>
            <g>
                <path id="XMLID_4_" d="M5.5,10.5L9.5,3.8" style="fill:none;stroke-width:1px;stroke:rgb(96,186,178);"/>
                <circle id="XMLID_3_" cx="4.4" cy="5.7" r="1.3" style="fill:none;stroke-width:1px;stroke:rgb(96,186,178);"/>
                <path id="XMLID_1_" d="M9.6,10C9.4,9.8 9.2,9.5 9.2,9.2C9.2,8.5 9.8,7.9 10.5,7.9C11,7.9 11.4,8.2 11.6,8.5" style="fill:none;stroke-width:1px;stroke:rgb(96,186,178);"/>
            </g>
        </g>
    </g>
</svg>
