<?xml version="1.0" standalone="no"?>
<!DOCTYPE svg PUBLIC "-//W3C//DTD SVG 1.1//EN" "http://www.w3.org/Graphics/SVG/1.1/DTD/svg11.dtd">
<svg width="100%" height="100%" viewBox="0 0 24 24" version="1.1" xmlns="http://www.w3.org/2000/svg" xmlns:xlink="http://www.w3.org/1999/xlink" xml:space="preserve" style="fill-rule:evenodd;clip-rule:evenodd;stroke-linejoin:round;stroke-miterlimit:1.41421;">
    <g transform="matrix(0.813665,0,0,0.813665,4.06493,4.02697)">
        <circle cx="16.5" cy="16.5" r="7" style="fill:none;stroke-width:1.17px;stroke:rgb(96,186,178);"/>
        <g>
            <path d="M14.9,18.1C14.9,19 15.6,19.7 16.5,19.7C17.4,19.7 18.1,19 18.1,18.1C18.1,17.2 17.4,16.5 16.5,16.5C15.6,16.5 14.9,15.8 14.9,14.9C14.9,14 15.6,13.3 16.5,13.3C17.4,13.3 18.1,14 18.1,14.9" style="fill:none;stroke-width:1.17px;stroke-linecap:round;stroke:rgb(96,186,178);"/>
            <path d="M16.5,19.7L16.5,20.8" style="fill:none;stroke-width:1.17px;stroke-linecap:round;stroke:rgb(96,186,178);"/>
            <path d="M16.5,12.1L16.5,13.2" style="fill:none;stroke-width:1.17px;stroke-linecap:round;stroke:rgb(96,186,178);"/>
        </g>
    </g>
    <g id="XMLID_1_" transform="matrix(0.826087,0,0,0.826087,0.586957,0.586957)">
        <circle id="XMLID_10_" cx="7.5" cy="11.5" r="5" style="fill:none;stroke-width:1.15px;stroke-linecap:round;stroke:rgb(96,186,178);"/>
        <g id="XMLID_7_">
            <circle id="XMLID_9_" cx="7.5" cy="10.5" r="2" style="fill:none;stroke-width:1.15px;stroke-linecap:round;stroke:rgb(96,186,178);"/>
            <path id="XMLID_8_" d="M7.5,16.5C8.9,16.5 10.1,15.9 11,15C10.5,13.5 9.1,12.5 7.5,12.5C5.9,12.5 4.5,13.6 4,15C4.9,15.9 6.1,16.5 7.5,16.5Z" style="fill:none;stroke-width:1.15px;stroke-linecap:round;stroke:rgb(96,186,178);"/>
        </g>
        <path id="XMLID_6_" d="M14.5,8.5L21.5,8.5" style="fill:none;stroke-width:1.15px;stroke-linecap:round;stroke:rgb(96,186,178);"/>
        <g id="XMLID_5_" transform="matrix(1,0,0,1,0,-0.507563)">
            <path d="M14.5,11.5L21.5,11.5" style="fill:none;stroke-width:1.15px;stroke-linecap:round;stroke:rgb(96,186,178);"/>
        </g>
        <path id="XMLID_3_" d="M23.5,11.01L23.5,5.5C23.5,4.4 22.6,3.5 21.5,3.5L14.5,3.5L10.5,3.5L2.5,3.5C1.4,3.5 0.5,4.4 0.5,5.5L0.5,16.5C0.5,17.6 1.4,18.5 2.5,18.5L10.856,18.5" style="fill:none;stroke-width:1.15px;stroke-linecap:round;stroke:rgb(96,186,178);"/>
        <rect id="XMLID_2_" x="10.5" y="0.5" width="4" height="4" style="fill:none;stroke-width:1.15px;stroke-linecap:round;stroke:rgb(96,186,178);"/>
    </g>
</svg>
