<svg id="Layer_1" data-name="Layer 1" xmlns="http://www.w3.org/2000/svg" viewBox="0 0 44.17 35">
  <title>feature-affiliate-urls</title>
  <g id="Outline_Icons" data-name="Outline Icons">
    <g>
      <path d="M45.08,35.92a3.67,3.67,0,0,1-3.67,3.67H6.58a3.67,3.67,0,0,1-3.67-3.67V10.25A3.67,3.67,0,0,1,6.58,6.58H41.42a3.67,3.67,0,0,1,3.67,3.67Z" transform="translate(-1.92 -5.58)" style="fill: none;stroke: #60bab2;stroke-linecap: round;stroke-linejoin: round;stroke-width: 2px"/>
      <line x1="1" y1="10.17" x2="43.17" y2="10.17" style="fill: none;stroke: #60bab2;stroke-linecap: round;stroke-linejoin: round;stroke-width: 2px"/>
      <circle cx="7.42" cy="5.58" r="0.92" style="fill: none;stroke: #60bab2;stroke-linecap: round;stroke-linejoin: round;stroke-width: 2px"/>
      <circle cx="12.92" cy="5.58" r="0.92" style="fill: none;stroke: #60bab2;stroke-linecap: round;stroke-linejoin: round;stroke-width: 2px"/>
      <circle cx="18.42" cy="5.58" r="0.92" style="fill: none;stroke: #60bab2;stroke-linecap: round;stroke-linejoin: round;stroke-width: 2px"/>
      <g>
        <line x1="6.5" y1="17.5" x2="6.5" y2="26.67" style="fill: none;stroke: #60bab2;stroke-linecap: round;stroke-linejoin: round;stroke-width: 2px"/>
        <line x1="12" y1="17.5" x2="12" y2="26.67" style="fill: none;stroke: #60bab2;stroke-linecap: round;stroke-linejoin: round;stroke-width: 2px"/>
        <g>
          <line x1="17.5" y1="17.5" x2="17.5" y2="26.67" style="fill: none;stroke: #60bab2;stroke-linecap: round;stroke-linejoin: round;stroke-width: 2px"/>
          <line x1="20.25" y1="17.5" x2="14.75" y2="17.5" style="fill: none;stroke: #60bab2;stroke-linecap: round;stroke-linejoin: round;stroke-width: 2px"/>
        </g>
        <g>
          <line x1="26.67" y1="17.5" x2="26.67" y2="26.67" style="fill: none;stroke: #60bab2;stroke-linecap: round;stroke-linejoin: round;stroke-width: 2px"/>
          <line x1="29.42" y1="17.5" x2="23.92" y2="17.5" style="fill: none;stroke: #60bab2;stroke-linecap: round;stroke-linejoin: round;stroke-width: 2px"/>
        </g>
        <line x1="12" y1="23" x2="6.5" y2="23" style="fill: none;stroke: #60bab2;stroke-linecap: round;stroke-linejoin: round;stroke-width: 2px"/>
        <g>
          <line x1="32.17" y1="17.5" x2="32.17" y2="26.67" style="fill: none;stroke: #60bab2;stroke-linecap: round;stroke-linejoin: round;stroke-width: 2px"/>
          <path d="M40.5,25.83c0,1.28-.56,2.75-1.83,2.75H34.08v-5.5h4.58C39.94,23.08,40.5,24.56,40.5,25.83Z" transform="translate(-1.92 -5.58)" style="fill: none;stroke: #60bab2;stroke-linecap: round;stroke-linejoin: round;stroke-width: 2px"/>
        </g>
      </g>
    </g>
  </g>
</svg>
