<?xml version="1.0" standalone="no"?>
<!DOCTYPE svg PUBLIC "-//W3C//DTD SVG 1.1//EN" "http://www.w3.org/Graphics/SVG/1.1/DTD/svg11.dtd">
<svg width="100%" height="100%" viewBox="0 0 48 48" version="1.1" xmlns="http://www.w3.org/2000/svg" xmlns:xlink="http://www.w3.org/1999/xlink" xml:space="preserve" style="fill-rule:evenodd;clip-rule:evenodd;stroke-linecap:round;stroke-linejoin:round;stroke-miterlimit:1.41421;">
    <clipPath id="_clip1">
        <rect id="Artboard1" x="0" y="0" width="48" height="48"/>
    </clipPath>
    <g clip-path="url(#_clip1)">
        <g transform="matrix(1.91304,0,0,1.91304,1.04348,1.04348)">
            <path d="M23.5,23.5L0.5,23.5L0.5,0.5" style="fill:none;stroke-width:1px;stroke:rgb(96,186,178);"/>
            <circle cx="7.5" cy="16.5" r="1.5" style="fill:none;stroke-width:1px;stroke:rgb(96,186,178);"/>
            <g transform="matrix(0.989736,0,0,0.995052,0.173456,0.0410645)">
                <path d="M16.9,8.3L21,3.1" style="fill:none;stroke-width:1px;stroke:rgb(96,186,178);"/>
            </g>
            <g transform="matrix(0.990084,0,0,0.974416,0.0981655,0.191878)">
                <path d="M9.9,7.5L14.6,9.1" style="fill:none;stroke-width:1px;stroke:rgb(96,186,178);"/>
            </g>
            <path d="M0.5,11.8L7.2,7.8" style="fill:none;stroke-width:1px;stroke:rgb(96,186,178);"/>
            <g transform="matrix(0.987017,0,0,0.987363,0.268743,0.168078)">
                <path d="M16.3,15.8L20.7,13.3" style="fill:none;stroke-width:1px;stroke:rgb(96,186,178);"/>
            </g>
            <path d="M9,16.5L13.5,16.5" style="fill:none;stroke-width:1px;stroke:rgb(96,186,178);"/>
            <path d="M0.5,21L6.2,17.3" style="fill:none;stroke-width:1px;stroke:rgb(96,186,178);"/>
            <circle cx="8.5" cy="7" r="1.5" style="fill:none;stroke-width:1px;stroke:rgb(96,186,178);"/>
            <circle cx="16" cy="9.5" r="1.5" style="fill:none;stroke-width:1px;stroke:rgb(96,186,178);"/>
            <circle cx="22" cy="2" r="1.5" style="fill:none;stroke-width:1px;stroke:rgb(96,186,178);"/>
            <circle cx="22" cy="12.5" r="1.5" style="fill:none;stroke-width:1px;stroke:rgb(96,186,178);"/>
            <circle cx="15" cy="16.5" r="1.5" style="fill:none;stroke-width:1px;stroke:rgb(96,186,178);"/>
        </g>
    </g>
</svg>
