<?xml version="1.0" standalone="no"?>
<!DOCTYPE svg PUBLIC "-//W3C//DTD SVG 1.1//EN" "http://www.w3.org/Graphics/SVG/1.1/DTD/svg11.dtd">
<svg width="100%" height="100%" viewBox="0 0 48 48" version="1.1" xmlns="http://www.w3.org/2000/svg" xmlns:xlink="http://www.w3.org/1999/xlink" xml:space="preserve" style="fill-rule:evenodd;clip-rule:evenodd;stroke-linecap:round;stroke-linejoin:round;stroke-miterlimit:1.41421;">
    <clipPath id="_clip1">
        <rect id="Artboard1" x="0" y="0" width="48" height="48"/>
    </clipPath>
    <g clip-path="url(#_clip1)">
        <g id="fully internationized" transform="matrix(1.99637,0,3.08149e-33,1.99637,1.00181,1.00181)">
            <circle cx="11.52" cy="11.52" r="11.02" style="fill:none;stroke-width:1px;stroke:rgb(96,185,179);"/>
            <g transform="matrix(1,0,0,1,-0.48,-0.48)">
                <path d="M20.15,4.58C20.15,4.58 19.67,7.21 17.75,8.17C15.83,7.69 13.92,9.17 14.4,9.17C14.88,9.17 15.4,11.09 15.4,11.09C15.846,11.345 16.394,11.345 16.84,11.09C18.04,12.29 14.92,14.44 14.92,14.92C14.92,15.4 16.12,15.64 15.4,16.36C14.998,16.793 14.506,17.134 13.96,17.36C13.96,19.76 11.56,19.76 11.09,19.76C10.62,19.76 9.6,17.75 9.6,17.27C9.6,16.79 10.08,16.27 10.08,15.83C9.868,15.276 9.524,14.782 9.08,14.39C9.13,12.48 7.69,13 6.25,13C4.81,13 4.81,11 4.81,11C4.81,11 4.81,7.65 7.21,7.17C9.61,6.69 9.61,7.65 9.61,7.65C10.61,8.65 12.49,7.65 13.44,7.65C13.44,7.65 13.92,4.3 12.96,4.78C12.752,4.936 12.499,5.021 12.239,5.021C11.581,5.021 11.039,4.479 11.039,3.821C11.039,3.807 11.04,3.793 11.04,3.78C10.9,2.28 14.719,1.38 14.719,1.38" style="fill:none;stroke-width:1px;stroke:rgb(96,185,179);"/>
            </g>
        </g>
    </g>
</svg>
