<?xml version="1.0" standalone="no"?><!DOCTYPE svg PUBLIC "-//W3C//DTD SVG 1.1//EN" "http://www.w3.org/Graphics/SVG/1.1/DTD/svg11.dtd"><svg width="100%" height="100%" viewBox="0 0 24 24" version="1.1" xmlns="http://www.w3.org/2000/svg" xmlns:xlink="http://www.w3.org/1999/xlink" xml:space="preserve" style="fill-rule:evenodd;clip-rule:evenodd;stroke-linecap:round;stroke-linejoin:round;stroke-miterlimit:1.41421;"><g id="Outline_Icons"><path d="M7.219,13.5l-6.719,0l0,-3l6.703,0" style="fill:none;stroke-width:1px;stroke:#60B9B3;"/><path d="M13.5,16.766l0,6.734l-3,0l0,-6.734" style="fill:none;stroke-width:1px;stroke:#60B9B3;"/><path d="M16.766,10.5l6.734,0l0,3l-6.75,0" style="fill:none;stroke-width:1px;stroke:#60B9B3;"/><path d="M10.5,7.219l0,-6.719l3,0l0,6.734" style="fill:none;stroke-width:1px;stroke:#60B9B3;"/><circle cx="12" cy="12" r="5" style="fill:none;stroke-width:1px;stroke:#60B9B3;"/><path d="M13.5,1.607c4.598,0.659 8.235,4.294 8.893,8.893" style="fill:none;stroke-width:1px;stroke:#60B9B3;"/><path d="M1.605,10.5c0.659,-4.599 4.295,-8.234 8.895,-8.893" style="fill:none;stroke-width:1px;stroke:#60B9B3;"/><path d="M10.5,22.394c-4.6,-0.657 -8.236,-4.294 -8.895,-8.894" style="fill:none;stroke-width:1px;stroke:#60B9B3;"/><path d="M22.393,13.5c-0.657,4.6 -4.295,8.237 -8.893,8.894" style="fill:none;stroke-width:1px;stroke:#60B9B3;"/></g></svg>
