<?xml version="1.0" standalone="no"?>
<!DOCTYPE svg PUBLIC "-//W3C//DTD SVG 1.1//EN" "http://www.w3.org/Graphics/SVG/1.1/DTD/svg11.dtd">
<svg width="100%" height="100%" viewBox="0 0 48 48" version="1.1" xmlns="http://www.w3.org/2000/svg" xmlns:xlink="http://www.w3.org/1999/xlink" xml:space="preserve" style="fill-rule:evenodd;clip-rule:evenodd;stroke-linecap:round;stroke-linejoin:round;stroke-miterlimit:1.41421;">
    <clipPath id="_clip1">
        <rect id="Artboard1" x="0" y="0" width="48" height="48"/>
    </clipPath>
    <g clip-path="url(#_clip1)">
        <g id="XMLID_1_" transform="matrix(2,0,0,2,1,4)">
            <g id="XMLID_3_">
                <path id="XMLID_7_" d="M5.5,15.5L2.5,15.5C1.4,15.5 0.5,14.6 0.5,13.5L0.5,2.5C0.5,1.4 1.4,0.5 2.5,0.5L20.5,0.5C21.6,0.5 22.5,1.4 22.5,2.5L22.5,13.5C22.5,14.6 21.6,15.5 20.5,15.5L17.5,15.5" style="fill:none;stroke-width:1px;stroke:rgb(96,186,178);"/>
                <path id="XMLID_6_" d="M2.5,2.5L10.3,8.1C11,8.6 12,8.6 12.8,8.1L20.6,2.5" style="fill:none;stroke-width:1px;stroke:rgb(96,186,178);"/>
                <path id="XMLID_5_" d="M2.5,13.5L7.5,8.5" style="fill:none;stroke-width:1px;stroke:rgb(96,186,178);"/>
                <path id="XMLID_4_" d="M20.5,13.5L15.5,8.5" style="fill:none;stroke-width:1px;stroke:rgb(96,186,178);"/>
            </g>
            <path id="XMLID_2_" d="M11.5,14.5C11.5,13.3 10.4,12.3 9.2,12.5C8.2,12.7 7.5,13.6 7.5,14.6L7.5,14.7C7.5,15.2 7.7,15.7 8.1,16.1L11.5,19.5L14.9,16.1C15.3,15.7 15.5,15.2 15.5,14.7L15.5,14.6C15.5,13.6 14.8,12.7 13.8,12.5C12.6,12.3 11.5,13.3 11.5,14.5" style="fill:none;stroke-width:1px;stroke:rgb(96,186,178);"/>
        </g>
    </g>
</svg>
