<?xml version="1.0" standalone="no"?>
<!DOCTYPE svg PUBLIC "-//W3C//DTD SVG 1.1//EN" "http://www.w3.org/Graphics/SVG/1.1/DTD/svg11.dtd">
<svg width="100%" height="100%" viewBox="0 0 48 48" version="1.1" xmlns="http://www.w3.org/2000/svg" xmlns:xlink="http://www.w3.org/1999/xlink" xml:space="preserve" style="fill-rule:evenodd;clip-rule:evenodd;stroke-linecap:round;stroke-linejoin:round;stroke-miterlimit:1.41421;">
    <clipPath id="_clip1">
        <rect id="Artboard1" x="0" y="0" width="48" height="48"/>
    </clipPath>
    <g clip-path="url(#_clip1)">
        <g id="affiliate area" transform="matrix(1.91304,0,0,1.91304,-38.282,-14.1709)">
            <g id="XMLID_6_" transform="matrix(1,0,0,1,20.5565,7.95296)">
                <path d="M20.5,23.5L3.5,23.5C1.8,23.5 0.5,22.2 0.5,20.5L0.5,3.5C0.5,1.8 1.8,0.5 3.5,0.5L20.5,0.5C22.2,0.5 23.5,1.8 23.5,3.5L23.5,20.5C23.5,22.2 22.2,23.5 20.5,23.5Z" style="fill:none;stroke-width:1px;stroke:rgb(96,186,178);"/>
            </g>
            <g id="XMLID_5_" transform="matrix(1,0,0,1,20.5565,7.95296)">
                <path d="M0.5,4.5L23.5,4.5" style="fill:none;stroke-width:1px;stroke:rgb(96,186,178);"/>
            </g>
            <g>
                <g id="XMLID_2_" transform="matrix(1.45915,0,0,1.45915,17.1129,6.80509)">
                    <circle cx="7.5" cy="2.5" r="0.5" style="fill:rgb(96,186,178);"/>
                </g>
                <g id="XMLID_2_1" transform="matrix(1.45915,0,0,1.45915,15.1129,6.80509)">
                    <circle cx="7.5" cy="2.5" r="0.5" style="fill:rgb(96,186,178);"/>
                </g>
                <g id="XMLID_2_2" transform="matrix(1.45915,0,0,1.45915,13.103,6.80509)">
                    <circle cx="7.5" cy="2.5" r="0.5" style="fill:rgb(96,186,178);"/>
                </g>
            </g>
            <g transform="matrix(1.2427,0,0,1.2427,13.746,4.47836)">
                <rect x="16.1" y="11.5" width="5.5" height="2.7" style="fill:none;stroke-width:0.8px;stroke:rgb(96,186,178);"/>
            </g>
            <g transform="matrix(1.2427,0,0,1.2427,13.0964,4.5066)">
                <path d="M6.406,14.2L9.2,14.2L9.2,11.1L14.8,11.1L14.8,14.2L24.914,14.2" style="fill:none;stroke-width:0.8px;stroke:rgb(96,186,178);"/>
            </g>
        </g>
    </g>
</svg>
