<?xml version="1.0" standalone="no"?>
<!DOCTYPE svg PUBLIC "-//W3C//DTD SVG 1.1//EN" "http://www.w3.org/Graphics/SVG/1.1/DTD/svg11.dtd">
<svg width="100%" height="100%" viewBox="0 0 48 48" version="1.1" xmlns="http://www.w3.org/2000/svg" xmlns:xlink="http://www.w3.org/1999/xlink" xml:space="preserve" style="fill-rule:evenodd;clip-rule:evenodd;stroke-linecap:round;stroke-linejoin:round;stroke-miterlimit:1.41421;">
    <g id="XMLID_1_" transform="matrix(1.91423,0,0,1.91423,1.08339,1.02929)">
        <path id="XMLID_11_" d="M13.5,0.5C13.5,1.1 13.1,1.5 12.5,1.5C11.9,1.5 11.5,1.1 11.5,0.5C11.5,1.1 11.1,1.5 10.5,1.5C9.9,1.5 9.5,1.1 9.5,0.5C9.5,1.1 9.1,1.5 8.5,1.5C7.9,1.5 7.5,1.1 7.5,0.5C7.5,1.1 7.1,1.5 6.5,1.5C5.9,1.5 5.5,1.1 5.5,0.5C5.5,1.1 5.1,1.5 4.5,1.5C3.9,1.5 3.5,1.1 3.5,0.5C3.5,1.1 3.1,1.5 2.5,1.5C1.9,1.5 1.5,1.1 1.5,0.5L0.5,0.5L0.5,23.5L1.5,23.5C1.5,22.9 1.9,22.5 2.5,22.5C3.1,22.5 3.5,22.9 3.5,23.5C3.5,22.9 3.9,22.5 4.5,22.5C5.1,22.5 5.5,22.9 5.5,23.5C5.5,22.9 5.9,22.5 6.5,22.5C7.1,22.5 7.5,22.9 7.5,23.5C7.5,22.9 7.9,22.5 8.5,22.5C9.1,22.5 9.5,22.9 9.5,23.5C9.5,22.9 9.9,22.5 10.5,22.5C11.1,22.5 11.5,22.9 11.5,23.5C11.5,22.9 11.9,22.5 12.5,22.5C13.1,22.5 13.5,22.9 13.5,23.5L14.5,23.5L14.5,0.5L13.5,0.5Z" style="fill:none;stroke-width:1px;stroke:rgb(96,186,178);"/>
        <path id="XMLID_10_" d="M2.5,3.5L6.5,3.5" style="fill:none;stroke-width:1px;stroke:rgb(96,186,178);"/>
        <path id="XMLID_9_" d="M2.5,6.5L12.5,6.5" style="fill:none;stroke-width:1px;stroke:rgb(96,186,178);"/>
        <path id="XMLID_8_" d="M2.5,9.5L12.5,9.5" style="fill:none;stroke-width:1px;stroke:rgb(96,186,178);"/>
        <path id="XMLID_7_" d="M2.5,12.5L7.5,12.5" style="fill:none;stroke-width:1px;stroke:rgb(96,186,178);"/>
        <path id="XMLID_6_" d="M2.5,15.5L6.5,15.5" style="fill:none;stroke-width:1px;stroke:rgb(96,186,178);"/>
        <path id="XMLID_5_" d="M2.5,18.5L6.5,18.5" style="fill:none;stroke-width:1px;stroke:rgb(96,186,178);"/>
        <g id="XMLID_2_">
            <path id="XMLID_4_" d="M8.5,18.1C8.6,18.9 9.4,19.5 10.5,19.5C11.6,19.5 12.5,18.8 12.5,18C12.5,16.8 10.9,16.6 10.5,16.5C10.2,16.4 8.5,16.2 8.5,15C8.5,14.2 9.4,13.5 10.5,13.5C11.6,13.5 12.4,14.1 12.5,14.9" style="fill:none;stroke-width:1px;stroke:rgb(96,186,178);"/>
            <path id="XMLID_3_" d="M10.5,12.5L10.5,20.5" style="fill:none;stroke-width:1px;stroke:rgb(96,186,178);"/>
        </g>
    </g>
</svg>
