<?xml version="1.0" encoding="utf-8"?>
<!-- Generator: Adobe Illustrator 17.0.0, SVG Export Plug-In . SVG Version: 6.00 Build 0)  -->
<!DOCTYPE svg PUBLIC "-//W3C//DTD SVG 1.1//EN" "http://www.w3.org/Graphics/SVG/1.1/DTD/svg11.dtd">
<svg version="1.1" id="Layer_1" xmlns="http://www.w3.org/2000/svg" xmlns:xlink="http://www.w3.org/1999/xlink" x="0px" y="0px"
	 width="32px" height="32px" viewBox="0 0 32 32" enable-background="new 0 0 32 32" xml:space="preserve">
<path fill="#FFFFFF" d="M31.059,2.619c-0.52,0-0.941,0.421-0.941,0.941v0.612L1.882,12.766v-0.039c0-0.52-0.421-0.941-0.941-0.941
	S0,12.207,0,12.727v1.309v3.928v1.31c0,0.52,0.421,0.941,0.941,0.941s0.941-0.421,0.941-0.941v-0.039l4.665,1.42v2.693
	c0,3.046,2.478,5.525,5.524,5.525c2.823,0,5.156-2.131,5.482-4.868l12.564,3.824v0.612c0,0.52,0.421,0.941,0.941,0.941
	c0.52,0,0.941-0.421,0.941-0.941v-1.31V4.869V3.56C32,3.04,31.579,2.619,31.059,2.619z M12.072,26.99
	c-2.008,0-3.642-1.634-3.642-3.642v-2.12l7.275,2.214C15.653,25.405,14.048,26.99,12.072,26.99z M1.882,17.267v-2.534L30.118,6.14
	V25.86L1.882,17.267z"/>
</svg>
