<?xml version="1.0" encoding="utf-8"?>
<!-- Generator: Adobe Illustrator 17.0.0, SVG Export Plug-In . SVG Version: 6.00 Build 0)  -->
<!DOCTYPE svg PUBLIC "-//W3C//DTD SVG 1.1//EN" "http://www.w3.org/Graphics/SVG/1.1/DTD/svg11.dtd">
<svg version="1.1" id="Layer_1" xmlns="http://www.w3.org/2000/svg" xmlns:xlink="http://www.w3.org/1999/xlink" x="0px" y="0px"
	 width="35px" height="32px" viewBox="0 0 35 32" enable-background="new 0 0 35 32" xml:space="preserve">
<g>
	<path fill="#E34F43" d="M25.332,3c1.637,0,3.314,0.729,4.601,2.001C31.266,6.318,32,8.013,32,9.776
		c0,2.599-3.342,5.871-7.211,9.659c-2.309,2.26-4.849,4.747-7.289,7.643c-2.44-2.896-4.98-5.382-7.289-7.643
		C6.342,15.647,3,12.375,3,9.775c0-1.762,0.734-3.458,2.067-4.774C6.354,3.729,8.031,3,9.668,3c2.036,0,3.892,1.124,5.367,3.251
		l2.465,3.554l2.465-3.554C21.44,4.124,23.296,3,25.332,3 M25.332,0c-2.75,0-5.602,1.326-7.831,4.541C15.27,1.326,12.419,0,9.668,0
		C4.668,0-0.001,4.386,0,9.776c0,6.444,10.073,11.994,17.5,22.149C24.927,21.769,35,16.22,35,9.776C35.001,4.386,30.332,0,25.332,0
		L25.332,0z"/>
</g>
</svg>
