<?xml version="1.0" encoding="utf-8"?>
<!-- Generator: Adobe Illustrator 17.0.0, SVG Export Plug-In . SVG Version: 6.00 Build 0)  -->
<!DOCTYPE svg PUBLIC "-//W3C//DTD SVG 1.1//EN" "http://www.w3.org/Graphics/SVG/1.1/DTD/svg11.dtd">
<svg version="1.1" id="_x31_" xmlns="http://www.w3.org/2000/svg" xmlns:xlink="http://www.w3.org/1999/xlink" x="0px" y="0px"
	 width="195.644px" height="32px" viewBox="0 0 195.644 32" enable-background="new 0 0 195.644 32" xml:space="preserve">
<path id="logo_mark" fill="#FFFFFF" d="M27.765,18.71c-0.314,0-0.621,0.029-0.923,0.072l-4.377-7.878
	c0.966-1.154,1.55-2.639,1.55-4.259C24.015,2.981,21.034,0,17.37,0s-6.645,2.981-6.645,6.645c0,1.588,0.561,3.046,1.494,4.19
	l-4.563,7.961c-0.33-0.051-0.666-0.085-1.011-0.085C2.981,18.71,0,21.691,0,25.355C0,29.019,2.981,32,6.645,32
	s6.645-2.981,6.645-6.645c0-1.588-0.561-3.046-1.494-4.19l4.563-7.96c0.331,0.051,0.666,0.085,1.011,0.085
	c0.314,0,0.62-0.029,0.923-0.072l4.377,7.879c-0.966,1.154-1.55,2.639-1.55,4.258c0,3.664,2.981,6.645,6.645,6.645
	s6.645-2.981,6.645-6.645C34.409,21.691,31.429,18.71,27.765,18.71z M17.37,4.37c1.254,0,2.275,1.021,2.275,2.275
	c0,1.255-1.021,2.275-2.275,2.275c-1.254,0-2.275-1.021-2.275-2.275C15.095,5.39,16.116,4.37,17.37,4.37z M6.645,27.63
	c-1.254,0-2.275-1.021-2.275-2.275c0-1.254,1.021-2.275,2.275-2.275S8.92,24.1,8.92,25.355C8.92,26.61,7.899,27.63,6.645,27.63z
	 M27.765,27.63c-1.254,0-2.275-1.021-2.275-2.275c0-1.254,1.021-2.275,2.275-2.275c1.254,0,2.275,1.021,2.275,2.275
	C30.04,26.61,29.019,27.63,27.765,27.63z"/>
<g id="logo_text">
	<path fill="#FFFFFF" d="M49.151,6.16h7.658l6.56,20.663h-6.271l-1.098-3.844h-6.849l-1.098,3.844h-5.52L49.151,6.16z
		 M50.308,18.904h4.537l-2.254-7.947L50.308,18.904z"/>
	<path fill="#FFFFFF" d="M65.109,15.234h-1.907v-3.526h1.907v-1.156c0-3.757,2.312-5.52,5.895-5.52c0.954,0,1.647,0.116,2.312,0.289
		v3.786c-0.376-0.116-0.809-0.202-1.387-0.202c-1.156,0-1.676,0.694-1.676,1.647v1.156h4.393v-1.329
		c0-3.757,2.341-5.549,5.924-5.549c0.954,0,1.618,0.116,2.283,0.289v3.786c-0.376-0.116-0.751-0.173-1.358-0.173
		c-1.185,0-1.676,0.665-1.676,1.647v1.329h3.034v3.526h-3.034v11.588h-5.173V15.234h-4.393v11.588h-5.144V15.234z"/>
	<path fill="#FFFFFF" d="M84.086,7.605c0-1.532,1.214-2.688,2.832-2.688c1.618,0,2.861,1.156,2.861,2.688s-1.243,2.659-2.861,2.659
		C85.3,10.264,84.086,9.137,84.086,7.605z M84.346,11.709h5.173v15.114h-5.173V11.709z"/>
	<path fill="#FFFFFF" d="M92.291,5.062h5.144v21.761h-5.144V5.062z"/>
	<path fill="#FFFFFF" d="M99.945,7.605c0-1.532,1.214-2.688,2.832-2.688c1.618,0,2.861,1.156,2.861,2.688s-1.243,2.659-2.861,2.659
		C101.159,10.264,99.945,9.137,99.945,7.605z M100.205,11.709h5.173v15.114h-5.173V11.709z"/>
	<path fill="#FFFFFF" d="M107.236,22.632c0-3.555,3.006-4.942,8.034-4.942h1.445v-0.347c0-1.445-0.347-2.399-1.994-2.399
		c-1.416,0-1.936,0.838-2.052,1.792h-4.855c0.231-3.641,3.092-5.433,7.225-5.433c4.162,0,6.82,1.705,6.82,5.722v9.797h-5.028V25.06
		c-0.722,1.098-2.052,2.11-4.479,2.11C109.635,27.169,107.236,25.84,107.236,22.632z M116.715,21.534v-0.925h-1.358
		c-2.081,0-3.006,0.405-3.006,1.647c0,0.867,0.578,1.416,1.792,1.416C115.617,23.672,116.715,22.834,116.715,21.534z"/>
	<path fill="#FFFFFF" d="M124.927,21.967v-6.733h-1.82v-3.526h1.82v-3.15h5.173v3.15h2.977v3.526H130.1v6.242
		c0,1.098,0.549,1.589,1.532,1.589c0.578,0,1.011-0.087,1.474-0.26v3.93c-0.665,0.173-1.647,0.433-2.861,0.433
		C126.835,27.169,124.927,25.522,124.927,21.967z"/>
	<path fill="#FFFFFF" d="M133.984,19.453v-0.231c0-4.855,3.612-7.918,8.178-7.918c4.132,0,7.687,2.37,7.687,7.803v1.358h-10.635
		c0.144,1.994,1.3,3.15,3.15,3.15c1.705,0,2.427-0.78,2.63-1.792h4.855c-0.462,3.41-3.092,5.346-7.658,5.346
		C137.452,27.169,133.984,24.395,133.984,19.453z M144.821,17.546c-0.087-1.821-0.983-2.832-2.659-2.832
		c-1.561,0-2.63,1.011-2.89,2.832H144.821z"/>
	<path fill="#FFFFFF" d="M149.806,6.16h5.982l2.659,12.889L161.22,6.16h5.26l3.005,13.004l2.803-13.004h5.491l-4.826,20.663h-6.184
		l-3.179-13.12l-3.208,13.12h-5.78L149.806,6.16z"/>
	<path fill="#FFFFFF" d="M179.489,6.16h7.861c5.664,0,8.294,2.514,8.294,6.907v0.116c0,4.335-2.919,6.675-8.034,6.675h-2.225v6.965
		h-5.895V6.16z M187.09,15.812c1.907,0,2.919-0.896,2.919-2.601v-0.116c0-1.763-1.04-2.485-2.89-2.485h-1.734v5.202H187.09z"/>
</g>
</svg>
