<?xml version="1.0" standalone="no"?><!DOCTYPE svg PUBLIC "-//W3C//DTD SVG 1.1//EN" "http://www.w3.org/Graphics/SVG/1.1/DTD/svg11.dtd"><svg width="100%" height="100%" viewBox="0 0 196 32" version="1.1" xmlns="http://www.w3.org/2000/svg" xmlns:xlink="http://www.w3.org/1999/xlink" xml:space="preserve" style="fill-rule:evenodd;clip-rule:evenodd;stroke-linejoin:round;stroke-miterlimit:1.41421;"><path id="logo_mark" d="M27.765,18.71c-0.314,0 -0.621,0.029 -0.923,0.072l-4.377,-7.878c0.966,-1.154 1.55,-2.639 1.55,-4.259c0,-3.664 -2.981,-6.645 -6.645,-6.645c-3.664,0 -6.645,2.981 -6.645,6.645c0,1.588 0.561,3.046 1.494,4.19l-4.563,7.961c-0.33,-0.051 -0.666,-0.085 -1.011,-0.085c-3.664,-0.001 -6.645,2.98 -6.645,6.644c0,3.664 2.981,6.645 6.645,6.645c3.664,0 6.645,-2.981 6.645,-6.645c0,-1.588 -0.561,-3.046 -1.494,-4.19l4.563,-7.96c0.331,0.051 0.666,0.085 1.011,0.085c0.314,0 0.62,-0.029 0.923,-0.072l4.377,7.879c-0.966,1.154 -1.55,2.639 -1.55,4.258c0,3.664 2.981,6.645 6.645,6.645c3.664,0 6.645,-2.981 6.645,-6.645c-0.001,-3.664 -2.981,-6.645 -6.645,-6.645ZM17.37,4.37c1.254,0 2.275,1.021 2.275,2.275c0,1.255 -1.021,2.275 -2.275,2.275c-1.254,0 -2.275,-1.021 -2.275,-2.275c0,-1.255 1.021,-2.275 2.275,-2.275ZM6.645,27.63c-1.254,0 -2.275,-1.021 -2.275,-2.275c0,-1.254 1.021,-2.275 2.275,-2.275c1.254,0 2.275,1.02 2.275,2.275c0,1.255 -1.021,2.275 -2.275,2.275ZM27.765,27.63c-1.254,0 -2.275,-1.021 -2.275,-2.275c0,-1.254 1.021,-2.275 2.275,-2.275c1.254,0 2.275,1.021 2.275,2.275c0,1.255 -1.021,2.275 -2.275,2.275Z" style="fill:#e34f43;fill-rule:nonzero;"/><g id="logo_text"><path d="M49.151,6.16l7.658,0l6.56,20.663l-6.271,0l-1.098,-3.844l-6.849,0l-1.098,3.844l-5.52,0l6.618,-20.663ZM50.308,18.904l4.537,0l-2.254,-7.947l-2.283,7.947Z" style="fill:#2d2d2d;fill-rule:nonzero;"/><path d="M65.109,15.234l-1.907,0l0,-3.526l1.907,0l0,-1.156c0,-3.757 2.312,-5.52 5.895,-5.52c0.954,0 1.647,0.116 2.312,0.289l0,3.786c-0.376,-0.116 -0.809,-0.202 -1.387,-0.202c-1.156,0 -1.676,0.694 -1.676,1.647l0,1.156l4.393,0l0,-1.329c0,-3.757 2.341,-5.549 5.924,-5.549c0.954,0 1.618,0.116 2.283,0.289l0,3.786c-0.376,-0.116 -0.751,-0.173 -1.358,-0.173c-1.185,0 -1.676,0.665 -1.676,1.647l0,1.329l3.034,0l0,3.526l-3.034,0l0,11.588l-5.173,0l0,-11.588l-4.393,0l0,11.588l-5.144,0l0,-11.588l0,0Z" style="fill:#2d2d2d;fill-rule:nonzero;"/><path d="M84.086,7.605c0,-1.532 1.214,-2.688 2.832,-2.688c1.618,0 2.861,1.156 2.861,2.688c0,1.532 -1.243,2.659 -2.861,2.659c-1.618,0 -2.832,-1.127 -2.832,-2.659ZM84.346,11.709l5.173,0l0,15.114l-5.173,0l0,-15.114Z" style="fill:#2d2d2d;fill-rule:nonzero;"/><rect x="92.291" y="5.062" width="5.144" height="21.761" style="fill:#2d2d2d;fill-rule:nonzero;"/><path d="M99.945,7.605c0,-1.532 1.214,-2.688 2.832,-2.688c1.618,0 2.861,1.156 2.861,2.688c0,1.532 -1.243,2.659 -2.861,2.659c-1.618,0 -2.832,-1.127 -2.832,-2.659ZM100.205,11.709l5.173,0l0,15.114l-5.173,0l0,-15.114Z" style="fill:#2d2d2d;fill-rule:nonzero;"/><path d="M107.236,22.632c0,-3.555 3.006,-4.942 8.034,-4.942l1.445,0l0,-0.347c0,-1.445 -0.347,-2.399 -1.994,-2.399c-1.416,0 -1.936,0.838 -2.052,1.792l-4.855,0c0.231,-3.641 3.092,-5.433 7.225,-5.433c4.162,0 6.82,1.705 6.82,5.722l0,9.797l-5.028,0l0,-1.762c-0.722,1.098 -2.052,2.11 -4.479,2.11c-2.717,-0.001 -5.116,-1.33 -5.116,-4.538ZM116.715,21.534l0,-0.925l-1.358,0c-2.081,0 -3.006,0.405 -3.006,1.647c0,0.867 0.578,1.416 1.792,1.416c1.474,0 2.572,-0.838 2.572,-2.138Z" style="fill:#2d2d2d;fill-rule:nonzero;"/><path d="M124.927,21.967l0,-6.733l-1.82,0l0,-3.526l1.82,0l0,-3.15l5.173,0l0,3.15l2.977,0l0,3.526l-2.977,0l0,6.242c0,1.098 0.549,1.589 1.532,1.589c0.578,0 1.011,-0.087 1.474,-0.26l0,3.93c-0.665,0.173 -1.647,0.433 -2.861,0.433c-3.41,0.001 -5.318,-1.646 -5.318,-5.201Z" style="fill:#2d2d2d;fill-rule:nonzero;"/><path d="M133.984,19.453l0,-0.231c0,-4.855 3.612,-7.918 8.178,-7.918c4.132,0 7.687,2.37 7.687,7.803l0,1.358l-10.635,0c0.144,1.994 1.3,3.15 3.15,3.15c1.705,0 2.427,-0.78 2.63,-1.792l4.855,0c-0.462,3.41 -3.092,5.346 -7.658,5.346c-4.739,0 -8.207,-2.774 -8.207,-7.716ZM144.821,17.546c-0.087,-1.821 -0.983,-2.832 -2.659,-2.832c-1.561,0 -2.63,1.011 -2.89,2.832l5.549,0Z" style="fill:#2d2d2d;fill-rule:nonzero;"/><path d="M149.806,6.16l5.982,0l2.659,12.889l2.773,-12.889l5.26,0l3.005,13.004l2.803,-13.004l5.491,0l-4.826,20.663l-6.184,0l-3.179,-13.12l-3.208,13.12l-5.78,0l-4.796,-20.663Z" style="fill:#2d2d2d;fill-rule:nonzero;"/><path d="M179.489,6.16l7.861,0c5.664,0 8.294,2.514 8.294,6.907l0,0.116c0,4.335 -2.919,6.675 -8.034,6.675l-2.225,0l0,6.965l-5.895,0l0,-20.663l-0.001,0ZM187.09,15.812c1.907,0 2.919,-0.896 2.919,-2.601l0,-0.116c0,-1.763 -1.04,-2.485 -2.89,-2.485l-1.734,0l0,5.202l1.705,0Z" style="fill:#2d2d2d;fill-rule:nonzero;"/></g></svg>