<?xml version="1.0" standalone="no"?>
<!DOCTYPE svg PUBLIC "-//W3C//DTD SVG 1.1//EN" "http://www.w3.org/Graphics/SVG/1.1/DTD/svg11.dtd">
<svg width="100%" height="100%" viewBox="0 0 2000 1000" version="1.1" xmlns="http://www.w3.org/2000/svg" xmlns:xlink="http://www.w3.org/1999/xlink" xml:space="preserve" style="fill-rule:evenodd;clip-rule:evenodd;stroke-linejoin:round;stroke-miterlimit:1.41421;">

	<g id="Default" transform="matrix(2.46914,0,0,1.93424,0,3454.55)">
		<rect x="0" y="-1786" width="810" height="517" style="fill:none;"/>
		<!-- <clipPath id="_clip1">
			<rect x="0" y="-1786" width="810" height="517"/>
		</clipPath> -->
		<!-- <g clip-path="url(#_clip1)"> -->
			<g id="REST-API" transform="matrix(10.5652,0,0,13.487,278.217,-1689.36)">
			   <g transform="matrix(0.0383333,0,0,0.0383333,-26.3333,-7.16567)">
					<rect x="0" y="0" width="2000" height="1000" style="fill:rgb(237,109,98);"/>
				</g>
				<g id="rest-api">
					<circle id="circle-main" cx="13.499" cy="10.501" r="4" style="fill:none;stroke:white;stroke-width:1px;"/>
					<circle class="small-circle" cx="2" cy="5.501" r="1.5" style="fill:none;stroke:white;stroke-width:1px;"/>
					<path class="outer-ring" d="M17.599,14.327L18.572,14.729C18.42,14.914 18.257,15.089 18.085,15.255C17.78,15.549 17.448,15.814 17.093,16.044C16.757,16.262 16.402,16.45 16.033,16.603C15.7,16.742 15.355,16.853 15.003,16.935L15.003,15.905C15.223,15.846 15.439,15.771 15.65,15.683C15.963,15.553 16.265,15.394 16.55,15.209C16.847,15.016 17.125,14.795 17.381,14.55C17.456,14.478 17.529,14.404 17.599,14.327ZM10.744,15.386C10.939,15.498 11.141,15.597 11.348,15.683C11.558,15.771 11.774,15.845 11.995,15.905L11.995,16.934C11.643,16.853 11.298,16.742 10.965,16.603C10.636,16.466 10.318,16.303 10.016,16.113L10.744,15.386ZM6.983,9.414L7.931,9.821C7.903,10.046 7.889,10.274 7.889,10.501C7.889,10.763 7.907,11.026 7.943,11.286C7.982,11.562 8.042,11.835 8.121,12.103C8.206,12.387 8.313,12.665 8.442,12.932C8.499,13.049 8.56,13.164 8.626,13.277L7.899,14.003C7.764,13.791 7.644,13.572 7.536,13.347C7.388,13.037 7.264,12.716 7.166,12.387C7.07,12.065 6.999,11.736 6.954,11.403C6.913,11.104 6.892,10.803 6.892,10.501C6.892,10.137 6.922,9.773 6.983,9.414ZM19.124,7.036C19.22,7.191 19.309,7.35 19.391,7.512C19.528,7.781 19.646,8.059 19.745,8.345C19.85,8.647 19.932,8.957 19.991,9.272C20.123,9.973 20.141,10.696 20.044,11.403C20.006,11.681 19.951,11.956 19.877,12.226L18.947,11.841C18.993,11.658 19.028,11.472 19.055,11.286C19.093,11.014 19.111,10.739 19.109,10.465C19.107,10.109 19.071,9.754 19.002,9.405C18.952,9.156 18.886,8.91 18.803,8.67C18.714,8.412 18.606,8.161 18.48,7.918L18.396,7.766L19.124,7.036ZM8.218,6.533L8.23,6.517C8.449,6.227 8.692,5.956 8.956,5.706C9.22,5.456 9.504,5.227 9.806,5.024C10.12,4.811 10.453,4.626 10.799,4.47C11.057,4.355 11.323,4.255 11.594,4.174C11.862,4.093 12.136,4.029 12.412,3.984C12.639,3.946 12.867,3.92 13.096,3.906C13.223,3.899 13.351,3.895 13.478,3.894C13.492,3.894 13.506,3.894 13.52,3.894C13.648,3.895 13.775,3.899 13.902,3.906C14.131,3.92 14.359,3.946 14.586,3.984C15.142,4.076 15.685,4.24 16.199,4.47C16.46,4.587 16.713,4.721 16.957,4.872L16.23,5.601C16.087,5.52 15.94,5.447 15.791,5.38C15.355,5.184 14.894,5.045 14.423,4.967C14.23,4.935 14.036,4.913 13.842,4.901C13.734,4.895 13.625,4.892 13.517,4.891C13.505,4.891 13.493,4.891 13.481,4.891C13.373,4.892 13.264,4.895 13.156,4.901C12.962,4.913 12.768,4.935 12.575,4.967C12.104,5.045 11.643,5.184 11.207,5.38C10.913,5.512 10.631,5.669 10.364,5.849C10.108,6.022 9.866,6.217 9.642,6.429C9.473,6.589 9.313,6.76 9.166,6.939L8.218,6.533Z" style="fill:white;stroke:white;stroke-width:0.04px;stroke-miterlimit:1.41421;"/>
					<circle class="small-circle circle-1" cx="22" cy="2.001" r="1.5" style="fill:none;stroke:white;stroke-width:1px;"/>
					<circle class="small-circle circle-4" cx="2" cy="22.001" r="1.5" style="fill:none;stroke:white;stroke-width:1px;"/>
					<circle class="small-circle circle-3" cx="13.499" cy="22.001" r="1.5" style="fill:none;stroke:white;stroke-width:1px;"/>
					<path id="line1" class="line" d="M3.06,20.94L10.68,13.339" style="fill:none;stroke:white;stroke-width:1px;"/>
					<path class="line-reverse" d="M16.333,7.678L20.938,3.062" style="fill:none;stroke:white;stroke-width:1px;"/>
					<path class="line" d="M3.35,6.151L9.822,8.926" style="fill:none;stroke:white;stroke-width:1px;"/>
					<path class="line" d="M20.562,14.03L16.944,12.535" style="fill:none;stroke:white;stroke-width:1px;"/>
					<path class="line" d="M13.499,20.501L13.499,14.501" style="fill:none;stroke:white;stroke-width:1px;"/>
					<circle class="small-circle circle-2" cx="22" cy="14.501" r="1.5" style="fill:none;stroke:white;stroke-width:1px;"/>
				</g>
			</g>
		<!-- </g> -->
	</g>

</svg>
