<?xml version="1.0" standalone="no"?><!DOCTYPE svg PUBLIC "-//W3C//DTD SVG 1.1//EN" "http://www.w3.org/Graphics/SVG/1.1/DTD/svg11.dtd"><svg width="100%" height="100%" viewBox="0 0 740 120" version="1.1" xmlns="http://www.w3.org/2000/svg" xmlns:xlink="http://www.w3.org/1999/xlink" xml:space="preserve" style="fill-rule:evenodd;clip-rule:evenodd;stroke-linejoin:round;stroke-miterlimit:1.41421;"><clipPath id="_clip1"><rect id="Artboard - EDD" x="0" y="0" width="739.7" height="120"/></clipPath><g clip-path="url(#_clip1)"><g id="edd logo"><path d="M100.445,100.445c-10.349,10.35 -24.65,16.753 -40.444,16.753c-15.795,0 -30.099,-6.403 -40.448,-16.753c-10.35,-10.349 -16.753,-24.65 -16.753,-40.444c0,-15.796 6.403,-30.097 16.753,-40.446c10.349,-10.35 24.649,-16.753 40.445,-16.753c15.795,0 30.094,6.403 40.445,16.753c10.35,10.349 16.753,24.65 16.753,40.446c0.002,15.794 -6.401,30.095 -16.751,40.444M102.425,17.573c-10.854,-10.858 -25.857,-17.573 -42.422,-17.573c-16.57,0 -31.571,6.715 -42.428,17.573c-10.86,10.857 -17.575,25.86 -17.575,42.428c0,16.567 6.715,31.57 17.573,42.426c10.857,10.861 25.86,17.573 42.43,17.573c16.567,0 31.57,-6.717 42.424,-17.573c10.858,-10.859 17.573,-25.859 17.573,-42.426c0,-16.568 -6.717,-31.571 -17.575,-42.428" style="fill:#ebfcf7;fill-rule:nonzero;"/><path d="M60,50.63l-21.993,-23.078l14.616,0l0,-11.375c0,-2.953 3.319,-5.372 7.377,-5.372c4.058,0 7.378,2.417 7.378,5.372l0,11.375l14.615,0l-21.993,23.078ZM111.616,59.5c-0.27,-28.277 -23.274,-51.118 -51.614,-51.118c-28.342,0 -51.347,22.843 -51.612,51.121l23.667,-23.668l7.938,7.937l-17.32,17.321l74.656,0l-17.321,-17.321l7.937,-7.937l23.669,23.665Z" style="fill:#ebfcf7;fill-rule:nonzero;"/><path d="M66.415,89.051c-1.173,-0.763 -2.658,-1.448 -4.449,-2.043c-1.371,-0.472 -2.498,-0.918 -3.378,-1.347c-0.873,-0.425 -1.517,-0.898 -1.931,-1.396c-0.421,-0.507 -0.619,-1.115 -0.619,-1.812c0,-0.557 0.167,-1.088 0.527,-1.59c0.353,-0.5 0.905,-0.917 1.655,-1.233c0.757,-0.319 1.723,-0.492 2.92,-0.497c0.966,0.005 1.846,0.082 2.643,0.22c0.787,0.143 1.485,0.315 2.082,0.512c0.605,0.206 1.095,0.398 1.48,0.58l1.333,-4.017c-0.806,-0.405 -1.815,-0.74 -3.041,-1.013c-1.039,-0.23 -2.229,-0.362 -3.582,-0.407l0,-4.157l-3.662,0l0,4.364c-0.587,0.095 -1.15,0.223 -1.683,0.378c-1.347,0.397 -2.505,0.95 -3.463,1.67c-0.949,0.718 -1.684,1.557 -2.19,2.52c-0.506,0.962 -0.757,2.022 -0.767,3.163c0.008,1.319 0.353,2.482 1.035,3.486c0.683,1.005 1.655,1.878 2.91,2.626c1.25,0.745 2.743,1.387 4.468,1.927c1.295,0.416 2.35,0.848 3.155,1.293c0.805,0.442 1.395,0.929 1.763,1.462c0.374,0.533 0.559,1.15 0.552,1.84c0,0.758 -0.223,1.415 -0.658,1.983c-0.43,0.56 -1.065,1 -1.9,1.312c-0.835,0.315 -1.855,0.47 -3.05,0.48c-0.973,-0.007 -1.915,-0.089 -2.834,-0.247c-0.913,-0.165 -1.77,-0.378 -2.561,-0.643c-0.798,-0.265 -1.495,-0.552 -2.1,-0.875l-1.287,4.185c0.582,0.321 1.31,0.608 2.2,0.873c0.89,0.268 1.87,0.48 2.942,0.642c1.065,0.158 2.161,0.238 3.272,0.248l0.196,-0.002l0,4.297l3.662,0l0,-4.643c0.465,-0.089 0.908,-0.197 1.328,-0.321c1.47,-0.444 2.69,-1.046 3.654,-1.818c0.973,-0.765 1.693,-1.653 2.171,-2.653c0.474,-1 0.712,-2.057 0.712,-3.185c0,-1.32 -0.282,-2.488 -0.865,-3.493c-0.588,-1.014 -1.462,-1.902 -2.64,-2.669" style="fill:#ebfcf7;fill-rule:nonzero;"/><path d="M158.428,56.901c-0.085,-1.127 -0.324,-2.211 -0.72,-3.255c-0.398,-1.043 -0.939,-1.951 -1.628,-2.724c-0.689,-0.771 -1.524,-1.398 -2.504,-1.878c-0.981,-0.479 -2.077,-0.721 -3.286,-0.721c-1.253,0 -2.392,0.22 -3.413,0.659c-1.024,0.438 -1.9,1.043 -2.63,1.815c-0.73,0.773 -1.315,1.681 -1.753,2.723c-0.438,1.045 -0.679,2.17 -0.72,3.381l16.654,0ZM141.774,61.597c0,1.252 0.177,2.463 0.533,3.631c0.354,1.169 0.886,2.192 1.596,3.068c0.709,0.877 1.607,1.575 2.692,2.097c1.085,0.523 2.378,0.782 3.882,0.782c2.086,0 3.766,-0.447 5.039,-1.346c1.273,-0.896 2.223,-2.242 2.848,-4.037l6.763,0c-0.376,1.753 -1.024,3.317 -1.942,4.695c-0.918,1.378 -2.024,2.536 -3.317,3.474c-1.295,0.94 -2.745,1.65 -4.352,2.13c-1.607,0.479 -3.286,0.719 -5.039,0.719c-2.546,0 -4.801,-0.417 -6.761,-1.252c-1.963,-0.835 -3.622,-2.003 -4.978,-3.506c-1.357,-1.503 -2.38,-3.297 -3.068,-5.383c-0.689,-2.088 -1.033,-4.384 -1.033,-6.888c0,-2.295 0.365,-4.476 1.096,-6.542c0.729,-2.066 1.774,-3.881 3.13,-5.447c1.356,-1.565 2.994,-2.807 4.915,-3.726c1.919,-0.916 4.09,-1.377 6.512,-1.377c2.544,0 4.829,0.533 6.854,1.597c2.024,1.064 3.704,2.473 5.041,4.226c1.334,1.753 2.305,3.767 2.91,6.041c0.605,2.276 0.761,4.624 0.47,7.044l-23.791,0Z" style="fill:#ebfcf7;fill-rule:nonzero;"/><path d="M190.983,59.718c-1.085,0.71 -2.421,1.138 -4.007,1.284c-1.586,0.147 -3.171,0.365 -4.757,0.658c-0.751,0.125 -1.482,0.302 -2.192,0.532c-0.709,0.23 -1.336,0.543 -1.878,0.939c-0.544,0.397 -0.971,0.918 -1.284,1.565c-0.313,0.648 -0.469,1.43 -0.469,2.348c0,0.793 0.229,1.461 0.689,2.003c0.458,0.543 1.011,0.97 1.659,1.283c0.647,0.313 1.356,0.532 2.128,0.658c0.772,0.126 1.472,0.187 2.098,0.187c0.792,0 1.648,-0.102 2.566,-0.313c0.918,-0.208 1.785,-0.563 2.599,-1.065c0.814,-0.5 1.491,-1.135 2.035,-1.909c0.541,-0.771 0.813,-1.721 0.813,-2.848l0,-5.322ZM198.12,68.734c0,0.876 0.115,1.503 0.345,1.878c0.229,0.376 0.678,0.563 1.347,0.563l0.75,0c0.291,0 0.626,-0.041 1.003,-0.125l0,4.947c-0.251,0.083 -0.575,0.176 -0.971,0.282c-0.397,0.102 -0.804,0.197 -1.221,0.281c-0.418,0.084 -0.835,0.145 -1.253,0.187c-0.416,0.042 -0.772,0.063 -1.063,0.063c-1.463,0 -2.672,-0.292 -3.632,-0.877c-0.961,-0.584 -1.587,-1.606 -1.879,-3.067c-1.418,1.377 -3.161,2.38 -5.226,3.005c-2.066,0.626 -4.06,0.939 -5.98,0.939c-1.461,0 -2.859,-0.199 -4.195,-0.595c-1.335,-0.396 -2.515,-0.98 -3.537,-1.753c-1.023,-0.772 -1.837,-1.753 -2.442,-2.942c-0.605,-1.19 -0.907,-2.577 -0.907,-4.163c0,-2.004 0.364,-3.631 1.096,-4.883c0.729,-1.253 1.689,-2.233 2.879,-2.943c1.189,-0.71 2.525,-1.222 4.007,-1.534c1.481,-0.313 2.974,-0.553 4.476,-0.721c1.294,-0.25 2.526,-0.427 3.694,-0.531c1.168,-0.104 2.201,-0.282 3.1,-0.532c0.897,-0.251 1.606,-0.636 2.128,-1.159c0.522,-0.521 0.782,-1.303 0.782,-2.348c0,-0.917 -0.218,-1.668 -0.657,-2.253c-0.438,-0.585 -0.98,-1.033 -1.627,-1.347c-0.648,-0.313 -1.368,-0.52 -2.161,-0.626c-0.793,-0.103 -1.544,-0.156 -2.253,-0.156c-2.004,0 -3.653,0.418 -4.946,1.253c-1.294,0.835 -2.025,2.128 -2.192,3.881l-7.137,0c0.125,-2.086 0.627,-3.819 1.503,-5.196c0.877,-1.378 1.993,-2.484 3.35,-3.319c1.355,-0.834 2.889,-1.418 4.601,-1.753c1.711,-0.333 3.464,-0.5 5.259,-0.5c1.586,0 3.152,0.167 4.696,0.5c1.543,0.335 2.931,0.877 4.163,1.628c1.23,0.751 2.222,1.722 2.973,2.911c0.753,1.189 1.127,2.64 1.127,4.352l0,16.653Z" style="fill:#ebfcf7;fill-rule:nonzero;"/><path d="M211.205,65.541c0.209,2.087 1.002,3.549 2.38,4.383c1.377,0.836 3.025,1.251 4.945,1.251c0.667,0 1.429,-0.052 2.286,-0.156c0.855,-0.103 1.659,-0.301 2.41,-0.595c0.751,-0.291 1.367,-0.72 1.847,-1.283c0.48,-0.564 0.698,-1.304 0.657,-2.223c-0.042,-0.917 -0.375,-1.669 -1.002,-2.253c-0.626,-0.585 -1.43,-1.054 -2.41,-1.409c-0.98,-0.354 -2.097,-0.657 -3.35,-0.908c-1.251,-0.25 -2.525,-0.521 -3.818,-0.815c-1.336,-0.29 -2.62,-0.645 -3.851,-1.063c-1.231,-0.417 -2.337,-0.98 -3.318,-1.69c-0.981,-0.71 -1.763,-1.618 -2.348,-2.724c-0.585,-1.105 -0.876,-2.473 -0.876,-4.101c0,-1.753 0.428,-3.224 1.283,-4.414c0.856,-1.189 1.941,-2.149 3.256,-2.88c1.314,-0.729 2.776,-1.241 4.382,-1.533c1.607,-0.292 3.14,-0.438 4.603,-0.438c1.667,0 3.264,0.177 4.788,0.532c1.524,0.355 2.901,0.929 4.132,1.721c1.231,0.793 2.254,1.826 3.068,3.099c0.814,1.273 1.325,2.808 1.535,4.602l-7.451,0c-0.335,-1.711 -1.117,-2.858 -2.348,-3.444c-1.231,-0.584 -2.64,-0.877 -4.226,-0.877c-0.5,0 -1.095,0.043 -1.784,0.126c-0.689,0.084 -1.337,0.241 -1.941,0.469c-0.606,0.231 -1.117,0.564 -1.534,1.002c-0.417,0.439 -0.626,1.013 -0.626,1.722c0,0.877 0.302,1.587 0.908,2.128c0.604,0.544 1.398,0.993 2.379,1.347c0.98,0.355 2.098,0.657 3.349,0.908c1.253,0.251 2.546,0.522 3.883,0.813c1.292,0.293 2.566,0.648 3.818,1.065c1.252,0.418 2.368,0.981 3.35,1.691c0.98,0.709 1.773,1.607 2.379,2.692c0.605,1.085 0.907,2.421 0.907,4.006c0,1.921 -0.438,3.549 -1.314,4.883c-0.877,1.338 -2.014,2.421 -3.412,3.256c-1.399,0.835 -2.953,1.44 -4.665,1.816c-1.711,0.375 -3.402,0.564 -5.071,0.564c-2.045,0 -3.934,-0.231 -5.665,-0.689c-1.734,-0.46 -3.236,-1.158 -4.508,-2.097c-1.274,-0.94 -2.276,-2.107 -3.005,-3.506c-0.731,-1.399 -1.117,-3.058 -1.158,-4.978l7.136,0Z" style="fill:#ebfcf7;fill-rule:nonzero;"/><path d="M234.745,43.566l7.827,0l8.451,24.166l0.126,0l8.201,-24.166l7.451,0l-12.585,34.121c-0.584,1.46 -1.158,2.858 -1.722,4.194c-0.563,1.336 -1.251,2.514 -2.066,3.538c-0.813,1.023 -1.826,1.836 -3.037,2.441c-1.21,0.606 -2.753,0.908 -4.632,0.908c-1.669,0 -3.318,-0.125 -4.946,-0.375l0,-6.011c0.584,0.083 1.147,0.177 1.691,0.281c0.542,0.105 1.105,0.158 1.69,0.158c0.834,0 1.523,-0.105 2.066,-0.314c0.543,-0.209 0.99,-0.511 1.346,-0.907c0.354,-0.397 0.657,-0.867 0.908,-1.409c0.25,-0.543 0.479,-1.169 0.688,-1.878l0.814,-2.504l-12.271,-32.243Z" style="fill:#ebfcf7;fill-rule:nonzero;"/><path d="M273.968,64.759c0.396,1.648 1.023,3.119 1.879,4.414c0.855,1.293 1.95,2.347 3.287,3.16c1.335,0.815 2.943,1.222 4.82,1.222c2.087,0 3.851,-0.407 5.29,-1.222c1.44,-0.813 2.609,-1.867 3.506,-3.16c0.898,-1.295 1.545,-2.766 1.942,-4.414c0.396,-1.649 0.595,-3.308 0.595,-4.978c0,-1.669 -0.199,-3.327 -0.595,-4.977c-0.397,-1.649 -1.044,-3.12 -1.942,-4.414c-0.897,-1.294 -2.066,-2.348 -3.506,-3.162c-1.439,-0.813 -3.203,-1.22 -5.29,-1.22c-1.877,0 -3.485,0.407 -4.82,1.22c-1.337,0.814 -2.432,1.868 -3.287,3.162c-0.856,1.294 -1.483,2.765 -1.879,4.414c-0.397,1.65 -0.595,3.308 -0.595,4.977c0,1.67 0.198,3.329 0.595,4.978M295.6,75.934l0,-6.136l-0.126,0c-0.418,1.044 -1.033,2.004 -1.847,2.88c-0.813,0.877 -1.743,1.618 -2.786,2.223c-1.043,0.605 -2.16,1.074 -3.349,1.407c-1.19,0.335 -2.37,0.502 -3.538,0.502c-2.463,0 -4.601,-0.449 -6.417,-1.346c-1.816,-0.897 -3.329,-2.128 -4.538,-3.693c-1.212,-1.565 -2.109,-3.381 -2.693,-5.448c-0.585,-2.066 -0.877,-4.246 -0.877,-6.542c0,-2.294 0.292,-4.477 0.877,-6.543c0.584,-2.065 1.481,-3.881 2.693,-5.446c1.209,-1.566 2.722,-2.806 4.538,-3.725c1.816,-0.918 3.954,-1.378 6.417,-1.378c1.21,0 2.389,0.147 3.538,0.438c1.147,0.293 2.222,0.742 3.224,1.346c1.001,0.606 1.888,1.347 2.661,2.223c0.771,0.877 1.366,1.9 1.784,3.067l0.126,0l0,-18.531l3.944,0l0,44.702l-3.631,0Z" style="fill:#ebfcf7;fill-rule:nonzero;"/><path d="M310.75,75.934l-3.945,0l0,-32.305l3.945,0l0,32.305ZM310.75,37.555l-3.945,0l0,-6.323l3.945,0l0,6.323Z" style="fill:#ebfcf7;fill-rule:nonzero;"/><path d="M335.792,71.144c1.294,-0.73 2.38,-1.69 3.256,-2.88c0.877,-1.189 1.534,-2.557 1.972,-4.1c0.438,-1.544 0.658,-3.131 0.658,-4.758c0,-1.586 -0.189,-3.171 -0.564,-4.759c-0.376,-1.586 -0.981,-3.026 -1.816,-4.32c-0.835,-1.292 -1.91,-2.336 -3.224,-3.129c-1.315,-0.793 -2.912,-1.19 -4.789,-1.19c-1.879,0 -3.486,0.386 -4.821,1.157c-1.337,0.774 -2.442,1.785 -3.318,3.037c-0.877,1.253 -1.514,2.683 -1.91,4.288c-0.397,1.608 -0.595,3.247 -0.595,4.916c0,1.627 0.209,3.214 0.626,4.758c0.417,1.543 1.065,2.911 1.942,4.1c0.876,1.19 1.981,2.15 3.317,2.88c1.336,0.732 2.922,1.096 4.759,1.096c1.711,0 3.213,-0.364 4.507,-1.096M344.839,79.753c-0.523,1.919 -1.346,3.547 -2.473,4.883c-1.126,1.335 -2.599,2.358 -4.414,3.068c-1.815,0.709 -4.038,1.064 -6.667,1.064c-1.628,0 -3.215,-0.188 -4.759,-0.564c-1.544,-0.374 -2.932,-0.96 -4.162,-1.752c-1.232,-0.794 -2.254,-1.806 -3.069,-3.037c-0.814,-1.232 -1.283,-2.703 -1.409,-4.414l3.945,0c0.208,1.211 0.616,2.223 1.221,3.037c0.604,0.814 1.335,1.471 2.192,1.972c0.854,0.501 1.804,0.866 2.848,1.096c1.043,0.229 2.107,0.344 3.193,0.344c3.672,0 6.323,-1.044 7.951,-3.13c1.627,-2.089 2.442,-5.093 2.442,-9.015l0,-4.383l-0.125,0c-0.919,2.003 -2.265,3.61 -4.039,4.821c-1.774,1.21 -3.85,1.816 -6.229,1.816c-2.588,0 -4.801,-0.428 -6.637,-1.285c-1.836,-0.854 -3.349,-2.034 -4.538,-3.537c-1.191,-1.502 -2.057,-3.265 -2.599,-5.29c-0.543,-2.024 -0.814,-4.184 -0.814,-6.479c0,-2.213 0.323,-4.31 0.971,-6.293c0.647,-1.981 1.585,-3.715 2.817,-5.196c1.23,-1.481 2.755,-2.651 4.57,-3.506c1.816,-0.855 3.891,-1.283 6.23,-1.283c1.21,0 2.348,0.167 3.412,0.5c1.064,0.335 2.035,0.804 2.911,1.409c0.876,0.606 1.659,1.304 2.348,2.097c0.689,0.793 1.22,1.627 1.597,2.504l0.125,0l0,-5.572l3.943,0l0,29.677c0,2.379 -0.26,4.528 -0.782,6.448" style="fill:#ebfcf7;fill-rule:nonzero;"/><path d="M357.141,75.934l-3.945,0l0,-32.305l3.945,0l0,32.305ZM357.141,37.555l-3.945,0l0,-6.323l3.945,0l0,6.323Z" style="fill:#ebfcf7;fill-rule:nonzero;"/><path d="M377.551,43.628l0,3.318l-6.574,0l0,21.789c0,1.293 0.177,2.306 0.532,3.035c0.354,0.732 1.242,1.138 2.661,1.222c1.127,0 2.255,-0.064 3.381,-0.189l0,3.319c-0.585,0 -1.168,0.019 -1.753,0.061c-0.585,0.042 -1.169,0.064 -1.753,0.064c-2.63,0 -4.467,-0.511 -5.509,-1.535c-1.044,-1.022 -1.544,-2.91 -1.502,-5.664l0,-22.102l-5.636,0l0,-3.318l5.636,0l0,-9.704l3.943,0l0,9.704l6.574,0Z" style="fill:#ebfcf7;fill-rule:nonzero;"/><path d="M403.783,58.279c-0.251,0.459 -0.732,0.794 -1.441,1.001c-0.709,0.209 -1.335,0.356 -1.878,0.437c-1.67,0.294 -3.39,0.556 -5.165,0.784c-1.774,0.23 -3.391,0.574 -4.852,1.033c-1.461,0.46 -2.66,1.117 -3.599,1.972c-0.939,0.857 -1.409,2.077 -1.409,3.662c0,1.003 0.198,1.89 0.595,2.661c0.396,0.774 0.928,1.441 1.596,2.004c0.667,0.564 1.44,0.992 2.317,1.284c0.876,0.291 1.773,0.438 2.692,0.438c1.502,0 2.942,-0.229 4.319,-0.689c1.378,-0.459 2.578,-1.128 3.601,-2.004c1.021,-0.877 1.836,-1.941 2.441,-3.192c0.604,-1.253 0.908,-2.67 0.908,-4.257l0,-5.134l-0.125,0ZM384.062,48.637c0.667,-1.378 1.575,-2.504 2.723,-3.381c1.148,-0.876 2.493,-1.523 4.038,-1.94c1.544,-0.417 3.255,-0.627 5.135,-0.627c1.417,0 2.836,0.136 4.257,0.407c1.418,0.272 2.692,0.783 3.818,1.533c1.126,0.753 2.045,1.807 2.754,3.163c0.71,1.357 1.065,3.121 1.065,5.29l0,17.155c0,1.585 0.772,2.378 2.318,2.378c0.457,0 0.876,-0.083 1.251,-0.25l0,3.318c-0.459,0.084 -0.867,0.147 -1.221,0.187c-0.355,0.042 -0.804,0.064 -1.346,0.064c-1.002,0 -1.806,-0.135 -2.41,-0.407c-0.607,-0.271 -1.075,-0.658 -1.409,-1.158c-0.334,-0.501 -0.555,-1.096 -0.657,-1.785c-0.105,-0.689 -0.157,-1.449 -0.157,-2.286l-0.125,0c-0.71,1.044 -1.43,1.973 -2.161,2.786c-0.73,0.815 -1.544,1.494 -2.44,2.036c-0.899,0.543 -1.922,0.959 -3.069,1.252c-1.147,0.29 -2.515,0.438 -4.1,0.438c-1.503,0 -2.912,-0.178 -4.226,-0.532c-1.315,-0.354 -2.463,-0.917 -3.443,-1.69c-0.983,-0.772 -1.753,-1.753 -2.317,-2.943c-0.564,-1.189 -0.845,-2.598 -0.845,-4.225c0,-2.254 0.5,-4.018 1.502,-5.291c1.002,-1.273 2.327,-2.243 3.975,-2.911c1.649,-0.668 3.507,-1.137 5.573,-1.41c2.067,-0.27 4.164,-0.531 6.291,-0.782c0.835,-0.083 1.566,-0.187 2.191,-0.313c0.626,-0.125 1.148,-0.343 1.567,-0.657c0.415,-0.313 0.739,-0.74 0.97,-1.283c0.229,-0.543 0.344,-1.253 0.344,-2.129c0,-1.335 -0.22,-2.431 -0.658,-3.287c-0.438,-0.855 -1.043,-1.534 -1.815,-2.035c-0.773,-0.501 -1.669,-0.845 -2.692,-1.033c-1.024,-0.187 -2.119,-0.281 -3.287,-0.281c-2.504,0 -4.551,0.594 -6.135,1.784c-1.587,1.189 -2.421,3.099 -2.506,5.728l-3.944,0c0.126,-1.878 0.522,-3.506 1.191,-4.883" style="fill:#ebfcf7;fill-rule:nonzero;"/><rect x="415.803" y="31.232" width="3.944" height="44.702" style="fill:#ebfcf7;fill-rule:nonzero;"/><path d="M432.895,60.094c0,1.377 0.177,2.734 0.532,4.07c0.354,1.335 0.897,2.525 1.628,3.568c0.731,1.044 1.659,1.879 2.786,2.505c1.128,0.625 2.462,0.939 4.006,0.939c1.586,0 2.953,-0.334 4.102,-1.002c1.147,-0.667 2.086,-1.543 2.817,-2.629c0.73,-1.086 1.273,-2.306 1.629,-3.662c0.354,-1.357 0.531,-2.745 0.531,-4.166c0,-3.587 -0.804,-6.384 -2.41,-8.388c-1.608,-2.003 -3.788,-3.005 -6.542,-3.005c-1.671,0 -3.08,0.344 -4.227,1.033c-1.149,0.689 -2.087,1.587 -2.817,2.692c-0.731,1.106 -1.251,2.359 -1.565,3.757c-0.313,1.399 -0.47,2.828 -0.47,4.288M457.812,75.934l-6.761,0l0,-4.383l-0.125,0c-0.961,1.879 -2.359,3.225 -4.196,4.038c-1.836,0.814 -3.777,1.221 -5.821,1.221c-2.546,0 -4.768,-0.449 -6.668,-1.346c-1.9,-0.897 -3.475,-2.118 -4.727,-3.662c-1.252,-1.544 -2.191,-3.37 -2.817,-5.478c-0.626,-2.107 -0.939,-4.372 -0.939,-6.793c0,-2.921 0.396,-5.447 1.19,-7.575c0.792,-2.13 1.846,-3.882 3.161,-5.26c1.315,-1.377 2.817,-2.388 4.508,-3.036c1.69,-0.647 3.412,-0.971 5.164,-0.971c1.003,0 2.024,0.094 3.069,0.282c1.043,0.188 2.044,0.491 3.005,0.909c0.959,0.417 1.847,0.949 2.661,1.595c0.813,0.648 1.491,1.409 2.034,2.286l0.125,0l0,-16.529l7.137,0l0,44.702Z" style="fill:#ebfcf7;fill-rule:nonzero;"/><path d="M480.413,71.175c1.586,0 2.964,-0.333 4.133,-1.001c1.168,-0.668 2.128,-1.544 2.88,-2.629c0.751,-1.086 1.304,-2.306 1.66,-3.662c0.354,-1.357 0.531,-2.745 0.531,-4.165c0,-1.377 -0.177,-2.755 -0.531,-4.132c-0.356,-1.377 -0.909,-2.598 -1.66,-3.662c-0.752,-1.064 -1.712,-1.93 -2.88,-2.599c-1.169,-0.667 -2.547,-1.001 -4.133,-1.001c-1.587,0 -2.963,0.334 -4.132,1.001c-1.168,0.669 -2.127,1.535 -2.879,2.599c-0.752,1.064 -1.306,2.285 -1.66,3.662c-0.355,1.377 -0.532,2.755 -0.532,4.132c0,1.42 0.177,2.808 0.532,4.165c0.354,1.356 0.908,2.576 1.66,3.662c0.752,1.085 1.711,1.961 2.879,2.629c1.169,0.668 2.545,1.001 4.132,1.001M480.413,76.81c-2.588,0 -4.894,-0.428 -6.918,-1.283c-2.025,-0.855 -3.735,-2.035 -5.133,-3.537c-1.399,-1.503 -2.463,-3.297 -3.194,-5.385c-0.73,-2.086 -1.095,-4.382 -1.095,-6.887c0,-2.462 0.365,-4.736 1.095,-6.823c0.731,-2.087 1.795,-3.883 3.194,-5.385c1.398,-1.502 3.108,-2.682 5.133,-3.537c2.024,-0.856 4.33,-1.284 6.918,-1.284c2.587,0 4.894,0.428 6.918,1.284c2.025,0.855 3.736,2.035 5.135,3.537c1.397,1.502 2.462,3.298 3.192,5.385c0.731,2.087 1.097,4.361 1.097,6.823c0,2.505 -0.366,4.801 -1.097,6.887c-0.73,2.088 -1.795,3.882 -3.192,5.385c-1.399,1.502 -3.11,2.682 -5.135,3.537c-2.024,0.855 -4.331,1.283 -6.918,1.283" style="fill:#ebfcf7;fill-rule:nonzero;"/><path d="M499.758,43.566l7.575,0l6.323,24.166l0.126,0l6.074,-24.166l7.199,0l5.822,24.166l0.126,0l6.573,-24.166l7.263,0l-10.142,32.368l-7.325,0l-6.01,-24.041l-0.126,0l-5.948,24.041l-7.512,0l-10.018,-32.368Z" style="fill:#ebfcf7;fill-rule:nonzero;"/><path d="M551.409,43.566l6.761,0l0,4.757l0.125,0.126c1.084,-1.794 2.505,-3.202 4.257,-4.226c1.753,-1.022 3.694,-1.533 5.824,-1.533c3.545,0 6.343,0.918 8.388,2.754c2.045,1.838 3.068,4.592 3.068,8.264l0,22.226l-7.137,0l0,-20.348c-0.084,-2.545 -0.626,-4.392 -1.627,-5.541c-1.003,-1.147 -2.568,-1.722 -4.697,-1.722c-1.211,0 -2.295,0.22 -3.255,0.659c-0.961,0.438 -1.775,1.043 -2.442,1.815c-0.668,0.773 -1.189,1.681 -1.565,2.723c-0.375,1.045 -0.563,2.151 -0.563,3.318l0,19.096l-7.137,0l0,-32.368Z" style="fill:#ebfcf7;fill-rule:nonzero;"/><rect x="587.532" y="31.232" width="7.138" height="44.702" style="fill:#ebfcf7;fill-rule:nonzero;"/><path d="M617.27,71.175c1.586,0 2.963,-0.333 4.132,-1.001c1.169,-0.668 2.129,-1.544 2.881,-2.629c0.751,-1.086 1.304,-2.306 1.659,-3.662c0.354,-1.357 0.532,-2.745 0.532,-4.165c0,-1.377 -0.178,-2.755 -0.532,-4.132c-0.355,-1.377 -0.908,-2.598 -1.659,-3.662c-0.752,-1.064 -1.712,-1.93 -2.881,-2.599c-1.169,-0.667 -2.546,-1.001 -4.132,-1.001c-1.587,0 -2.964,0.334 -4.132,1.001c-1.169,0.669 -2.128,1.535 -2.88,2.599c-0.751,1.064 -1.305,2.285 -1.659,3.662c-0.355,1.377 -0.533,2.755 -0.533,4.132c0,1.42 0.178,2.808 0.533,4.165c0.354,1.356 0.908,2.576 1.659,3.662c0.752,1.085 1.711,1.961 2.88,2.629c1.168,0.668 2.545,1.001 4.132,1.001M617.27,76.81c-2.588,0 -4.894,-0.428 -6.918,-1.283c-2.025,-0.855 -3.735,-2.035 -5.133,-3.537c-1.399,-1.503 -2.463,-3.297 -3.194,-5.385c-0.731,-2.086 -1.095,-4.382 -1.095,-6.887c0,-2.462 0.364,-4.736 1.095,-6.823c0.731,-2.087 1.795,-3.883 3.194,-5.385c1.398,-1.502 3.108,-2.682 5.133,-3.537c2.024,-0.856 4.33,-1.284 6.918,-1.284c2.587,0 4.894,0.428 6.918,1.284c2.024,0.855 3.735,2.035 5.134,3.537c1.398,1.502 2.462,3.298 3.193,5.385c0.731,2.087 1.096,4.361 1.096,6.823c0,2.505 -0.365,4.801 -1.096,6.887c-0.731,2.088 -1.795,3.882 -3.193,5.385c-1.399,1.502 -3.11,2.682 -5.134,3.537c-2.024,0.855 -4.331,1.283 -6.918,1.283" style="fill:#ebfcf7;fill-rule:nonzero;"/><path d="M659.53,59.718c-1.087,0.71 -2.422,1.138 -4.008,1.284c-1.586,0.147 -3.172,0.365 -4.758,0.658c-0.751,0.125 -1.481,0.302 -2.191,0.532c-0.71,0.23 -1.337,0.543 -1.879,0.939c-0.542,0.397 -0.97,0.918 -1.283,1.565c-0.313,0.648 -0.47,1.43 -0.47,2.348c0,0.793 0.229,1.461 0.69,2.003c0.458,0.543 1.01,0.97 1.658,1.283c0.648,0.313 1.357,0.532 2.13,0.658c0.77,0.126 1.471,0.187 2.097,0.187c0.792,0 1.647,-0.102 2.566,-0.313c0.918,-0.208 1.785,-0.563 2.599,-1.065c0.813,-0.5 1.491,-1.135 2.034,-1.909c0.542,-0.771 0.815,-1.721 0.815,-2.848l0,-5.322ZM666.666,68.734c0,0.876 0.114,1.503 0.345,1.878c0.229,0.376 0.677,0.563 1.346,0.563l0.751,0c0.291,0 0.625,-0.041 1.002,-0.125l0,4.947c-0.25,0.083 -0.574,0.176 -0.97,0.282c-0.397,0.102 -0.805,0.197 -1.221,0.281c-0.419,0.084 -0.835,0.145 -1.253,0.187c-0.417,0.042 -0.772,0.063 -1.064,0.063c-1.461,0 -2.672,-0.292 -3.631,-0.877c-0.961,-0.584 -1.587,-1.606 -1.879,-3.067c-1.419,1.377 -3.161,2.38 -5.227,3.005c-2.066,0.626 -4.059,0.939 -5.979,0.939c-1.461,0 -2.859,-0.199 -4.195,-0.595c-1.336,-0.396 -2.514,-0.98 -3.537,-1.753c-1.023,-0.772 -1.837,-1.753 -2.442,-2.942c-0.605,-1.19 -0.908,-2.577 -0.908,-4.163c0,-2.004 0.365,-3.631 1.096,-4.883c0.729,-1.253 1.69,-2.233 2.881,-2.943c1.189,-0.71 2.524,-1.222 4.006,-1.534c1.481,-0.313 2.973,-0.553 4.476,-0.721c1.294,-0.25 2.525,-0.427 3.693,-0.531c1.169,-0.104 2.202,-0.282 3.1,-0.532c0.897,-0.251 1.606,-0.636 2.129,-1.159c0.521,-0.521 0.783,-1.303 0.783,-2.348c0,-0.917 -0.22,-1.668 -0.658,-2.253c-0.438,-0.585 -0.981,-1.033 -1.628,-1.347c-0.647,-0.313 -1.367,-0.52 -2.16,-0.626c-0.793,-0.103 -1.544,-0.156 -2.253,-0.156c-2.005,0 -3.653,0.418 -4.947,1.253c-1.293,0.835 -2.025,2.128 -2.191,3.881l-7.138,0c0.126,-2.086 0.627,-3.819 1.504,-5.196c0.876,-1.378 1.992,-2.484 3.35,-3.319c1.355,-0.834 2.888,-1.418 4.6,-1.753c1.712,-0.333 3.465,-0.5 5.26,-0.5c1.585,0 3.151,0.167 4.695,0.5c1.544,0.335 2.932,0.877 4.163,1.628c1.231,0.751 2.223,1.722 2.974,2.911c0.752,1.189 1.127,2.64 1.127,4.352l0,16.653Z" style="fill:#ebfcf7;fill-rule:nonzero;"/><path d="M679.939,60.094c0,1.377 0.177,2.734 0.532,4.07c0.354,1.335 0.898,2.525 1.628,3.568c0.731,1.044 1.66,1.879 2.786,2.505c1.128,0.625 2.462,0.939 4.006,0.939c1.587,0 2.953,-0.334 4.103,-1.002c1.147,-0.667 2.085,-1.543 2.817,-2.629c0.729,-1.086 1.273,-2.306 1.628,-3.662c0.354,-1.357 0.531,-2.745 0.531,-4.166c0,-3.587 -0.803,-6.384 -2.41,-8.388c-1.608,-2.003 -3.788,-3.005 -6.542,-3.005c-1.671,0 -3.079,0.344 -4.226,1.033c-1.15,0.689 -2.088,1.587 -2.818,2.692c-0.73,1.106 -1.251,2.359 -1.564,3.757c-0.313,1.399 -0.471,2.828 -0.471,4.288M704.856,75.934l-6.761,0l0,-4.383l-0.125,0c-0.961,1.879 -2.358,3.225 -4.195,4.038c-1.837,0.814 -3.777,1.221 -5.822,1.221c-2.546,0 -4.768,-0.449 -6.667,-1.346c-1.901,-0.897 -3.476,-2.118 -4.728,-3.662c-1.252,-1.544 -2.19,-3.37 -2.817,-5.478c-0.626,-2.107 -0.939,-4.372 -0.939,-6.793c0,-2.921 0.396,-5.447 1.19,-7.575c0.792,-2.13 1.847,-3.882 3.161,-5.26c1.315,-1.377 2.818,-2.388 4.508,-3.036c1.691,-0.647 3.413,-0.971 5.164,-0.971c1.003,0 2.025,0.094 3.069,0.282c1.043,0.188 2.044,0.491 3.005,0.909c0.96,0.417 1.847,0.949 2.661,1.595c0.814,0.648 1.491,1.409 2.034,2.286l0.126,0l0,-16.529l7.136,0l0,44.702Z" style="fill:#ebfcf7;fill-rule:nonzero;"/><path d="M718.004,65.541c0.208,2.087 1.002,3.549 2.379,4.383c1.378,0.836 3.025,1.251 4.947,1.251c0.666,0 1.429,-0.052 2.285,-0.156c0.855,-0.103 1.659,-0.301 2.41,-0.595c0.751,-0.291 1.366,-0.72 1.847,-1.283c0.479,-0.564 0.698,-1.304 0.657,-2.223c-0.042,-0.917 -0.377,-1.669 -1.002,-2.253c-0.626,-0.585 -1.43,-1.054 -2.41,-1.409c-0.982,-0.354 -2.098,-0.657 -3.349,-0.908c-1.253,-0.25 -2.527,-0.521 -3.819,-0.815c-1.337,-0.29 -2.62,-0.645 -3.85,-1.063c-1.232,-0.417 -2.339,-0.98 -3.319,-1.69c-0.981,-0.71 -1.764,-1.618 -2.348,-2.724c-0.585,-1.105 -0.876,-2.473 -0.876,-4.101c0,-1.753 0.427,-3.224 1.283,-4.414c0.855,-1.189 1.941,-2.149 3.256,-2.88c1.314,-0.729 2.775,-1.241 4.382,-1.533c1.606,-0.292 3.141,-0.438 4.601,-0.438c1.669,0 3.266,0.177 4.79,0.532c1.523,0.355 2.901,0.929 4.132,1.721c1.231,0.793 2.254,1.826 3.068,3.099c0.815,1.273 1.325,2.808 1.534,4.602l-7.45,0c-0.335,-1.711 -1.117,-2.858 -2.348,-3.444c-1.231,-0.584 -2.64,-0.877 -4.226,-0.877c-0.501,0 -1.096,0.043 -1.784,0.126c-0.689,0.084 -1.337,0.241 -1.942,0.469c-0.604,0.231 -1.117,0.564 -1.533,1.002c-0.418,0.439 -0.625,1.013 -0.625,1.722c0,0.877 0.301,1.587 0.906,2.128c0.606,0.544 1.399,0.993 2.379,1.347c0.98,0.355 2.098,0.657 3.351,0.908c1.251,0.251 2.545,0.522 3.88,0.813c1.294,0.293 2.568,0.648 3.82,1.065c1.252,0.418 2.368,0.981 3.349,1.691c0.981,0.709 1.775,1.607 2.379,2.692c0.605,1.085 0.909,2.421 0.909,4.006c0,1.921 -0.438,3.549 -1.315,4.883c-0.877,1.338 -2.015,2.421 -3.413,3.256c-1.398,0.835 -2.953,1.44 -4.664,1.816c-1.711,0.375 -3.402,0.564 -5.072,0.564c-2.045,0 -3.934,-0.231 -5.665,-0.689c-1.733,-0.46 -3.235,-1.158 -4.508,-2.097c-1.273,-0.94 -2.275,-2.107 -3.005,-3.506c-0.73,-1.399 -1.117,-3.058 -1.159,-4.978l7.138,0Z" style="fill:#ebfcf7;fill-rule:nonzero;"/></g></g></svg>