<?xml version="1.0" standalone="no"?>
<!DOCTYPE svg PUBLIC "-//W3C//DTD SVG 1.1//EN" "http://www.w3.org/Graphics/SVG/1.1/DTD/svg11.dtd">
<svg width="100%" height="100%" viewBox="0 0 740 120" version="1.1" xmlns="http://www.w3.org/2000/svg" xmlns:xlink="http://www.w3.org/1999/xlink" xml:space="preserve" style="fill-rule:evenodd;clip-rule:evenodd;stroke-linejoin:round;stroke-miterlimit:1.41421;">
    <g id="edd logo">
        <path d="M100.445,100.445C90.096,110.795 75.795,117.198 60.001,117.198C44.206,117.198 29.902,110.795 19.553,100.445C9.203,90.096 2.8,75.795 2.8,60.001C2.8,44.205 9.203,29.904 19.553,19.555C29.902,9.205 44.202,2.802 59.998,2.802C75.793,2.802 90.092,9.205 100.443,19.555C110.793,29.904 117.196,44.205 117.196,60.001C117.198,75.795 110.795,90.096 100.445,100.445M102.425,17.573C91.571,6.715 76.568,0 60.003,0C43.433,0 28.432,6.715 17.575,17.573C6.715,28.43 0,43.433 0,60.001C0,76.568 6.715,91.571 17.573,102.427C28.43,113.288 43.433,120 60.003,120C76.57,120 91.573,113.283 102.427,102.427C113.285,91.568 120,76.568 120,60.001C120,43.433 113.283,28.43 102.425,17.573" style="fill:black;fill-rule:nonzero;"/>
        <path d="M60,50.63L38.007,27.552L52.623,27.552L52.623,16.177C52.623,13.224 55.942,10.805 60,10.805C64.058,10.805 67.378,13.222 67.378,16.177L67.378,27.552L81.993,27.552L60,50.63L60,50.63ZM111.616,59.5C111.346,31.223 88.342,8.382 60.002,8.382C31.66,8.382 8.655,31.225 8.39,59.503L32.057,35.835L39.995,43.772L22.675,61.093L97.331,61.093L80.01,43.772L87.947,35.835L111.616,59.5Z" style="fill:black;fill-rule:nonzero;"/>
        <path d="M66.415,89.051C65.242,88.288 63.757,87.603 61.966,87.008C60.595,86.536 59.468,86.09 58.588,85.661C57.715,85.236 57.071,84.763 56.657,84.265C56.236,83.758 56.038,83.15 56.038,82.453C56.038,81.896 56.205,81.365 56.565,80.863C56.918,80.363 57.47,79.946 58.22,79.63C58.977,79.311 59.943,79.138 61.14,79.133C62.106,79.138 62.986,79.215 63.783,79.353C64.57,79.496 65.268,79.668 65.865,79.865C66.47,80.071 66.96,80.263 67.345,80.445L68.678,76.428C67.872,76.023 66.863,75.688 65.637,75.415C64.598,75.185 63.408,75.053 62.055,75.008L62.055,70.851L58.393,70.851L58.393,75.215C57.806,75.31 57.243,75.438 56.71,75.593C55.363,75.99 54.205,76.543 53.247,77.263C52.298,77.981 51.563,78.82 51.057,79.783C50.551,80.745 50.3,81.805 50.29,82.946C50.298,84.265 50.643,85.428 51.325,86.432C52.008,87.437 52.98,88.31 54.235,89.058C55.485,89.803 56.978,90.445 58.703,90.985C59.998,91.401 61.053,91.833 61.858,92.278C62.663,92.72 63.253,93.207 63.621,93.74C63.995,94.273 64.18,94.89 64.173,95.58C64.173,96.338 63.95,96.995 63.515,97.563C63.085,98.123 62.45,98.563 61.615,98.875C60.78,99.19 59.76,99.345 58.565,99.355C57.592,99.348 56.65,99.266 55.731,99.108C54.818,98.943 53.961,98.73 53.17,98.465C52.372,98.2 51.675,97.913 51.07,97.59L49.783,101.775C50.365,102.096 51.093,102.383 51.983,102.648C52.873,102.916 53.853,103.128 54.925,103.29C55.99,103.448 57.086,103.528 58.197,103.538L58.393,103.536L58.393,107.833L62.055,107.833L62.055,103.19C62.52,103.101 62.963,102.993 63.383,102.869C64.853,102.425 66.073,101.823 67.037,101.051C68.01,100.286 68.73,99.398 69.208,98.398C69.682,97.398 69.92,96.341 69.92,95.213C69.92,93.893 69.638,92.725 69.055,91.72C68.467,90.706 67.593,89.818 66.415,89.051" style="fill:black;fill-rule:nonzero;"/>
        <path d="M158.428,56.901C158.343,55.774 158.104,54.69 157.708,53.646C157.31,52.603 156.769,51.695 156.08,50.922C155.391,50.151 154.556,49.524 153.576,49.044C152.595,48.565 151.499,48.323 150.29,48.323C149.037,48.323 147.898,48.543 146.877,48.982C145.853,49.42 144.977,50.025 144.247,50.797C143.517,51.57 142.932,52.478 142.494,53.52C142.056,54.565 141.815,55.69 141.774,56.901L158.428,56.901ZM141.774,61.597C141.774,62.849 141.951,64.06 142.307,65.228C142.661,66.397 143.193,67.42 143.903,68.296C144.612,69.173 145.51,69.871 146.595,70.393C147.68,70.916 148.973,71.175 150.477,71.175C152.563,71.175 154.243,70.728 155.516,69.829C156.789,68.933 157.739,67.587 158.364,65.792L165.127,65.792C164.751,67.545 164.103,69.109 163.185,70.487C162.267,71.865 161.161,73.023 159.868,73.961C158.573,74.901 157.123,75.611 155.516,76.091C153.909,76.57 152.23,76.81 150.477,76.81C147.931,76.81 145.676,76.393 143.716,75.558C141.753,74.723 140.094,73.555 138.738,72.052C137.381,70.549 136.358,68.755 135.67,66.669C134.981,64.581 134.637,62.285 134.637,59.781C134.637,57.486 135.002,55.305 135.733,53.239C136.462,51.173 137.507,49.358 138.863,47.792C140.219,46.227 141.857,44.985 143.778,44.066C145.697,43.15 147.868,42.689 150.29,42.689C152.834,42.689 155.119,43.222 157.144,44.286C159.168,45.35 160.848,46.759 162.185,48.512C163.519,50.265 164.49,52.279 165.095,54.553C165.7,56.829 165.856,59.177 165.565,61.597L141.774,61.597L141.774,61.597Z" style="fill:black;fill-rule:nonzero;"/>
        <path d="M190.983,59.718C189.898,60.428 188.562,60.856 186.976,61.002C185.39,61.149 183.805,61.367 182.219,61.66C181.468,61.785 180.737,61.962 180.027,62.192C179.318,62.422 178.691,62.735 178.149,63.131C177.605,63.528 177.178,64.049 176.865,64.696C176.552,65.344 176.396,66.126 176.396,67.044C176.396,67.837 176.625,68.505 177.085,69.047C177.543,69.59 178.096,70.017 178.744,70.33C179.391,70.643 180.1,70.862 180.872,70.988C181.644,71.114 182.344,71.175 182.97,71.175C183.762,71.175 184.618,71.073 185.536,70.862C186.454,70.654 187.321,70.299 188.135,69.797C188.949,69.297 189.626,68.662 190.17,67.888C190.711,67.117 190.983,66.167 190.983,65.04L190.983,59.718ZM198.12,68.734C198.12,69.61 198.235,70.237 198.465,70.612C198.694,70.988 199.143,71.175 199.812,71.175L200.562,71.175C200.853,71.175 201.188,71.134 201.565,71.05L201.565,75.997C201.314,76.08 200.99,76.173 200.594,76.279C200.197,76.381 199.79,76.476 199.373,76.56C198.955,76.644 198.538,76.705 198.12,76.747C197.704,76.789 197.348,76.81 197.057,76.81C195.594,76.81 194.385,76.518 193.425,75.933C192.464,75.349 191.838,74.327 191.546,72.866C190.128,74.243 188.385,75.246 186.32,75.871C184.254,76.497 182.26,76.81 180.34,76.81C178.879,76.81 177.481,76.611 176.145,76.215C174.81,75.819 173.63,75.235 172.608,74.462C171.585,73.69 170.771,72.709 170.166,71.52C169.561,70.33 169.259,68.943 169.259,67.357C169.259,65.353 169.623,63.726 170.355,62.474C171.084,61.221 172.044,60.241 173.234,59.531C174.423,58.821 175.759,58.309 177.241,57.997C178.722,57.684 180.215,57.444 181.717,57.276C183.011,57.026 184.243,56.849 185.411,56.745C186.579,56.641 187.612,56.463 188.511,56.213C189.408,55.962 190.117,55.577 190.639,55.054C191.161,54.533 191.421,53.751 191.421,52.706C191.421,51.789 191.203,51.038 190.764,50.453C190.326,49.868 189.784,49.42 189.137,49.106C188.489,48.793 187.769,48.586 186.976,48.48C186.183,48.377 185.432,48.324 184.723,48.324C182.719,48.324 181.07,48.742 179.777,49.577C178.483,50.412 177.752,51.705 177.585,53.458L170.448,53.458C170.573,51.372 171.075,49.639 171.951,48.262C172.828,46.884 173.944,45.778 175.301,44.943C176.656,44.109 178.19,43.525 179.902,43.19C181.613,42.857 183.366,42.69 185.161,42.69C186.747,42.69 188.313,42.857 189.857,43.19C191.4,43.525 192.788,44.067 194.02,44.818C195.25,45.569 196.242,46.54 196.993,47.729C197.746,48.918 198.12,50.369 198.12,52.081L198.12,68.734Z" style="fill:black;fill-rule:nonzero;"/>
        <path d="M211.205,65.541C211.414,67.628 212.207,69.09 213.585,69.924C214.962,70.76 216.61,71.175 218.53,71.175C219.197,71.175 219.959,71.123 220.816,71.019C221.671,70.916 222.475,70.718 223.226,70.424C223.977,70.133 224.593,69.704 225.073,69.141C225.553,68.577 225.771,67.837 225.73,66.918C225.688,66.001 225.355,65.249 224.728,64.665C224.102,64.08 223.298,63.611 222.318,63.256C221.338,62.902 220.221,62.599 218.968,62.348C217.717,62.098 216.443,61.827 215.15,61.533C213.814,61.243 212.53,60.888 211.299,60.47C210.068,60.053 208.962,59.49 207.981,58.78C207,58.07 206.218,57.162 205.633,56.056C205.048,54.951 204.757,53.583 204.757,51.955C204.757,50.202 205.185,48.731 206.04,47.541C206.896,46.352 207.981,45.392 209.296,44.661C210.61,43.932 212.072,43.42 213.678,43.128C215.285,42.836 216.818,42.69 218.281,42.69C219.948,42.69 221.545,42.867 223.069,43.222C224.593,43.577 225.97,44.151 227.201,44.943C228.432,45.736 229.455,46.769 230.269,48.042C231.083,49.315 231.594,50.85 231.804,52.644L224.353,52.644C224.018,50.933 223.236,49.786 222.005,49.2C220.774,48.616 219.365,48.323 217.779,48.323C217.279,48.323 216.684,48.366 215.995,48.449C215.306,48.533 214.658,48.69 214.054,48.918C213.448,49.149 212.937,49.482 212.52,49.92C212.103,50.359 211.894,50.933 211.894,51.642C211.894,52.519 212.196,53.229 212.802,53.77C213.406,54.314 214.2,54.763 215.181,55.117C216.161,55.472 217.279,55.774 218.53,56.025C219.783,56.276 221.076,56.547 222.413,56.838C223.705,57.131 224.979,57.486 226.231,57.903C227.483,58.321 228.599,58.884 229.581,59.594C230.561,60.303 231.354,61.201 231.96,62.286C232.565,63.371 232.867,64.707 232.867,66.292C232.867,68.213 232.429,69.841 231.553,71.175C230.676,72.513 229.539,73.596 228.141,74.431C226.742,75.266 225.188,75.871 223.476,76.247C221.765,76.622 220.074,76.811 218.405,76.811C216.36,76.811 214.471,76.58 212.74,76.122C211.006,75.662 209.504,74.964 208.232,74.025C206.958,73.085 205.956,71.918 205.227,70.519C204.496,69.12 204.11,67.461 204.069,65.541L211.205,65.541Z" style="fill:black;fill-rule:nonzero;"/>
        <path d="M234.745,43.566L242.572,43.566L251.023,67.732L251.149,67.732L259.35,43.566L266.801,43.566L254.216,77.687C253.632,79.147 253.058,80.545 252.494,81.881C251.931,83.217 251.243,84.395 250.428,85.419C249.615,86.442 248.602,87.255 247.391,87.86C246.181,88.466 244.638,88.768 242.759,88.768C241.09,88.768 239.441,88.643 237.813,88.393L237.813,82.382C238.397,82.465 238.96,82.559 239.504,82.663C240.046,82.768 240.609,82.821 241.194,82.821C242.028,82.821 242.717,82.716 243.26,82.507C243.803,82.298 244.25,81.996 244.606,81.6C244.96,81.203 245.263,80.733 245.514,80.191C245.764,79.648 245.993,79.022 246.202,78.313L247.016,75.809L234.745,43.566L234.745,43.566Z" style="fill:black;fill-rule:nonzero;"/>
        <path d="M273.968,64.759C274.364,66.407 274.991,67.878 275.847,69.173C276.702,70.466 277.797,71.52 279.134,72.333C280.469,73.148 282.077,73.555 283.954,73.555C286.041,73.555 287.805,73.148 289.244,72.333C290.684,71.52 291.853,70.466 292.75,69.173C293.648,67.878 294.295,66.407 294.692,64.759C295.088,63.11 295.287,61.451 295.287,59.781C295.287,58.112 295.088,56.454 294.692,54.804C294.295,53.155 293.648,51.684 292.75,50.39C291.853,49.096 290.684,48.042 289.244,47.228C287.805,46.415 286.041,46.008 283.954,46.008C282.077,46.008 280.469,46.415 279.134,47.228C277.797,48.042 276.702,49.096 275.847,50.39C274.991,51.684 274.364,53.155 273.968,54.804C273.571,56.454 273.373,58.112 273.373,59.781C273.373,61.451 273.571,63.11 273.968,64.759M295.6,75.934L295.6,69.798L295.474,69.798C295.056,70.842 294.441,71.802 293.627,72.678C292.814,73.555 291.884,74.296 290.841,74.901C289.798,75.506 288.681,75.975 287.492,76.308C286.302,76.643 285.122,76.81 283.954,76.81C281.491,76.81 279.353,76.361 277.537,75.464C275.721,74.567 274.208,73.336 272.999,71.771C271.787,70.206 270.89,68.39 270.306,66.323C269.721,64.257 269.429,62.077 269.429,59.781C269.429,57.487 269.721,55.304 270.306,53.238C270.89,51.173 271.787,49.357 272.999,47.792C274.208,46.226 275.721,44.986 277.537,44.067C279.353,43.149 281.491,42.689 283.954,42.689C285.164,42.689 286.343,42.836 287.492,43.127C288.639,43.42 289.714,43.869 290.716,44.473C291.717,45.079 292.604,45.82 293.377,46.696C294.148,47.573 294.743,48.596 295.161,49.763L295.287,49.763L295.287,31.232L299.231,31.232L299.231,75.934L295.6,75.934L295.6,75.934Z" style="fill:black;fill-rule:nonzero;"/>
        <path d="M310.75,75.934L306.805,75.934L306.805,43.629L310.75,43.629L310.75,75.934ZM310.75,37.555L306.805,37.555L306.805,31.232L310.75,31.232L310.75,37.555Z" style="fill:black;fill-rule:nonzero;"/>
        <path d="M335.792,71.144C337.086,70.414 338.172,69.454 339.048,68.264C339.925,67.075 340.582,65.707 341.02,64.164C341.458,62.62 341.678,61.033 341.678,59.406C341.678,57.82 341.489,56.235 341.114,54.647C340.738,53.061 340.133,51.621 339.298,50.327C338.463,49.035 337.388,47.991 336.074,47.198C334.759,46.405 333.162,46.008 331.285,46.008C329.406,46.008 327.799,46.394 326.464,47.165C325.127,47.939 324.022,48.95 323.146,50.202C322.269,51.455 321.632,52.885 321.236,54.49C320.839,56.098 320.641,57.737 320.641,59.406C320.641,61.033 320.85,62.62 321.267,64.164C321.684,65.707 322.332,67.075 323.209,68.264C324.085,69.454 325.19,70.414 326.526,71.144C327.862,71.876 329.448,72.24 331.285,72.24C332.996,72.24 334.498,71.876 335.792,71.144M344.839,79.753C344.316,81.672 343.493,83.3 342.366,84.636C341.24,85.971 339.767,86.994 337.952,87.704C336.137,88.413 333.914,88.768 331.285,88.768C329.657,88.768 328.07,88.58 326.526,88.204C324.982,87.83 323.594,87.244 322.364,86.452C321.132,85.658 320.11,84.646 319.295,83.415C318.481,82.183 318.012,80.712 317.886,79.001L321.831,79.001C322.039,80.212 322.447,81.224 323.052,82.038C323.656,82.852 324.387,83.509 325.244,84.01C326.098,84.511 327.048,84.876 328.092,85.106C329.135,85.335 330.199,85.45 331.285,85.45C334.957,85.45 337.608,84.406 339.236,82.32C340.863,80.231 341.678,77.227 341.678,73.305L341.678,68.922L341.553,68.922C340.634,70.925 339.288,72.532 337.514,73.743C335.74,74.953 333.664,75.559 331.285,75.559C328.697,75.559 326.484,75.131 324.648,74.274C322.812,73.42 321.299,72.24 320.11,70.737C318.919,69.235 318.053,67.472 317.511,65.447C316.968,63.423 316.697,61.263 316.697,58.968C316.697,56.755 317.02,54.658 317.668,52.675C318.315,50.694 319.253,48.96 320.485,47.479C321.715,45.998 323.24,44.828 325.055,43.973C326.871,43.118 328.946,42.69 331.285,42.69C332.495,42.69 333.633,42.857 334.697,43.19C335.761,43.525 336.732,43.994 337.608,44.599C338.484,45.205 339.267,45.903 339.956,46.696C340.645,47.489 341.176,48.323 341.553,49.2L341.678,49.2L341.678,43.628L345.621,43.628L345.621,73.305C345.621,75.684 345.361,77.833 344.839,79.753" style="fill:black;fill-rule:nonzero;"/>
        <path d="M357.141,75.934L353.196,75.934L353.196,43.629L357.141,43.629L357.141,75.934ZM357.141,37.555L353.196,37.555L353.196,31.232L357.141,31.232L357.141,37.555Z" style="fill:black;fill-rule:nonzero;"/>
        <path d="M377.551,43.628L377.551,46.946L370.977,46.946L370.977,68.735C370.977,70.028 371.154,71.041 371.509,71.77C371.863,72.502 372.751,72.908 374.17,72.992C375.297,72.992 376.425,72.928 377.551,72.803L377.551,76.122C376.966,76.122 376.383,76.141 375.798,76.183C375.213,76.225 374.629,76.247 374.045,76.247C371.415,76.247 369.578,75.736 368.536,74.712C367.492,73.69 366.992,71.802 367.034,69.048L367.034,46.946L361.398,46.946L361.398,43.628L367.034,43.628L367.034,33.924L370.977,33.924L370.977,43.628L377.551,43.628Z" style="fill:black;fill-rule:nonzero;"/>
        <path d="M403.783,58.279C403.532,58.738 403.051,59.073 402.342,59.28C401.633,59.489 401.007,59.636 400.464,59.717C398.794,60.011 397.074,60.273 395.299,60.501C393.525,60.731 391.908,61.075 390.447,61.534C388.986,61.994 387.787,62.651 386.848,63.506C385.909,64.363 385.439,65.583 385.439,67.168C385.439,68.171 385.637,69.058 386.034,69.829C386.43,70.603 386.962,71.27 387.63,71.833C388.297,72.397 389.07,72.825 389.947,73.117C390.823,73.408 391.72,73.555 392.639,73.555C394.141,73.555 395.581,73.326 396.958,72.866C398.336,72.407 399.536,71.738 400.559,70.862C401.58,69.985 402.395,68.921 403,67.67C403.604,66.417 403.908,65 403.908,63.413L403.908,58.279L403.783,58.279L403.783,58.279ZM384.062,48.637C384.729,47.259 385.637,46.133 386.785,45.256C387.933,44.38 389.278,43.733 390.823,43.316C392.367,42.899 394.078,42.689 395.958,42.689C397.375,42.689 398.794,42.825 400.215,43.096C401.633,43.368 402.907,43.879 404.033,44.629C405.159,45.382 406.078,46.436 406.787,47.792C407.497,49.149 407.852,50.913 407.852,53.082L407.852,70.237C407.852,71.822 408.624,72.615 410.17,72.615C410.627,72.615 411.046,72.532 411.421,72.365L411.421,75.683C410.962,75.767 410.554,75.83 410.2,75.87C409.845,75.912 409.396,75.934 408.854,75.934C407.852,75.934 407.048,75.799 406.444,75.527C405.837,75.256 405.369,74.869 405.035,74.369C404.701,73.868 404.48,73.273 404.378,72.584C404.273,71.895 404.221,71.135 404.221,70.298L404.096,70.298C403.386,71.342 402.666,72.271 401.935,73.084C401.205,73.899 400.391,74.578 399.495,75.12C398.596,75.663 397.573,76.079 396.426,76.372C395.279,76.662 393.911,76.81 392.326,76.81C390.823,76.81 389.414,76.632 388.1,76.278C386.785,75.924 385.637,75.361 384.657,74.588C383.674,73.816 382.904,72.835 382.34,71.645C381.776,70.456 381.495,69.047 381.495,67.42C381.495,65.166 381.995,63.402 382.997,62.129C383.999,60.856 385.324,59.886 386.972,59.218C388.621,58.55 390.479,58.081 392.545,57.808C394.612,57.538 396.709,57.277 398.836,57.026C399.671,56.943 400.402,56.839 401.027,56.713C401.653,56.588 402.175,56.37 402.594,56.056C403.009,55.743 403.333,55.316 403.564,54.773C403.793,54.23 403.908,53.52 403.908,52.644C403.908,51.309 403.688,50.213 403.25,49.357C402.812,48.502 402.207,47.823 401.435,47.322C400.662,46.821 399.766,46.477 398.743,46.289C397.719,46.102 396.624,46.008 395.456,46.008C392.952,46.008 390.905,46.602 389.321,47.792C387.734,48.981 386.9,50.891 386.815,53.52L382.871,53.52C382.997,51.642 383.393,50.014 384.062,48.637" style="fill:black;fill-rule:nonzero;"/>
        <rect x="415.803" y="31.232" width="3.944" height="44.702" style="fill:black;"/>
        <path d="M432.895,60.094C432.895,61.471 433.072,62.828 433.427,64.164C433.781,65.499 434.324,66.689 435.055,67.732C435.786,68.776 436.714,69.611 437.841,70.237C438.969,70.862 440.303,71.176 441.847,71.176C443.433,71.176 444.8,70.842 445.949,70.174C447.096,69.507 448.035,68.631 448.766,67.545C449.496,66.459 450.039,65.239 450.395,63.883C450.749,62.526 450.926,61.138 450.926,59.717C450.926,56.13 450.122,53.333 448.516,51.329C446.908,49.326 444.728,48.324 441.974,48.324C440.303,48.324 438.894,48.668 437.747,49.357C436.598,50.046 435.66,50.944 434.93,52.049C434.199,53.155 433.679,54.408 433.365,55.806C433.052,57.205 432.895,58.634 432.895,60.094M457.812,75.934L451.051,75.934L451.051,71.551L450.926,71.551C449.965,73.43 448.567,74.776 446.73,75.589C444.894,76.403 442.953,76.81 440.909,76.81C438.363,76.81 436.141,76.361 434.241,75.464C432.341,74.567 430.766,73.346 429.514,71.802C428.262,70.258 427.323,68.432 426.697,66.324C426.071,64.217 425.758,61.952 425.758,59.531C425.758,56.61 426.154,54.084 426.948,51.956C427.74,49.826 428.794,48.074 430.109,46.696C431.424,45.319 432.926,44.308 434.617,43.66C436.307,43.013 438.029,42.689 439.781,42.689C440.784,42.689 441.805,42.783 442.85,42.971C443.893,43.159 444.894,43.462 445.855,43.88C446.814,44.297 447.702,44.829 448.516,45.475C449.329,46.123 450.007,46.884 450.55,47.761L450.675,47.761L450.675,31.232L457.812,31.232L457.812,75.934Z" style="fill:black;fill-rule:nonzero;"/>
        <path d="M480.413,71.175C481.999,71.175 483.377,70.842 484.546,70.174C485.714,69.506 486.674,68.63 487.426,67.545C488.177,66.459 488.73,65.239 489.086,63.883C489.44,62.526 489.617,61.138 489.617,59.718C489.617,58.341 489.44,56.963 489.086,55.586C488.73,54.209 488.177,52.988 487.426,51.924C486.674,50.86 485.714,49.994 484.546,49.325C483.377,48.658 481.999,48.324 480.413,48.324C478.826,48.324 477.45,48.658 476.281,49.325C475.113,49.994 474.154,50.86 473.402,51.924C472.65,52.988 472.096,54.209 471.742,55.586C471.387,56.963 471.21,58.341 471.21,59.718C471.21,61.138 471.387,62.526 471.742,63.883C472.096,65.239 472.65,66.459 473.402,67.545C474.154,68.63 475.113,69.506 476.281,70.174C477.45,70.842 478.826,71.175 480.413,71.175M480.413,76.81C477.825,76.81 475.519,76.382 473.495,75.527C471.47,74.672 469.76,73.492 468.362,71.99C466.963,70.487 465.899,68.693 465.168,66.605C464.438,64.519 464.073,62.223 464.073,59.718C464.073,57.256 464.438,54.982 465.168,52.895C465.899,50.808 466.963,49.012 468.362,47.51C469.76,46.008 471.47,44.828 473.495,43.973C475.519,43.117 477.825,42.689 480.413,42.689C483,42.689 485.307,43.117 487.331,43.973C489.356,44.828 491.067,46.008 492.466,47.51C493.863,49.012 494.928,50.808 495.658,52.895C496.389,54.982 496.755,57.256 496.755,59.718C496.755,62.223 496.389,64.519 495.658,66.605C494.928,68.693 493.863,70.487 492.466,71.99C491.067,73.492 489.356,74.672 487.331,75.527C485.307,76.382 483,76.81 480.413,76.81" style="fill:black;fill-rule:nonzero;"/>
        <path d="M499.758,43.566L507.333,43.566L513.656,67.732L513.782,67.732L519.856,43.566L527.055,43.566L532.877,67.732L533.003,67.732L539.576,43.566L546.839,43.566L536.697,75.934L529.372,75.934L523.362,51.893L523.236,51.893L517.288,75.934L509.776,75.934L499.758,43.566L499.758,43.566Z" style="fill:black;fill-rule:nonzero;"/>
        <path d="M551.409,43.566L558.17,43.566L558.17,48.323L558.295,48.449C559.379,46.655 560.8,45.247 562.552,44.223C564.305,43.201 566.246,42.69 568.376,42.69C571.921,42.69 574.719,43.608 576.764,45.444C578.809,47.282 579.832,50.036 579.832,53.708L579.832,75.934L572.695,75.934L572.695,55.586C572.611,53.041 572.069,51.194 571.068,50.045C570.065,48.898 568.5,48.323 566.371,48.323C565.16,48.323 564.076,48.543 563.116,48.982C562.155,49.42 561.341,50.025 560.674,50.797C560.006,51.57 559.485,52.478 559.109,53.52C558.734,54.565 558.546,55.671 558.546,56.838L558.546,75.934L551.409,75.934L551.409,43.566L551.409,43.566Z" style="fill:black;fill-rule:nonzero;"/>
        <rect x="587.532" y="31.232" width="7.138" height="44.702" style="fill:black;"/>
        <path d="M617.27,71.175C618.856,71.175 620.233,70.842 621.402,70.174C622.571,69.506 623.531,68.63 624.283,67.545C625.034,66.459 625.587,65.239 625.942,63.883C626.296,62.526 626.474,61.138 626.474,59.718C626.474,58.341 626.296,56.963 625.942,55.586C625.587,54.209 625.034,52.988 624.283,51.924C623.531,50.86 622.571,49.994 621.402,49.325C620.233,48.658 618.856,48.324 617.27,48.324C615.683,48.324 614.306,48.658 613.138,49.325C611.969,49.994 611.01,50.86 610.258,51.924C609.507,52.988 608.953,54.209 608.599,55.586C608.244,56.963 608.066,58.341 608.066,59.718C608.066,61.138 608.244,62.526 608.599,63.883C608.953,65.239 609.507,66.459 610.258,67.545C611.01,68.63 611.969,69.506 613.138,70.174C614.306,70.842 615.683,71.175 617.27,71.175M617.27,76.81C614.682,76.81 612.376,76.382 610.352,75.527C608.327,74.672 606.617,73.492 605.219,71.99C603.82,70.487 602.756,68.693 602.025,66.605C601.294,64.519 600.93,62.223 600.93,59.718C600.93,57.256 601.294,54.982 602.025,52.895C602.756,50.808 603.82,49.012 605.219,47.51C606.617,46.008 608.327,44.828 610.352,43.973C612.376,43.117 614.682,42.689 617.27,42.689C619.857,42.689 622.164,43.117 624.188,43.973C626.212,44.828 627.923,46.008 629.322,47.51C630.72,49.012 631.784,50.808 632.515,52.895C633.246,54.982 633.611,57.256 633.611,59.718C633.611,62.223 633.246,64.519 632.515,66.605C631.784,68.693 630.72,70.487 629.322,71.99C627.923,73.492 626.212,74.672 624.188,75.527C622.164,76.382 619.857,76.81 617.27,76.81" style="fill:black;fill-rule:nonzero;"/>
        <path d="M659.53,59.718C658.443,60.428 657.108,60.856 655.522,61.002C653.936,61.149 652.35,61.367 650.764,61.66C650.013,61.785 649.283,61.962 648.573,62.192C647.863,62.422 647.236,62.735 646.694,63.131C646.152,63.528 645.724,64.049 645.411,64.696C645.098,65.344 644.941,66.126 644.941,67.044C644.941,67.837 645.17,68.505 645.631,69.047C646.089,69.59 646.641,70.017 647.289,70.33C647.937,70.643 648.646,70.862 649.419,70.988C650.189,71.114 650.89,71.175 651.516,71.175C652.308,71.175 653.163,71.073 654.082,70.862C655,70.654 655.867,70.299 656.681,69.797C657.494,69.297 658.172,68.662 658.715,67.888C659.257,67.117 659.53,66.167 659.53,65.04L659.53,59.718ZM666.666,68.734C666.666,69.61 666.78,70.237 667.011,70.612C667.24,70.988 667.688,71.175 668.357,71.175L669.108,71.175C669.399,71.175 669.733,71.134 670.11,71.05L670.11,75.997C669.86,76.08 669.536,76.173 669.14,76.279C668.743,76.381 668.335,76.476 667.919,76.56C667.5,76.644 667.084,76.705 666.666,76.747C666.249,76.789 665.894,76.81 665.602,76.81C664.141,76.81 662.93,76.518 661.971,75.933C661.01,75.349 660.384,74.327 660.092,72.866C658.673,74.243 656.931,75.246 654.865,75.871C652.799,76.497 650.806,76.81 648.886,76.81C647.425,76.81 646.027,76.611 644.691,76.215C643.355,75.819 642.177,75.235 641.154,74.462C640.131,73.69 639.317,72.709 638.712,71.52C638.107,70.33 637.804,68.943 637.804,67.357C637.804,65.353 638.169,63.726 638.9,62.474C639.629,61.221 640.59,60.241 641.781,59.531C642.97,58.821 644.305,58.309 645.787,57.997C647.268,57.684 648.76,57.444 650.263,57.276C651.557,57.026 652.788,56.849 653.956,56.745C655.125,56.641 656.158,56.463 657.056,56.213C657.953,55.962 658.662,55.577 659.185,55.054C659.706,54.533 659.968,53.751 659.968,52.706C659.968,51.789 659.748,51.038 659.31,50.453C658.872,49.868 658.329,49.42 657.682,49.106C657.035,48.793 656.315,48.586 655.522,48.48C654.729,48.377 653.978,48.324 653.269,48.324C651.264,48.324 649.616,48.742 648.322,49.577C647.029,50.412 646.297,51.705 646.131,53.458L638.993,53.458C639.119,51.372 639.62,49.639 640.497,48.262C641.373,46.884 642.489,45.778 643.847,44.943C645.202,44.109 646.735,43.525 648.447,43.19C650.159,42.857 651.912,42.69 653.707,42.69C655.292,42.69 656.858,42.857 658.402,43.19C659.946,43.525 661.334,44.067 662.565,44.818C663.796,45.569 664.788,46.54 665.539,47.729C666.291,48.918 666.666,50.369 666.666,52.081L666.666,68.734Z" style="fill:black;fill-rule:nonzero;"/>
        <path d="M679.939,60.094C679.939,61.471 680.116,62.828 680.471,64.164C680.825,65.499 681.369,66.689 682.099,67.732C682.83,68.776 683.759,69.611 684.885,70.237C686.013,70.862 687.347,71.176 688.891,71.176C690.478,71.176 691.844,70.842 692.994,70.174C694.141,69.507 695.079,68.631 695.811,67.545C696.54,66.459 697.084,65.239 697.439,63.883C697.793,62.526 697.97,61.138 697.97,59.717C697.97,56.13 697.167,53.333 695.56,51.329C693.952,49.326 691.772,48.324 689.018,48.324C687.347,48.324 685.939,48.668 684.792,49.357C683.642,50.046 682.704,50.944 681.974,52.049C681.244,53.155 680.723,54.408 680.41,55.806C680.097,57.205 679.939,58.634 679.939,60.094M704.856,75.934L698.095,75.934L698.095,71.551L697.97,71.551C697.009,73.43 695.612,74.776 693.775,75.589C691.938,76.403 689.998,76.81 687.953,76.81C685.407,76.81 683.185,76.361 681.286,75.464C679.385,74.567 677.81,73.346 676.558,71.802C675.306,70.258 674.368,68.432 673.741,66.324C673.115,64.217 672.802,61.952 672.802,59.531C672.802,56.61 673.198,54.084 673.992,51.956C674.784,49.826 675.839,48.074 677.153,46.696C678.468,45.319 679.971,44.308 681.661,43.66C683.352,43.013 685.074,42.689 686.825,42.689C687.828,42.689 688.85,42.783 689.894,42.971C690.937,43.159 691.938,43.462 692.899,43.88C693.859,44.297 694.746,44.829 695.56,45.475C696.374,46.123 697.051,46.884 697.594,47.761L697.72,47.761L697.72,31.232L704.856,31.232L704.856,75.934Z" style="fill:black;fill-rule:nonzero;"/>
        <path d="M718.004,65.541C718.212,67.628 719.006,69.09 720.383,69.924C721.761,70.76 723.408,71.175 725.33,71.175C725.996,71.175 726.759,71.123 727.615,71.019C728.47,70.916 729.274,70.718 730.025,70.424C730.776,70.133 731.391,69.704 731.872,69.141C732.351,68.577 732.57,67.837 732.529,66.918C732.487,66.001 732.152,65.249 731.527,64.665C730.901,64.08 730.097,63.611 729.117,63.256C728.135,62.902 727.019,62.599 725.768,62.348C724.515,62.098 723.241,61.827 721.949,61.533C720.612,61.243 719.329,60.888 718.099,60.47C716.867,60.053 715.76,59.49 714.78,58.78C713.799,58.07 713.016,57.162 712.432,56.056C711.847,54.951 711.556,53.583 711.556,51.955C711.556,50.202 711.983,48.731 712.839,47.541C713.694,46.352 714.78,45.392 716.095,44.661C717.409,43.932 718.87,43.42 720.477,43.128C722.083,42.836 723.618,42.69 725.078,42.69C726.747,42.69 728.344,42.867 729.868,43.222C731.391,43.577 732.769,44.151 734,44.943C735.231,45.736 736.254,46.769 737.068,48.042C737.883,49.315 738.393,50.85 738.602,52.644L731.152,52.644C730.817,50.933 730.035,49.786 728.804,49.2C727.573,48.616 726.164,48.323 724.578,48.323C724.077,48.323 723.482,48.366 722.794,48.449C722.105,48.533 721.457,48.69 720.852,48.918C720.248,49.149 719.735,49.482 719.319,49.92C718.901,50.359 718.694,50.933 718.694,51.642C718.694,52.519 718.995,53.229 719.6,53.77C720.206,54.314 720.999,54.763 721.979,55.117C722.959,55.472 724.077,55.774 725.33,56.025C726.581,56.276 727.875,56.547 729.21,56.838C730.504,57.131 731.778,57.486 733.03,57.903C734.282,58.321 735.398,58.884 736.379,59.594C737.36,60.303 738.154,61.201 738.758,62.286C739.363,63.371 739.667,64.707 739.667,66.292C739.667,68.213 739.229,69.841 738.352,71.175C737.475,72.513 736.337,73.596 734.939,74.431C733.541,75.266 731.986,75.871 730.275,76.247C728.564,76.622 726.873,76.811 725.203,76.811C723.158,76.811 721.269,76.58 719.538,76.122C717.805,75.662 716.303,74.964 715.03,74.025C713.757,73.085 712.755,71.918 712.025,70.519C711.295,69.12 710.908,67.461 710.866,65.541L718.004,65.541Z" style="fill:black;fill-rule:nonzero;"/>
    </g>
</svg>
