<?xml version="1.0" standalone="no"?><!DOCTYPE svg PUBLIC "-//W3C//DTD SVG 1.1//EN" "http://www.w3.org/Graphics/SVG/1.1/DTD/svg11.dtd"><svg width="100%" height="100%" viewBox="0 0 340 86" version="1.1" xmlns="http://www.w3.org/2000/svg" xmlns:xlink="http://www.w3.org/1999/xlink" xml:space="preserve" style="fill-rule:evenodd;clip-rule:evenodd;stroke-linejoin:round;stroke-miterlimit:1.41421;"><clipPath id="_clip1"><rect id="Artboard - woothemes" x="0" y="0" width="340" height="85.2"/></clipPath><g clip-path="url(#_clip1)"><g><path d="M88.044,71.184l5.737,14.05l-25.231,-14.05l-55.203,0c-7.376,0 -13.347,-5.971 -13.347,-13.347l0,-44.49c-0.058,-7.317 5.913,-13.347 13.289,-13.347l116.552,0c7.376,0 13.347,5.971 13.347,13.347l0,44.49c0,7.376 -5.971,13.347 -13.347,13.347l-41.797,0ZM7.142,12.118c0.82,-1.113 2.049,-1.698 3.688,-1.815c2.986,-0.234 4.683,1.171 5.093,4.215c1.815,12.235 3.805,22.596 5.913,31.084l12.82,-24.411c1.171,-2.224 2.634,-3.395 4.39,-3.512c2.576,-0.176 4.157,1.463 4.801,4.917c1.463,7.786 3.336,14.401 5.561,20.021c1.522,-14.869 4.098,-25.582 7.727,-32.197c0.878,-1.639 2.166,-2.459 3.864,-2.576c1.346,-0.117 2.575,0.293 3.688,1.171c1.112,0.878 1.697,1.99 1.814,3.337c0.059,1.054 -0.117,1.932 -0.585,2.81c-2.283,4.215 -4.156,11.298 -5.678,21.132c-1.464,9.542 -1.991,16.977 -1.64,22.304c0.118,1.464 -0.117,2.751 -0.702,3.864c-0.702,1.288 -1.756,1.99 -3.103,2.107c-1.522,0.117 -3.102,-0.585 -4.624,-2.166c-5.444,-5.561 -9.776,-13.874 -12.937,-24.938c-3.806,7.493 -6.615,13.113 -8.43,16.86c-3.454,6.615 -6.381,10.01 -8.84,10.186c-1.58,0.117 -2.927,-1.23 -4.097,-4.04c-2.986,-7.668 -6.206,-22.479 -9.659,-44.431c-0.235,-1.522 0.117,-2.869 0.936,-3.922ZM132.944,21.308c-2.108,-3.688 -5.21,-5.912 -9.367,-6.79c-1.112,-0.234 -2.166,-0.351 -3.161,-0.351c-5.62,0 -10.186,2.927 -13.757,8.78c-3.044,4.976 -4.566,10.479 -4.566,16.509c0,4.507 0.937,8.371 2.81,11.59c2.108,3.688 5.21,5.913 9.367,6.791c1.112,0.234 2.165,0.351 3.161,0.351c5.678,0 10.244,-2.927 13.756,-8.781c3.044,-5.034 4.567,-10.537 4.567,-16.566c0.058,-4.566 -0.937,-8.371 -2.81,-11.533ZM96.298,21.308c-2.108,-3.688 -5.269,-5.912 -9.366,-6.79c-1.113,-0.234 -2.166,-0.351 -3.162,-0.351c-5.619,0 -10.185,2.927 -13.756,8.78c-3.044,4.976 -4.566,10.479 -4.566,16.509c0,4.507 0.936,8.371 2.809,11.59c2.108,3.688 5.21,5.913 9.367,6.791c1.112,0.234 2.166,0.351 3.161,0.351c5.678,0 10.244,-2.927 13.757,-8.781c3.044,-5.034 4.566,-10.537 4.566,-16.566c0,-4.566 -0.937,-8.371 -2.81,-11.533ZM125.568,37.524c-0.82,3.863 -2.283,6.732 -4.449,8.664c-1.698,1.522 -3.279,2.166 -4.742,1.873c-1.405,-0.293 -2.576,-1.522 -3.454,-3.805c-0.702,-1.815 -1.054,-3.63 -1.054,-5.327c0,-1.464 0.117,-2.927 0.41,-4.274c0.527,-2.4 1.522,-4.741 3.103,-6.966c1.932,-2.868 3.98,-4.039 6.088,-3.629c1.405,0.292 2.576,1.522 3.454,3.805c0.702,1.815 1.053,3.629 1.053,5.327c0,1.522 -0.117,2.985 -0.409,4.332ZM88.863,37.524c-0.819,3.863 -2.283,6.732 -4.449,8.664c-1.697,1.522 -3.278,2.166 -4.741,1.873c-1.405,-0.293 -2.576,-1.522 -3.454,-3.805c-0.703,-1.815 -1.054,-3.63 -1.054,-5.327c0,-1.464 0.117,-2.927 0.41,-4.274c0.527,-2.4 1.522,-4.741 3.103,-6.966c1.931,-2.868 3.98,-4.039 6.088,-3.629c1.405,0.292 2.575,1.522 3.453,3.805c0.703,1.815 1.054,3.629 1.054,5.327c0.059,1.522 -0.117,2.985 -0.41,4.332Z" style="fill:#ebfcf7;"/><path d="M150.564,25.113l7.493,0l0,31.436l11.123,0l0,-31.436l7.61,0l0,-9.307l-26.226,0l0,9.307ZM198.859,30.909l-9.776,0l0,-15.103l-11.005,0l0,40.743l11.005,0l0,-16.918l9.776,0l0,16.918l11.006,0l0,-40.743l-11.006,0l0,15.103ZM225.67,40.451l9.776,0l0,-8.43l-9.776,0l0,-7.551l11.24,0l0,-8.664l-22.245,0l0,40.743l22.303,0l0,-8.664l-11.356,0l0,-7.434l0.058,0ZM267.116,15.806l-2.166,9.132c-0.585,2.341 -1.054,4.742 -1.58,7.2l-1.171,6.322c-1.112,-6.322 -2.693,-13.873 -4.683,-22.654l-13.933,0l-5.21,40.743l10.42,0l2.81,-28.04l7.142,28.04l7.435,0l6.849,-27.982l2.927,27.982l10.888,0l-5.503,-40.743l-14.225,0l0,0ZM300.952,40.451l9.776,0l0,-8.43l-9.776,0l0,-7.551l11.24,0l0,-8.664l-22.245,0l0,40.743l22.303,0l0,-8.664l-11.357,0l0,-7.434l0.059,0ZM336.72,37.465c-2.225,-2.283 -4.449,-4.039 -6.615,-5.327c-3.63,-2.107 -5.503,-4.039 -5.503,-5.795c0,-0.995 0.41,-1.756 1.171,-2.283c0.761,-0.586 1.873,-0.82 3.219,-0.82c2.049,0 4.684,0.761 7.962,2.283l0,-9.132c-3.044,-1.112 -6.147,-1.698 -9.249,-1.698c-4.215,0 -7.611,1.113 -10.245,3.337c-2.634,2.225 -3.981,5.093 -3.981,8.605c0,2.576 0.879,4.918 2.576,7.025c1.698,2.108 4.449,4.391 8.254,6.791c1.581,0.995 2.693,1.873 3.337,2.576c0.644,0.702 0.937,1.463 0.937,2.283c0,1.053 -0.41,1.931 -1.171,2.575c-0.82,0.644 -1.873,0.937 -3.278,0.937c-2.401,0 -5.327,-0.878 -8.781,-2.576l0,9.484c3.044,1.229 6.088,1.814 9.132,1.814c4.507,0 8.195,-1.17 11.122,-3.454c2.927,-2.283 4.391,-5.21 4.391,-8.722c0.058,-2.985 -1.054,-5.62 -3.278,-7.903Z" style="fill:#ebfcf7;fill-rule:nonzero;"/></g></g></svg>