<?xml version="1.0" standalone="no"?>
<!DOCTYPE svg PUBLIC "-//W3C//DTD SVG 1.1//EN" "http://www.w3.org/Graphics/SVG/1.1/DTD/svg11.dtd">
<svg width="100%" height="100%" viewBox="0 0 271 120" version="1.1" xmlns="http://www.w3.org/2000/svg" xmlns:xlink="http://www.w3.org/1999/xlink" xml:space="preserve" style="fill-rule:evenodd;clip-rule:evenodd;stroke-linejoin:round;stroke-miterlimit:1.41421;">
    <g>
        <path d="M78.379,59.245C78.887,38.333 94.949,38.354 100.317,45.847C105.208,52.675 106.212,76.017 91.05,75.844C84.067,75.768 78.585,71.048 78.379,59.245L78.379,59.245ZM91.05,28.697C70.138,28.697 61.77,42.732 61.77,58.364C61.77,74.611 70.013,88.647 91.05,88.647C112.025,88.647 120.277,73.948 120.239,59.319C120.192,41.499 111.175,28.697 91.05,28.697L91.05,28.697Z" style="fill:black;"/>
        <path d="M260.677,74.143L260.677,43.845L271.507,43.845L271.507,30.692L260.677,30.692L260.677,14.808L243.948,14.808L243.948,30.692L235.462,30.692L235.462,43.845L243.948,43.845L243.948,72.421C243.948,88.665 255.273,98.319 267.224,100.316L272.217,86.866C265.249,85.983 260.741,80.776 260.677,74.143L260.677,74.143Z" style="fill:black;"/>
        <path d="M159.421,69.218C146.171,84.045 134.036,70.089 146.464,64C150.122,62.753 155.087,62.699 159.421,62.699L159.421,69.218ZM176.273,69.344L176.273,46.569C176.273,45.739 176.219,44.956 176.14,44.196C174.689,25.797 148.559,25.835 128.322,32.899L134.171,44.673C147.349,38.416 155.238,40.027 157.995,43.112C158.066,43.192 158.137,43.271 158.201,43.355C158.209,43.365 158.216,43.376 158.224,43.386C159.63,45.285 159.293,48.28 159.293,50.633C142.069,50.633 123.742,52.921 123.742,71.807C123.742,86.165 141.733,95.403 160.532,81.718L163.32,88.447L179.433,88.447C177.993,80.546 176.273,73.776 176.273,69.344Z" style="fill:black;"/>
        <path d="M201.985,45.344C201.985,39.735 210.966,37.109 225.132,43.579L230.032,31.682C210.966,25.92 184.93,25.4 184.761,45.344C184.681,54.899 190.812,60.044 199.636,63.324C205.75,65.597 214.577,66.774 214.551,71.642C214.518,78.004 200.835,78.979 188.379,70.422L183.347,83.324C200.335,91.778 231.926,92.017 231.758,70.825C231.592,49.877 201.985,53.467 201.985,45.344Z" style="fill:black;"/>
        <path d="M54.701,0L30.452,67.356L18.838,30.984L1.566,30.984L20.904,80.657C22.55,84.886 22.551,89.58 20.902,93.809C18.741,99.352 15.144,104.095 6.377,105.273L6.377,120C23.447,120 32.674,109.506 40.908,86.508L73.179,0L54.701,0L54.701,0Z" style="fill:black;"/>
    </g>
</svg>
