<svg xmlns:sketch="http://www.bohemiancoding.com/sketch/ns" xmlns:dc="http://purl.org/dc/elements/1.1/" xmlns:cc="http://creativecommons.org/ns#" xmlns:rdf="http://www.w3.org/1999/02/22-rdf-syntax-ns#" xmlns:svg="http://www.w3.org/2000/svg" xmlns="http://www.w3.org/2000/svg" xmlns:sodipodi="http://sodipodi.sourceforge.net/DTD/sodipodi-0.dtd" xmlns:inkscape="http://www.inkscape.org/namespaces/inkscape"><symbol viewBox="0 0 32 32" id="icon-announcement"><title>announcement</title> <path fill="#FFFFFF" d="M31.059,2.619c-0.52,0-0.941,0.421-0.941,0.941v0.612L1.882,12.766v-0.039c0-0.52-0.421-0.941-0.941-0.941
	S0,12.207,0,12.727v1.309v3.928v1.31c0,0.52,0.421,0.941,0.941,0.941s0.941-0.421,0.941-0.941v-0.039l4.665,1.42v2.693
	c0,3.046,2.478,5.525,5.524,5.525c2.823,0,5.156-2.131,5.482-4.868l12.564,3.824v0.612c0,0.52,0.421,0.941,0.941,0.941
	c0.52,0,0.941-0.421,0.941-0.941v-1.31V4.869V3.56C32,3.04,31.579,2.619,31.059,2.619z M12.072,26.99
	c-2.008,0-3.642-1.634-3.642-3.642v-2.12l7.275,2.214C15.653,25.405,14.048,26.99,12.072,26.99z M1.882,17.267v-2.534L30.118,6.14
	V25.86L1.882,17.267z"/> </symbol><symbol viewBox="0 0 35 32" id="icon-heart"><title>heart</title> <g> <path fill="#E34F43" d="M25.332,3c1.637,0,3.314,0.729,4.601,2.001C31.266,6.318,32,8.013,32,9.776
		c0,2.599-3.342,5.871-7.211,9.659c-2.309,2.26-4.849,4.747-7.289,7.643c-2.44-2.896-4.98-5.382-7.289-7.643
		C6.342,15.647,3,12.375,3,9.775c0-1.762,0.734-3.458,2.067-4.774C6.354,3.729,8.031,3,9.668,3c2.036,0,3.892,1.124,5.367,3.251
		l2.465,3.554l2.465-3.554C21.44,4.124,23.296,3,25.332,3 M25.332,0c-2.75,0-5.602,1.326-7.831,4.541C15.27,1.326,12.419,0,9.668,0
		C4.668,0-0.001,4.386,0,9.776c0,6.444,10.073,11.994,17.5,22.149C24.927,21.769,35,16.22,35,9.776C35.001,4.386,30.332,0,25.332,0
		L25.332,0z"/> </g> </symbol><symbol viewBox="0 0 164.093 33.114" id="icon-recommended"><title>recommended</title> <text transform="matrix(0.9998 -0.0215 0.0215 0.9998 12.7911 15.1178)" display="none" font-family="&#x27;Noteworthy-Light&#x27;" font-size="34.4086">recommended</text> <g> <path fill="#373737" d="M8.334,12.735c0.001,0.083-0.006,0.26-0.02,0.53c-0.262,0.421-0.516,0.634-0.765,0.64
		c-0.166,0.004-0.314-0.097-0.442-0.302c-0.09-1.306-0.645-1.948-1.661-1.926c-0.664,0.014-1.291,1.253-1.881,3.714
		c-0.23,0.898-0.329,2.093-0.297,3.587c0.041,1.909,0.118,3.08,0.231,3.513c0.022,0.062,0.077,0.191,0.164,0.386
		c0.087,0.196,0.132,0.345,0.134,0.449c0.01,0.457-0.296,0.691-0.919,0.705c-0.706,0.015-1.066-0.34-1.081-1.067
		c-0.002-0.104,0.02-0.254,0.068-0.453c0.047-0.198,0.071-0.349,0.068-0.453c-0.024-1.141-0.113-2.851-0.266-5.131
		c-0.153-2.28-0.241-3.991-0.266-5.132c-0.008-0.415,0.059-0.67,0.201-0.767c0.143-0.096,0.423-0.149,0.838-0.158
		c0.519-0.011,0.823,0.169,0.915,0.54c0.029,0.415,0.059,0.82,0.088,1.213c0.522-0.841,0.823-1.315,0.903-1.421
		c0.445-0.528,0.917-0.798,1.415-0.809c0.373-0.008,0.749,0.098,1.128,0.318c0.21,0.12,0.503,0.435,0.876,0.946
		C8.14,12.169,8.329,12.528,8.334,12.735z"/> <path fill="#373737" d="M18.184,20.526c0.02,0.913-0.575,1.746-1.783,2.498c-1.086,0.687-2.116,1.042-3.091,1.062
		c-2.78,0.06-4.208-1.674-4.284-5.201c-0.034-1.556,0.211-3.232,0.732-5.028c0.698-2.34,1.626-3.522,2.788-3.547
		c0.997-0.021,2.096,0.459,3.3,1.439c1.205,0.981,1.817,1.969,1.839,2.965c0.028,1.287-0.467,2.418-1.484,3.395
		c-1.017,0.976-2.179,1.479-3.486,1.507c-0.124,0.003-0.391-0.095-0.8-0.294c-0.409-0.199-0.687-0.297-0.832-0.294
		c-0.269,0.006-0.402,0.092-0.399,0.258c0.052,2.386,0.865,3.562,2.442,3.528c0.809-0.018,1.551-0.303,2.224-0.858
		c0.408-0.32,0.854-0.817,1.338-1.492c0.382-0.527,0.637-0.792,0.761-0.794C17.927,19.66,18.172,19.945,18.184,20.526z
		 M15.914,14.846c-0.016-0.726-0.238-1.401-0.666-2.025c-0.43-0.624-0.986-0.929-1.67-0.914c-0.83,0.018-1.493,0.551-1.99,1.6
		c-0.417,0.88-0.616,1.788-0.596,2.721c0.013,0.602,0.216,1.1,0.609,1.497c0.392,0.396,0.889,0.588,1.491,0.575
		c0.851-0.018,1.549-0.397,2.093-1.135C15.689,16.491,15.932,15.717,15.914,14.846z"/> <path fill="#373737" d="M29.354,20.137c0.011,0.501-0.4,1.184-1.233,2.048c-0.833,0.864-1.517,1.374-2.053,1.532
		c-0.722,0.245-1.32,0.372-1.797,0.383c-1.515,0.033-2.689-0.494-3.522-1.578c-0.768-0.961-1.168-2.221-1.202-3.781
		c-0.035-1.601,0.269-3.396,0.912-5.386c0.798-2.472,1.829-3.721,3.095-3.748c0.601-0.013,1.407,0.266,2.416,0.835
		c1.009,0.57,1.581,1.123,1.717,1.66c0.158,0.64,0.245,1.271,0.259,1.893c0.049,2.283-0.269,3.431-0.953,3.446
		c-0.166,0.004-0.365-0.054-0.596-0.174c-0.23-0.119-0.348-0.262-0.351-0.428c-0.001-0.083,0.037-0.192,0.118-0.329
		c0.079-0.136,0.129-0.226,0.149-0.268c0.077-0.271,0.105-0.894,0.085-1.87c-0.049-2.303-0.593-3.444-1.631-3.422
		c-1.141,0.025-2.052,1.096-2.733,3.212c-0.505,1.634-0.741,3.179-0.71,4.635c0.024,1.123,0.22,2.056,0.589,2.796
		c0.498,0.968,1.245,1.441,2.241,1.419c0.601-0.013,1.3-0.341,2.096-0.987c0.714-0.58,1.24-1.187,1.58-1.823
		c0.078-0.211,0.196-0.505,0.354-0.886c0.1-0.148,0.245-0.225,0.431-0.229c0.124-0.003,0.278,0.135,0.46,0.414
		C29.257,19.779,29.351,19.991,29.354,20.137z"/> <path fill="#373737" d="M40.712,16.991c0.038,1.785-0.323,3.349-1.082,4.693c-0.9,1.618-2.179,2.445-3.839,2.481
		c-1.68,0.036-2.95-0.591-3.807-1.88c-0.708-1.064-1.081-2.489-1.12-4.273c-0.037-1.763,0.319-3.504,1.071-5.223
		c0.951-2.117,2.193-3.192,3.729-3.225c0.394-0.008,0.959,0.208,1.696,0.649C39.525,11.495,40.643,13.754,40.712,16.991z
		 M39.217,16.992c-0.028-1.327-0.23-2.517-0.606-3.568c-0.551-1.462-1.365-2.181-2.443-2.158c-1.245,0.027-2.203,0.868-2.873,2.521
		c-0.512,1.278-0.753,2.642-0.722,4.094c0.028,1.307,0.238,2.403,0.631,3.287c0.566,1.213,1.419,1.806,2.56,1.782
		c1.245-0.027,2.174-0.752,2.787-2.177C39.026,19.663,39.248,18.403,39.217,16.992z"/> <path fill="#373737" d="M57.124,22.989c-0.43,0.28-0.759,0.423-0.987,0.428c-0.146,0.003-0.355-0.066-0.628-0.205
		c-0.007-0.333-0.019-0.894-0.036-1.685c-0.016-0.728-0.028-1.289-0.036-1.684c-0.138-6.405-0.862-9.594-2.172-9.566
		c-0.778,0.017-1.433,1.028-1.963,3.031c-0.416,1.608-0.612,2.961-0.588,4.06l0.066,3.112c0.004,0.166,0.056,0.399,0.155,0.697
		c0.1,0.299,0.151,0.522,0.154,0.666c0.004,0.166-0.107,0.334-0.331,0.505c-0.225,0.171-0.42,0.258-0.586,0.262
		c-0.187,0.004-0.397-0.121-0.631-0.375c-0.233-0.254-0.352-0.475-0.356-0.662l-0.134-6.255c-0.014-0.664-0.147-1.502-0.397-2.513
		c-0.319-1.28-0.685-1.916-1.1-1.907c-0.228,0.005-0.565,0.303-1.009,0.893c-1.513,2.026-2.238,4.491-2.176,7.395
		c0.008,0.353,0.061,0.876,0.158,1.569c0.098,0.693,0.151,1.206,0.158,1.537c0.013,0.623-0.24,0.939-0.758,0.951
		c-0.249,0.005-0.469-0.094-0.66-0.298c-0.085-0.102-0.188-0.566-0.31-1.394c-0.12-0.744-0.183-1.252-0.189-1.522l-0.158-7.345
		c-0.045-2.116,0.181-3.179,0.679-3.19c0.207-0.005,0.422,0.09,0.645,0.282c0.222,0.193,0.336,0.393,0.34,0.6
		c0.009,0.436-0.041,1.008-0.151,1.716c-0.105,0.916-0.165,1.488-0.181,1.716l0.159,0.153c0.375-0.9,0.75-1.801,1.125-2.702
		c0.536-1.153,1.187-1.738,1.955-1.755c1.079-0.023,2.037,1.118,2.876,3.425c0.202-0.253,0.45-0.777,0.744-1.573
		c0.295-0.795,0.563-1.361,0.804-1.699c0.384-0.506,0.866-0.766,1.447-0.779c0.56-0.012,1.19,0.349,1.891,1.083
		c1.295,1.325,1.98,3.754,2.056,7.288L57.124,22.989z"/> <path fill="#373737" d="M73.463,22.638c-0.43,0.28-0.759,0.422-0.987,0.427c-0.145,0.004-0.354-0.066-0.627-0.205
		c-0.007-0.333-0.019-0.894-0.036-1.684c-0.016-0.728-0.028-1.29-0.036-1.685c-0.138-6.405-0.862-9.594-2.172-9.566
		c-0.778,0.017-1.433,1.028-1.963,3.032c-0.416,1.607-0.613,2.961-0.589,4.06l0.066,3.112c0.004,0.166,0.056,0.399,0.155,0.697
		c0.1,0.299,0.151,0.522,0.154,0.666c0.004,0.166-0.107,0.334-0.331,0.505c-0.224,0.171-0.419,0.258-0.585,0.262
		c-0.187,0.004-0.397-0.121-0.631-0.375c-0.234-0.254-0.353-0.475-0.356-0.662l-0.135-6.255c-0.014-0.664-0.146-1.502-0.396-2.513
		c-0.318-1.28-0.685-1.916-1.1-1.907c-0.228,0.005-0.564,0.303-1.007,0.893c-1.514,2.026-2.239,4.491-2.177,7.395
		c0.008,0.353,0.06,0.876,0.158,1.569c0.097,0.693,0.151,1.206,0.158,1.538c0.013,0.622-0.24,0.939-0.758,0.95
		c-0.249,0.006-0.469-0.094-0.66-0.297c-0.086-0.102-0.189-0.567-0.31-1.394c-0.12-0.745-0.182-1.252-0.189-1.522l-0.158-7.345
		c-0.045-2.116,0.181-3.18,0.679-3.19c0.207-0.004,0.422,0.09,0.644,0.282c0.223,0.193,0.336,0.393,0.34,0.6
		c0.01,0.436-0.04,1.008-0.15,1.716c-0.105,0.916-0.165,1.488-0.181,1.716l0.159,0.153c0.374-0.9,0.75-1.801,1.125-2.702
		c0.535-1.153,1.187-1.738,1.955-1.755c1.079-0.023,2.037,1.118,2.876,3.425c0.201-0.253,0.45-0.777,0.744-1.573
		c0.295-0.795,0.563-1.361,0.805-1.699c0.383-0.506,0.866-0.766,1.447-0.779c0.559-0.012,1.19,0.35,1.891,1.083
		c1.295,1.325,1.98,3.754,2.055,7.288L73.463,22.638z"/> <path fill="#373737" d="M84.472,19.102c0.019,0.913-0.576,1.746-1.785,2.498c-1.086,0.687-2.115,1.042-3.09,1.062
		c-2.78,0.06-4.208-1.674-4.284-5.201c-0.034-1.556,0.211-3.232,0.733-5.028c0.696-2.34,1.626-3.522,2.788-3.547
		c0.996-0.021,2.096,0.459,3.3,1.439c1.204,0.981,1.816,1.969,1.838,2.965c0.028,1.287-0.467,2.418-1.484,3.395
		c-1.017,0.976-2.179,1.479-3.486,1.507c-0.124,0.003-0.391-0.095-0.8-0.294c-0.409-0.199-0.687-0.296-0.832-0.293
		c-0.27,0.006-0.403,0.092-0.399,0.258c0.052,2.386,0.866,3.562,2.443,3.528c0.809-0.018,1.551-0.303,2.224-0.858
		c0.409-0.32,0.854-0.817,1.338-1.492c0.382-0.527,0.636-0.792,0.761-0.794C84.214,18.236,84.459,18.522,84.472,19.102z
		 M82.202,13.422c-0.016-0.726-0.238-1.401-0.666-2.025c-0.43-0.624-0.985-0.929-1.67-0.914c-0.83,0.018-1.493,0.551-1.99,1.6
		c-0.417,0.88-0.616,1.788-0.596,2.721c0.013,0.602,0.216,1.101,0.609,1.497c0.392,0.397,0.89,0.588,1.491,0.576
		c0.85-0.018,1.549-0.397,2.093-1.135C81.976,15.067,82.22,14.294,82.202,13.422z"/> <path fill="#373737" d="M95.806,22.097c-0.113,0.231-0.277,0.348-0.492,0.353c-0.216,0.004-0.571-0.133-1.066-0.413l-0.006-0.249
		c-0.004-0.187-0.01-0.466-0.018-0.84c-0.008-0.373-0.014-0.642-0.018-0.809c-0.148-6.888-1.08-10.314-2.794-10.277
		c-0.536,0.012-1.106,0.419-1.709,1.22c-1.527,1.984-2.26,4.459-2.196,7.426c0.008,0.394,0.078,0.969,0.209,1.724
		c0.13,0.755,0.199,1.329,0.208,1.723c0.007,0.311-0.201,0.471-0.622,0.481c-0.803,0.017-1.218-0.628-1.247-1.935l-0.152-7.064
		c-0.004-0.187,0.001-0.457,0.014-0.81c0.013-0.353,0.018-0.623,0.013-0.81c-0.006-0.269-0.05-0.663-0.134-1.18
		c-0.083-0.517-0.128-0.9-0.134-1.15c-0.004-0.165,0.122-0.36,0.377-0.584c0.254-0.223,0.454-0.337,0.599-0.34
		c0.27-0.006,0.522,0.134,0.756,0.419c-0.033,1.35-0.047,2.139-0.042,2.367c0.006,0.311,0.024,0.612,0.05,0.902
		c0.187-0.066,0.428-0.414,0.725-1.043c0.377-0.797,0.698-1.343,0.961-1.64c0.485-0.591,1.05-0.894,1.693-0.908
		c0.249-0.005,0.623,0.08,1.126,0.256c1.129,0.391,1.942,1.058,2.441,2.002c0.844,1.622,1.296,3.782,1.353,6.478L95.806,22.097z"/> <path fill="#373737" d="M106.799,1.905c0.01,0.478-0.039,1.092-0.148,1.843c-0.124,0.98-0.204,1.594-0.24,1.845
		c-0.049,0.646-0.107,2.788-0.173,6.426c-0.054,3.327-0.076,5.167-0.069,5.52c0.048,2.223,0.278,3.788,0.693,4.693
		c-0.141,0.232-0.324,0.351-0.553,0.355c-0.207,0.005-0.444-0.094-0.707-0.295c-0.264-0.202-0.428-0.407-0.495-0.613
		c-0.008-0.415-0.085-1.046-0.227-1.894c-1.191,1.582-2.347,2.385-3.467,2.409c-1.349,0.029-2.397-0.457-3.146-1.458
		c-0.64-0.858-0.976-2.003-1.007-3.434c-0.037-1.743,0.245-3.555,0.848-5.435c0.777-2.466,1.851-3.714,3.22-3.743
		c0.581-0.012,1.177,0.193,1.788,0.616c0.127,0.081,0.623,0.506,1.491,1.276c0.177-1.42,0.214-4.524,0.112-9.312
		c0.142-0.148,0.337-0.225,0.587-0.231c0.394-0.008,0.74,0.13,1.037,0.415C106.637,1.171,106.79,1.511,106.799,1.905z
		 M104.712,13.468c-0.02-0.913-0.245-1.728-0.675-2.446c-0.517-0.86-1.201-1.281-2.051-1.263c-1.038,0.022-1.845,1.098-2.421,3.228
		c-0.464,1.608-0.681,3.118-0.65,4.528c0.02,0.913,0.181,1.698,0.487,2.355c0.412,0.864,1.013,1.286,1.801,1.269
		c1.287-0.028,2.24-1.045,2.862-3.05C104.531,16.648,104.746,15.107,104.712,13.468z"/> <path fill="#373737" d="M117.833,18.386c0.019,0.914-0.576,1.745-1.784,2.498c-1.086,0.687-2.115,1.042-3.09,1.063
		c-2.781,0.059-4.209-1.674-4.285-5.202c-0.034-1.556,0.211-3.232,0.733-5.028c0.696-2.34,1.626-3.522,2.788-3.547
		c0.996-0.022,2.096,0.458,3.3,1.439c1.204,0.981,1.816,1.97,1.838,2.965c0.028,1.287-0.467,2.418-1.484,3.395
		c-1.018,0.976-2.18,1.479-3.487,1.507c-0.124,0.002-0.391-0.095-0.8-0.294c-0.409-0.199-0.687-0.297-0.832-0.294
		c-0.27,0.006-0.403,0.092-0.399,0.258c0.052,2.386,0.866,3.562,2.443,3.528c0.809-0.017,1.55-0.303,2.223-0.857
		c0.409-0.32,0.854-0.817,1.338-1.492c0.382-0.527,0.636-0.792,0.761-0.795C117.575,17.52,117.82,17.806,117.833,18.386z
		 M115.563,12.706c-0.016-0.726-0.238-1.401-0.666-2.025c-0.43-0.624-0.985-0.928-1.67-0.914c-0.83,0.018-1.493,0.551-1.99,1.6
		c-0.417,0.881-0.616,1.788-0.596,2.721c0.013,0.602,0.216,1.101,0.609,1.497c0.392,0.397,0.89,0.588,1.492,0.575
		c0.85-0.018,1.548-0.396,2.093-1.135C115.338,14.35,115.581,13.577,115.563,12.706z"/> <path fill="#373737" d="M128.739,1.434c0.01,0.478-0.039,1.092-0.148,1.843c-0.124,0.979-0.204,1.594-0.24,1.845
		c-0.049,0.646-0.107,2.788-0.172,6.426c-0.054,3.327-0.076,5.167-0.069,5.52c0.048,2.223,0.278,3.787,0.692,4.693
		c-0.141,0.232-0.324,0.35-0.552,0.355c-0.207,0.004-0.444-0.095-0.707-0.296c-0.264-0.202-0.428-0.406-0.495-0.612
		c-0.008-0.415-0.085-1.046-0.227-1.895c-1.192,1.582-2.347,2.386-3.467,2.41c-1.349,0.029-2.397-0.457-3.146-1.458
		c-0.64-0.858-0.976-2.003-1.007-3.435c-0.037-1.743,0.245-3.555,0.848-5.436c0.777-2.466,1.851-3.714,3.22-3.743
		c0.581-0.013,1.177,0.193,1.788,0.616c0.126,0.08,0.623,0.506,1.491,1.276c0.177-1.42,0.214-4.524,0.112-9.312
		c0.142-0.148,0.337-0.226,0.587-0.231c0.394-0.008,0.74,0.13,1.036,0.415C128.578,0.7,128.731,1.039,128.739,1.434z
		 M126.652,12.997c-0.02-0.913-0.245-1.727-0.675-2.445c-0.517-0.861-1.201-1.282-2.051-1.263c-1.038,0.022-1.845,1.098-2.421,3.228
		c-0.464,1.608-0.681,3.118-0.65,4.529c0.02,0.913,0.181,1.698,0.487,2.356c0.412,0.863,1.013,1.286,1.801,1.269
		c1.287-0.028,2.24-1.045,2.862-3.05C126.471,16.176,126.687,14.636,126.652,12.997z"/> </g> <path fill="none" stroke="#373737" stroke-width="2.5" stroke-linecap="round" d="M136.779,12.578
	c16.15,0,18.941,9.171,18.941,17.745"/> <polyline fill="none" stroke="#373737" stroke-width="2.5" stroke-linecap="round" points="148.217,24.536 155.72,30.323 
	160.773,23.416 "/> </symbol><symbol viewBox="0 0 32 32" id="icon-remove"><title>remove</title> <g> <path fill="#ffffff" d="M17.86,15.999l4.114-4.114c0.568-0.568,0.568-1.489,0.001-2.057c-0.568-0.568-1.491-0.568-2.057,0
		l-4.115,4.114L11.689,9.83c-0.568-0.568-1.489-0.568-2.057,0s-0.568,1.489,0,2.057L13.745,16l-4.114,4.114
		c-0.568,0.568-0.568,1.49,0,2.057c0.284,0.284,0.656,0.426,1.029,0.426s0.744-0.142,1.029-0.425l4.114-4.114l4.114,4.114
		c0.284,0.283,0.657,0.425,1.029,0.425s0.745-0.142,1.029-0.425c0.567-0.568,0.567-1.49,0-2.058L17.86,15.999z"/> <path fill="#ffffff" d="M16,0C7.178,0,0,7.178,0,16c0,8.823,7.178,16,16,16c8.823,0,16-7.177,16-16C32,7.178,24.823,0,16,0z
		 M16,29.092C8.782,29.092,2.909,23.219,2.909,16S8.782,2.909,16,2.909S29.092,8.782,29.092,16S23.219,29.092,16,29.092z"/> </g> </symbol><symbol viewBox="0 0 32 32" id="icon-thumbs-up"><title>thumbs-up</title> <path fill="none" stroke="#FFFFFF" stroke-width="2.5" stroke-miterlimit="10" d="M7.3,27.6l3.3,1.6c1.7,0.8,3.6,1.3,5.4,1.3h10.2
	c1.6,0,2.9-1.3,2.9-2.9L30.5,16c0-1.6-1.3-2.9-2.9-2.9h-7.3V8.7c0-2.5-1.5-5.8-3.7-7c-0.9-0.6-2.1,0.1-2.1,1.2v5.8l-7.3,8.7"/> <rect x="1.5" y="14.5" fill="none" stroke="#FFFFFF" stroke-width="2.5" stroke-linecap="square" stroke-miterlimit="10" width="5.8" height="16"/> </symbol></svg>