<?xml version="1.0" standalone="no"?>
<!DOCTYPE svg PUBLIC "-//W3C//DTD SVG 1.1//EN" "http://www.w3.org/Graphics/SVG/1.1/DTD/svg11.dtd">
<svg width="100%" height="100%" viewBox="0 0 120 67" version="1.1" xmlns="http://www.w3.org/2000/svg" xmlns:xlink="http://www.w3.org/1999/xlink" xml:space="preserve" style="fill-rule:evenodd;clip-rule:evenodd;stroke-linecap:round;stroke-linejoin:round;stroke-miterlimit:1.41421;">
    <g id="Artboard1" transform="matrix(0.967742,0,0,0.828015,-30,-39.7447)">
        <g transform="matrix(1.03333,0,0,1.20771,32.7447,68.7608)">
            <path d="M55.476,4.709L55.648,4.738L55.815,4.787L55.976,4.855L56.128,4.941L56.268,5.045L56.396,5.164L56.509,5.296L56.606,5.442L56.685,5.597L56.746,5.76L56.787,5.93L56.808,6.103L56.81,6.277L56.79,6.451L56.751,6.621L56.693,6.785L56.615,6.942L56.521,7.088L56.409,7.222L56.283,7.343L56.144,7.448L55.993,7.536L55.834,7.606L55.667,7.657L55.495,7.689L55.321,7.7L55.103,7.701L54.893,7.705L54.682,7.712L54.469,7.722L54.255,7.734L54.04,7.749L53.823,7.766L53.605,7.786L53.386,7.809L53.165,7.834L52.943,7.862L52.72,7.893L52.496,7.926L52.271,7.962L52.044,8L51.816,8.041L51.588,8.084L51.358,8.13L51.126,8.179L50.894,8.229L50.661,8.283L50.427,8.339L50.191,8.397L49.955,8.457L49.718,8.52L49.48,8.586L49.241,8.654L49.001,8.724L48.76,8.796L48.518,8.871L48.275,8.948L48.032,9.027L47.787,9.109L47.542,9.192L47.297,9.278L47.05,9.366L46.803,9.457L46.555,9.549L46.306,9.644L46.056,9.741L45.806,9.839L45.556,9.94L45.304,10.043L45.052,10.148L44.8,10.255L44.547,10.364L44.293,10.475L44.039,10.588L43.785,10.703L43.529,10.819L43.274,10.938L43.018,11.058L42.761,11.18L42.505,11.304L42.247,11.43L41.99,11.558L41.732,11.687L41.473,11.818L41.215,11.951L40.956,12.086L40.697,12.222L40.437,12.359L40.177,12.499L39.917,12.64L39.657,12.782L39.397,12.926L39.136,13.072L38.876,13.219L38.615,13.368L38.354,13.518L38.093,13.669L37.832,13.822L37.57,13.977L37.309,14.132L37.048,14.289L36.786,14.448L36.525,14.607L36.263,14.768L36.002,14.931L35.741,15.094L35.479,15.259L35.218,15.425L34.957,15.592L34.696,15.76L34.435,15.929L34.174,16.1L33.914,16.271L33.653,16.444L33.393,16.617L33.133,16.792L32.873,16.967L32.614,17.144L32.355,17.321L32.096,17.5L31.837,17.679L31.578,17.859L31.32,18.04L31.063,18.222L30.805,18.405L30.548,18.588L30.291,18.773L30.035,18.958L29.779,19.143L29.524,19.33L29.269,19.517L29.015,19.705L28.76,19.893L28.507,20.082L28.254,20.271L28.001,20.462L27.75,20.652L27.499,20.843L26.997,21.227L26.499,21.613L26.003,22L25.509,22.389L25.019,22.779L24.531,23.17L24.047,23.562L23.565,23.954L23.087,24.347L22.613,24.741L22.141,25.135L21.674,25.528L21.211,25.922L20.751,26.315L20.295,26.707L19.844,27.099L19.397,27.49L18.954,27.88L18.516,28.269L18.083,28.656L17.654,29.041L17.231,29.425L16.812,29.807L16.398,30.186L15.99,30.563L15.588,30.938L15.19,31.31L14.799,31.679L14.413,32.045L14.034,32.408L13.66,32.767L13.292,33.123L12.931,33.474L12.576,33.822L12.228,34.166L11.886,34.505L11.552,34.84L11.224,35.17L10.903,35.495L10.589,35.815L10.283,36.13L9.984,36.439L9.693,36.743L9.409,37.04L9.134,37.332L8.866,37.618L8.606,37.897L8.355,38.169L8.112,38.435L7.877,38.693L7.651,38.944L7.434,39.188L7.226,39.424L7.027,39.653L6.837,39.873L6.657,40.084L6.486,40.287L6.325,40.482L6.174,40.666L6.033,40.842L5.903,41.007L5.784,41.162L5.676,41.306L5.579,41.438L5.492,41.56L5.456,41.613L5.421,41.664L5.389,41.711L5.361,41.755L5.337,41.794L5.316,41.828L5.299,41.857L5.286,41.881L5.277,41.897L5.272,41.907L5.272,41.907L5.277,41.896L5.286,41.872L5.286,41.871L5.222,42.033L5.139,42.187L5.038,42.33L4.922,42.46L4.792,42.575L4.649,42.675L4.495,42.758L4.333,42.822L4.164,42.867L3.991,42.892L3.817,42.896L3.643,42.881L3.472,42.845L3.307,42.79L3.149,42.716L3.001,42.624L2.864,42.516L2.741,42.392L2.633,42.255L2.542,42.106L2.468,41.948L2.414,41.782L2.379,41.612L2.364,41.438L2.369,41.263L2.395,41.091L2.44,40.922L2.462,40.857L2.499,40.762L2.537,40.675L2.575,40.593L2.614,40.515L2.655,40.44L2.696,40.366L2.739,40.292L2.783,40.219L2.83,40.146L2.877,40.071L2.927,39.996L2.979,39.92L3.034,39.839L3.146,39.683L3.267,39.516L3.398,39.343L3.537,39.162L3.685,38.974L3.842,38.779L4.008,38.576L4.183,38.365L4.367,38.146L4.559,37.92L4.76,37.687L4.97,37.447L5.189,37.199L5.415,36.944L5.651,36.682L5.894,36.414L6.146,36.139L6.406,35.857L6.674,35.569L6.95,35.275L7.233,34.975L7.524,34.67L7.823,34.358L8.13,34.041L8.443,33.719L8.764,33.392L9.092,33.059L9.427,32.722L9.769,32.38L10.117,32.034L10.473,31.683L10.834,31.329L11.203,30.97L11.577,30.608L11.958,30.242L12.345,29.872L12.738,29.499L13.136,29.124L13.541,28.745L13.951,28.364L14.366,27.98L14.787,27.593L15.213,27.205L15.644,26.814L16.08,26.422L16.522,26.028L16.967,25.632L17.418,25.235L17.873,24.837L18.333,24.438L18.797,24.039L19.265,23.638L19.737,23.237L20.213,22.836L20.693,22.435L21.177,22.034L21.664,21.633L22.155,21.233L22.649,20.833L23.147,20.434L23.648,20.036L24.151,19.639L24.658,19.244L25.167,18.85L25.679,18.458L25.936,18.262L26.194,18.067L26.452,17.873L26.711,17.679L26.971,17.485L27.231,17.293L27.491,17.1L27.752,16.909L28.014,16.718L28.276,16.527L28.539,16.338L28.802,16.149L29.066,15.961L29.33,15.773L29.594,15.587L29.859,15.401L30.124,15.216L30.39,15.032L30.656,14.848L30.923,14.666L31.19,14.484L31.457,14.304L31.725,14.124L31.993,13.945L32.261,13.768L32.529,13.591L32.798,13.415L33.067,13.241L33.336,13.067L33.606,12.895L33.875,12.723L34.145,12.553L34.416,12.384L34.686,12.217L34.956,12.05L35.227,11.885L35.498,11.721L35.769,11.558L36.04,11.396L36.311,11.236L36.582,11.078L36.853,10.92L37.125,10.764L37.396,10.61L37.667,10.456L37.939,10.305L38.21,10.154L38.482,10.006L38.753,9.859L39.024,9.713L39.296,9.569L39.567,9.426L39.838,9.285L40.11,9.146L40.381,9.009L40.652,8.873L40.922,8.739L41.193,8.606L41.464,8.476L41.734,8.347L42.004,8.22L42.274,8.094L42.544,7.971L42.814,7.849L43.083,7.73L43.353,7.612L43.622,7.496L43.89,7.382L44.159,7.27L44.427,7.161L44.695,7.053L44.963,6.947L45.23,6.843L45.497,6.742L45.764,6.642L46.03,6.545L46.296,6.45L46.562,6.357L46.828,6.266L47.092,6.178L47.357,6.092L47.621,6.008L47.885,5.926L48.148,5.847L48.411,5.77L48.674,5.696L48.936,5.624L49.197,5.555L49.458,5.488L49.719,5.423L49.979,5.361L50.239,5.302L50.498,5.245L50.757,5.191L51.015,5.139L51.272,5.091L51.529,5.045L51.786,5.001L52.042,4.961L52.297,4.923L52.552,4.888L52.806,4.856L53.059,4.827L53.312,4.8L53.565,4.777L53.816,4.757L54.067,4.74L54.317,4.725L54.567,4.714L54.816,4.706L55.064,4.702L55.302,4.7L55.476,4.709Z" style="fill:rgb(113,127,134);"/>
            <g transform="matrix(0.878991,0.476839,-0.476839,0.878991,22.7302,-14.3529)">
                <path d="M3.992,41.238L10,58L25,46" style="fill:none;stroke-width:3px;stroke:rgb(113,127,134);"/>
            </g>
            <g transform="matrix(3.67324,0,0,3.67324,-282.17,-247.377)">
                <path d="M100.51,71.51C100.51,71.366 100.45,71.21 100.426,71.09C100.15,69.962 100.018,68.99 99.91,68.078C99.742,66.686 99.622,65.45 99.142,64.154C99.01,63.806 98.77,63.602 98.518,63.602C98.314,63.602 98.098,63.746 97.966,64.058C97.246,65.702 97.342,66.182 96.574,67.934C96.418,68.294 96.298,68.294 96.046,68.318C95.77,68.342 95.53,68.654 95.53,68.918C95.53,69.014 95.554,69.086 95.614,69.158C95.758,69.338 95.926,69.446 95.926,69.626C95.926,69.662 95.914,69.698 95.902,69.734C95.614,70.562 95.506,70.502 95.254,71.462C95.23,71.558 95.218,71.642 95.218,71.714C95.218,72.074 95.446,72.278 95.71,72.278C95.914,72.278 96.142,72.146 96.31,71.87C96.886,70.886 96.802,70.586 96.982,69.734C97.066,69.338 97.426,69.134 97.834,69.134L99.166,69.134C99.274,69.134 99.334,69.218 99.358,69.326C99.514,70.214 99.442,70.634 99.598,71.462C99.646,71.738 99.91,71.894 100.138,71.894C100.33,71.894 100.51,71.774 100.51,71.51ZM99.166,67.982C99.166,68.09 99.082,68.15 98.974,68.15L98.374,68.15C98.158,68.15 97.954,68.15 97.75,68.102C97.642,68.078 97.57,67.982 97.57,67.886C97.57,67.814 97.666,67.586 97.702,67.478C97.918,66.854 98.038,66.482 98.23,65.798C98.29,65.582 98.434,65.486 98.578,65.486C98.746,65.486 98.902,65.606 98.926,65.822C99.01,66.554 99.094,67.022 99.142,67.658C99.154,67.754 99.166,67.922 99.166,67.982Z" style="fill:rgb(113,127,134);fill-rule:nonzero;"/>
                <path d="M102.658,67.634C102.658,67.274 102.646,66.89 102.61,66.446C102.526,65.21 102.202,63.866 102.178,63.314C102.166,63.074 101.926,62.978 101.662,62.978C101.326,62.978 100.93,63.146 100.93,63.446C100.93,63.482 100.942,63.518 100.954,63.566C101.278,64.49 101.458,65.318 101.602,66.014C101.686,66.422 101.71,66.782 101.71,67.13C101.71,67.79 101.614,68.378 101.614,69.026C101.614,69.398 101.65,69.794 101.746,70.226C101.794,70.454 102.046,70.574 102.25,70.574C102.406,70.574 102.538,70.514 102.538,70.37C102.586,69.278 102.658,68.534 102.658,67.634Z" style="fill:rgb(113,127,134);fill-rule:nonzero;"/>
                <path d="M108.658,67.598C108.658,67.502 108.61,67.43 108.442,67.43L108.406,67.43C107.722,67.454 107.182,67.574 106.63,67.574C106.486,67.574 106.342,67.562 106.198,67.55C105.994,67.526 105.862,67.406 105.838,67.166C105.79,66.698 105.754,66.206 105.754,65.762C105.754,65.102 105.826,64.514 106.054,64.19C106.138,64.058 106.258,64.01 106.378,64.01C106.714,64.01 107.134,64.358 107.398,64.646C107.626,64.898 107.674,65.162 107.674,65.45C107.674,65.63 107.65,65.822 107.65,66.002C107.65,66.086 107.65,66.158 107.662,66.23C107.674,66.314 107.71,66.35 107.77,66.35C107.998,66.35 108.562,65.75 108.55,65.57L108.55,65.558C108.334,64.31 107.65,63.53 106.366,63.158C106.222,63.122 106.078,63.098 105.934,63.098C105.574,63.098 105.25,63.254 105.19,63.758C105.082,64.646 105.058,65.282 105.058,66.002C105.058,66.41 105.07,66.83 105.07,67.334C105.07,67.478 104.95,67.598 104.806,67.598L104.722,67.598C104.482,67.598 104.23,67.574 104.002,67.574C103.894,67.574 103.786,67.586 103.702,67.598C103.582,67.622 103.522,67.73 103.522,67.862C103.522,68.03 103.618,68.234 103.774,68.342C103.942,68.45 104.11,68.486 104.29,68.486C104.494,68.486 104.698,68.438 104.878,68.414L104.914,68.414C105.082,68.414 105.178,68.618 105.19,68.798C105.226,69.23 105.202,69.578 105.334,70.046C105.478,70.55 105.838,70.886 106.474,70.886L106.558,70.886C106.714,70.874 106.81,70.622 106.81,70.394C106.81,70.202 106.738,70.01 106.594,70.022L106.546,70.022C106.114,70.022 105.886,69.326 105.886,68.786L105.886,68.654C105.898,68.486 106.078,68.414 106.246,68.39C106.978,68.282 108.118,68.342 108.502,67.934C108.574,67.862 108.658,67.706 108.658,67.598Z" style="fill:rgb(113,127,134);fill-rule:nonzero;"/>
            </g>
        </g>
    </g>
</svg>
