<?xml version="1.0" standalone="no"?><!DOCTYPE svg PUBLIC "-//W3C//DTD SVG 1.1//EN" "http://www.w3.org/Graphics/SVG/1.1/DTD/svg11.dtd"><svg width="100%" height="100%" viewBox="0 0 24 24" version="1.1" xmlns="http://www.w3.org/2000/svg" xmlns:xlink="http://www.w3.org/1999/xlink" xml:space="preserve" style="fill-rule:evenodd;clip-rule:evenodd;stroke-linecap:round;stroke-linejoin:round;stroke-miterlimit:1.41421;"><g id="v"><path id="XMLID_8_" d="M5.819,16.27l-4.802,4.802l1.894,1.894l4.802,-4.802l-1.894,-1.894Z" style="fill:none;stroke-width:0.96px;stroke:#60b9b3;"/><path id="XMLID_7_" d="M16.35,1.952l-6.696,6.695l5.749,5.749l6.696,-6.695l-5.749,-5.749Z" style="fill:none;stroke-width:0.96px;stroke:#60b9b3;"/><path id="XMLID_6_" d="M16.479,2.148c0.765,-0.861 2.583,-0.287 4.113,1.243c1.53,1.531 2.104,3.348 1.243,4.113" style="fill:none;stroke-width:0.96px;stroke:#60b9b3;"/><path id="XMLID_5_" d="M10.548,23l1.914,-6.696l1.913,6.696" style="fill:none;stroke-width:0.96px;stroke-miterlimit:1;stroke:#60b9b3;"/><path id="XMLID_4_" d="M10.548,16.304c0,-1.052 0.861,-1.913 1.914,-1.913c0.286,0 0.573,0.096 0.765,0.192l1.148,-1.148l-3.827,-3.826l-5.739,5.739l3.826,3.826l2.105,-2.104c-0.096,-0.192 -0.192,-0.479 -0.192,-0.766Z" style="fill:none;stroke-width:0.96px;stroke:#60b9b3;"/><circle id="XMLID_3_" cx="12.462" cy="16.304" r="1.913" style="fill:none;stroke-width:0.96px;stroke:#60b9b3;"/><path id="XMLID_2_" d="M15.331,1l7.652,7.652" style="fill:none;stroke-width:0.96px;stroke:#60b9b3;"/></g></svg>