<?xml version="1.0" standalone="no"?><!DOCTYPE svg PUBLIC "-//W3C//DTD SVG 1.1//EN" "http://www.w3.org/Graphics/SVG/1.1/DTD/svg11.dtd"><svg width="100%" height="100%" viewBox="0 0 24 24" version="1.1" xmlns="http://www.w3.org/2000/svg" xmlns:xlink="http://www.w3.org/1999/xlink" xml:space="preserve" style="fill-rule:evenodd;clip-rule:evenodd;stroke-linejoin:round;stroke-miterlimit:1.41421;"><g><path d="M12,24c-5.238,0 -9.5,-3.364 -9.5,-7.5c0,-2.914 4.928,-8.125 5.138,-8.345c0.094,-0.099 0.225,-0.155 0.362,-0.155l8,0c0.137,0 0.268,0.056 0.362,0.155c0.21,0.22 5.138,5.431 5.138,8.345c0,4.136 -4.262,7.5 -9.5,7.5ZM8.216,9c-1.443,1.548 -4.716,5.484 -4.716,7.5c0,3.584 3.813,6.5 8.5,6.5c4.687,0 8.5,-2.916 8.5,-6.5c0,-2.018 -3.273,-5.953 -4.716,-7.5l-7.568,0Z" style="fill:#e44e44;fill-rule:nonzero;"/><path d="M16,7l-8,0c-0.276,0 -0.5,-0.223 -0.5,-0.5c0,-0.277 0.224,-0.5 0.5,-0.5l8,0c0.276,0 0.5,0.224 0.5,0.5c0,0.276 -0.224,0.5 -0.5,0.5Z" style="fill:#e44e44;fill-rule:nonzero;"/><path d="M16,5l-8,0c-0.189,0 -0.362,-0.107 -0.447,-0.276l-2,-4c-0.097,-0.193 -0.059,-0.425 0.093,-0.577c0.152,-0.152 0.384,-0.191 0.578,-0.094l3.678,1.839l1.745,-1.745c0.195,-0.195 0.512,-0.195 0.707,0l1.745,1.745l3.678,-1.839c0.192,-0.097 0.426,-0.059 0.577,0.094c0.152,0.152 0.19,0.385 0.094,0.577l-2,4c-0.086,0.169 -0.259,0.276 -0.448,0.276ZM8.309,4l7.383,0l1.19,-2.382l-2.658,1.329c-0.192,0.097 -0.426,0.059 -0.577,-0.094l-1.647,-1.646l-1.646,1.646c-0.152,0.152 -0.384,0.19 -0.577,0.094l-2.659,-1.329l1.191,2.382Z" style="fill:#e44e44;fill-rule:nonzero;"/><path d="M11.998,20c-1.333,0 -2.406,-0.8 -2.496,-1.862c-0.023,-0.275 0.181,-0.517 0.456,-0.54c0.252,-0.034 0.517,0.18 0.54,0.456c0.044,0.521 0.717,0.946 1.5,0.946c0.814,0 1.502,-0.458 1.502,-1c0,-0.488 -0.474,-0.802 -1.49,-0.989l-0.11,-0.021c-1.622,-0.299 -2.4,-0.963 -2.4,-1.99c0,-1.103 1.122,-2 2.502,-2c1.333,0 2.406,0.8 2.496,1.861c0.023,0.275 -0.181,0.518 -0.456,0.541c-0.257,0.026 -0.518,-0.18 -0.54,-0.456c-0.044,-0.521 -0.717,-0.946 -1.5,-0.946c-0.814,0 -1.502,0.458 -1.502,1c0,0.488 0.475,0.802 1.494,0.99l0.109,0.021c1.62,0.299 2.396,0.963 2.396,1.99c0.001,1.102 -1.121,1.999 -2.501,1.999Z" style="fill:#e44e44;fill-rule:nonzero;"/><path d="M12,21c-0.276,0 -0.5,-0.224 -0.5,-0.5l0,-8c0,-0.276 0.224,-0.5 0.5,-0.5c0.276,0 0.5,0.224 0.5,0.5l0,8c0,0.277 -0.224,0.5 -0.5,0.5Z" style="fill:#e44e44;fill-rule:nonzero;"/></g></svg>