<?xml version="1.0" standalone="no"?><!DOCTYPE svg PUBLIC "-//W3C//DTD SVG 1.1//EN" "http://www.w3.org/Graphics/SVG/1.1/DTD/svg11.dtd"><svg width="100%" height="100%" viewBox="0 0 24 24" version="1.1" xmlns="http://www.w3.org/2000/svg" xmlns:xlink="http://www.w3.org/1999/xlink" xml:space="preserve" style="fill-rule:evenodd;clip-rule:evenodd;stroke-linecap:round;stroke-linejoin:round;stroke-miterlimit:1.41421;"><g id="XMLID_1_"><path id="XMLID_7_" d="M5.304,13.435l-1.913,1.913l-1.913,-1.913l0,9.565l3.826,0l0,-9.565Z" style="fill:none;stroke-width:0.96px;stroke:#e44e44;"/><path id="XMLID_6_" d="M11.043,11.522l-1.913,-1.913l-1.913,1.913l0,11.478l3.826,0l0,-11.478Z" style="fill:none;stroke-width:0.96px;stroke:#e44e44;"/><path id="XMLID_5_" d="M16.783,9.609l-1.913,-1.913l-1.913,1.913l0,13.391l3.826,0l0,-13.391Z" style="fill:none;stroke-width:0.96px;stroke:#e44e44;"/><path id="XMLID_4_" d="M22.522,6.739l-0.957,-0.956l-0.956,0l-1.913,1.913l0,15.304l3.826,0l0,-16.261Z" style="fill:none;stroke-width:0.96px;stroke:#e44e44;"/><path id="XMLID_3_" d="M21.087,2.435l-4.304,4.304l-1.913,-1.913l-3.827,3.826l-1.913,-1.913l-5.739,5.739l-1.913,-1.913" style="fill:none;stroke-width:0.96px;stroke:#e44e44;"/><path id="XMLID_2_" d="M22.522,1l0,2.87l-2.87,-2.87l2.87,0Z" style="fill:none;stroke-width:0.96px;stroke:#e44e44;"/></g></svg>