<?xml version="1.0" encoding="utf-8"?>
<!-- Generator: Adobe Illustrator 16.0.3, SVG Export Plug-In . SVG Version: 6.00 Build 0)  -->
<!DOCTYPE svg PUBLIC "-//W3C//DTD SVG 1.1//EN" "http://www.w3.org/Graphics/SVG/1.1/DTD/svg11.dtd">
<svg version="1.1" xmlns="http://www.w3.org/2000/svg" xmlns:xlink="http://www.w3.org/1999/xlink" x="0px" y="0px" width="24px"
	 height="24px" viewBox="0 0 24 24" enable-background="new 0 0 24 24" xml:space="preserve">

	 <style>


		 line {
		   stroke: #000;
		}

		.home line {
		   stroke: #fff;
		}

	 </style>

<g id="Outline_Icons">
	<g>
		<g>
			<path fill="none" stroke="#000000" stroke-linecap="round" stroke-linejoin="round" stroke-miterlimit="10" d="M14.111,17.027
				c0.807,0.807,2.111,0.805,2.917,0.001c0.805-0.805,0.807-2.11,0-2.917c-0.805-0.804-2.111-0.804-2.917,0
				c-0.806,0.805-2.11,0.807-2.917,0c-0.803-0.804-0.805-2.111,0-2.917s2.113-0.804,2.917,0"/>

				<line fill="none" stroke="#000000" stroke-linecap="round" stroke-linejoin="round" stroke-miterlimit="10" x1="17.028" y1="17.028" x2="18" y2="18"/>

				<line fill="none" stroke="#000000" stroke-linecap="round" stroke-linejoin="round" stroke-miterlimit="10" x1="10.222" y1="10.223" x2="11.194" y2="11.194"/>
		</g>
		<g>
			<polygon fill="none" stroke="#000000" stroke-linejoin="round" stroke-miterlimit="10" points="23.5,15.016 15.015,23.5
				2.516,11 2.508,2.506 11,2.506 			"/>
			<circle fill="none" stroke="#000000" stroke-linejoin="round" stroke-miterlimit="10" cx="7.508" cy="7.506" r="2"/>
		</g>

			<line fill="none" stroke="#000000" stroke-linecap="round" stroke-linejoin="round" stroke-miterlimit="10" x1="0.5" y1="0.5" x2="7" y2="7"/>
	</g>
</g>
<g id="Invisible_Shape">
	<rect fill="none" width="24" height="24"/>
</g>
</svg>
