<?xml version="1.0" standalone="no"?>
<!DOCTYPE svg PUBLIC "-//W3C//DTD SVG 1.1//EN" "http://www.w3.org/Graphics/SVG/1.1/DTD/svg11.dtd">
<svg width="100%" height="100%" viewBox="0 0 64 52" version="1.1" xmlns="http://www.w3.org/2000/svg" xmlns:xlink="http://www.w3.org/1999/xlink" xml:space="preserve" style="fill-rule:evenodd;clip-rule:evenodd;stroke-linejoin:round;stroke-miterlimit:1.41421;">
    <g transform="matrix(1.05129,0,0,1.05129,3.55641,-6.35673)">
        <g transform="matrix(0.831087,0,0,0.831087,-231.564,-188.062)">
            <path d="M307.36,278.31C307.525,281.98 306.038,285.538 303.31,288C300.582,290.411 297.039,291.698 293.4,291.6C288.14,291.6 283.933,290.023 280.78,286.87C277.627,283.717 276.033,278.987 276,272.68C275.898,267.335 276.793,262.017 278.64,257C280.139,252.972 282.269,249.208 284.95,245.85C287.155,243.093 289.776,240.698 292.72,238.75C294.98,237.249 297.398,236.002 299.93,235.03L306.69,244.27C302.589,246.295 298.886,249.042 295.76,252.38C292.628,255.818 290.969,260.352 291.14,265C292.029,264.823 292.934,264.745 293.84,264.77C297.334,264.787 300.688,266.161 303.19,268.6C305.934,271.068 307.46,274.621 307.36,278.31L307.36,278.31Z" style="fill:black;fill-rule:nonzero;"/>
        </g>
        <g transform="matrix(0.831087,0,0,0.831087,-231.564,-188.062)">
            <path d="M346.36,278.31C346.525,281.98 345.038,285.538 342.31,288C339.582,290.411 336.039,291.698 332.4,291.6C327.14,291.6 322.933,290.023 319.78,286.87C316.627,283.717 315.033,278.987 315,272.68C314.898,267.335 315.793,262.017 317.64,257C319.138,252.972 321.268,249.208 323.95,245.85C326.155,243.093 328.776,240.698 331.72,238.75C333.98,237.249 336.398,236.002 338.93,235.03L345.69,244.27C341.593,246.296 337.893,249.043 334.77,252.38C331.635,255.817 329.971,260.351 330.14,265C331.029,264.823 331.934,264.745 332.84,264.77C336.334,264.787 339.688,266.161 342.19,268.6C344.934,271.068 346.46,274.621 346.36,278.31L346.36,278.31Z" style="fill:black;fill-rule:nonzero;"/>
        </g>
    </g>
</svg>
