<svg xmlns:sketch="http://www.bohemiancoding.com/sketch/ns" xmlns:dc="http://purl.org/dc/elements/1.1/" xmlns:cc="http://creativecommons.org/ns#" xmlns:rdf="http://www.w3.org/1999/02/22-rdf-syntax-ns#" xmlns:svg="http://www.w3.org/2000/svg" xmlns="http://www.w3.org/2000/svg" xmlns:sodipodi="http://sodipodi.sourceforge.net/DTD/sodipodi-0.dtd" xmlns:inkscape="http://www.inkscape.org/namespaces/inkscape"><symbol viewBox="0 0 48 48" id="icon-cancel"><title>cancel</title> <g transform="matrix(1.91304,0,0,1.91304,1.04348,1.04348)"> <circle cx="12" cy="12" r="11.5" style="fill:none;stroke-width:1px;stroke:rgb(227,79,67);"/> <g transform="matrix(1,0,0,1,7,7)"> <path d="M0.5,0.5L9.5,9.5" style="fill:none;stroke-width:1px;stroke:rgb(227,79,67);"/> </g> <g transform="matrix(1,0,0,1,7,7)"> <path d="M9.5,0.5L0.5,9.5" style="fill:none;stroke-width:1px;stroke:rgb(227,79,67);"/> </g> </g> </symbol><symbol viewBox="-0.118 -0.118 14.749 14.735" id="icon-external"><title>external</title> <g> <polyline fill="none" stroke="#FFFFFF" stroke-width="1.7352" stroke-linecap="round" stroke-linejoin="round" stroke-miterlimit="10" points="
		5.956,3.339 0.75,3.339 0.75,13.75 11.161,13.75 11.161,8.572 	"/> <line fill="none" stroke="#FFFFFF" stroke-width="1.7352" stroke-linecap="round" stroke-linejoin="round" stroke-miterlimit="10" x1="3.353" y1="11.161" x2="13.764" y2="0.75"/> <polyline fill="none" stroke="#FFFFFF" stroke-width="1.7352" stroke-linecap="round" stroke-linejoin="round" stroke-miterlimit="10" points="
		8.558,0.75 13.764,0.75 13.764,5.956 	"/> </g> </symbol><symbol viewBox="0 0 48 48" id="icon-feature-accurate-affiliate-tracking"><title>feature-accurate-affiliate-tracking</title> <clipPath id="feature-accurate-affiliate-tracking-_clip1"> <rect id="feature-accurate-affiliate-tracking-Artboard1" x="0" y="0" width="48" height="48"/> </clipPath> <g clip-path="url(#feature-accurate-affiliate-tracking-_clip1)"> <g transform="matrix(2.08696,0,0,2.08696,-1.04348,-1.04348)"> <g id="feature-accurate-affiliate-tracking-XMLID_8_" transform="matrix(0.916667,0,0,0.916667,1,1)"> <path d="M7,4.2C8.6,3.2 10.5,2.5 12.5,2.5C18,2.5 22.5,7 22.5,12.5C22.5,18 18,22.5 12.5,22.5C7,22.5 2.5,18 2.5,12.5C2.5,10.5 3.1,8.6 4.2,7" style="fill:none;stroke-width:1px;stroke:rgb(96,185,179);"/> </g> <g id="feature-accurate-affiliate-tracking-XMLID_7_" transform="matrix(0.916667,0,0,0.916667,1,1)"> <circle cx="12.5" cy="12.5" r="2" style="fill:none;stroke-width:1px;stroke:rgb(96,185,179);"/> </g> <g id="feature-accurate-affiliate-tracking-XMLID_6_" transform="matrix(0.916667,0,0,0.916667,1,1)"> <path d="M4.5,4.5L2.5,4.5L0.5,2.5L2.5,2.5L2.5,0.5L4.5,2.5L4.5,4.5L12.5,12.5" style="fill:none;stroke-width:1px;stroke:rgb(96,185,179);"/> </g> <g id="feature-accurate-affiliate-tracking-XMLID_5_" transform="matrix(0.916667,0,0,0.916667,1,1)"> <path d="M9.9,7.1C10.7,6.7 11.6,6.5 12.5,6.5C15.8,6.5 18.5,9.2 18.5,12.5C18.5,15.8 15.8,18.5 12.5,18.5C9.2,18.5 6.5,15.8 6.5,12.5C6.5,11.6 6.7,10.7 7.1,9.9" style="fill:none;stroke-width:1px;stroke:rgb(96,185,179);"/> </g> <g id="feature-accurate-affiliate-tracking-XMLID_3_" transform="matrix(0.916667,0,0,0.916667,1,1)"> <path d="M23.5,23.5L20.5,18.5" style="fill:none;stroke-width:1px;stroke:rgb(96,185,179);"/> </g> <g id="feature-accurate-affiliate-tracking-XMLID_2_" transform="matrix(0.916667,0,0,0.916667,1,1)"> <path d="M1.5,23.5L4.5,18.5" style="fill:none;stroke-width:1px;stroke:rgb(96,185,179);"/> </g> </g> </g> </symbol><symbol viewBox="0 0 48 48" id="icon-feature-affiliate-approval"><title>feature-affiliate-approval</title> <clipPath id="feature-affiliate-approval-_clip1"> <rect id="feature-affiliate-approval-Artboard1" x="0" y="0" width="48" height="48"/> </clipPath> <g clip-path="url(#feature-affiliate-approval-_clip1)"> <g id="feature-affiliate-approval-XMLID_1_" transform="matrix(1.91304,0,1.65348e-33,1.91304,3.91304,1.04348)"> <path id="feature-affiliate-approval-XMLID_7_" d="M10.5,23.5C14.3,22.3 20.5,18.5 20.5,14.5C20.5,10.5 20.5,3.5 20.5,3.5L10.5,0.5L0.5,3.5C0.5,3.5 0.5,10.5 0.5,14.5C0.5,18.5 6.8,22.3 10.5,23.5Z" style="fill:none;stroke-width:1px;stroke:rgb(96,186,178);"/> <g id="feature-affiliate-approval-XMLID_2_"> <circle id="feature-affiliate-approval-XMLID_6_" cx="10.5" cy="11.5" r="5" style="fill:none;stroke-width:1px;stroke:rgb(96,186,178);"/> <path id="feature-affiliate-approval-XMLID_4_" d="M7.5,11.5L9.5,13.5L13.5,9.5" style="fill:none;stroke-width:1px;stroke:rgb(96,186,178);"/> </g> </g> </g> </symbol><symbol viewBox="0 0 48 48" id="icon-feature-affiliate-area"><title>feature-affiliate-area</title> <clipPath id="feature-affiliate-area-_clip1"> <rect id="feature-affiliate-area-Artboard1" x="0" y="0" width="48" height="48"/> </clipPath> <g clip-path="url(#feature-affiliate-area-_clip1)"> <g id="feature-affiliate-area-affiliate area" transform="matrix(1.91304,0,0,1.91304,-38.282,-14.1709)"> <g id="feature-affiliate-area-XMLID_6_" transform="matrix(1,0,0,1,20.5565,7.95296)"> <path d="M20.5,23.5L3.5,23.5C1.8,23.5 0.5,22.2 0.5,20.5L0.5,3.5C0.5,1.8 1.8,0.5 3.5,0.5L20.5,0.5C22.2,0.5 23.5,1.8 23.5,3.5L23.5,20.5C23.5,22.2 22.2,23.5 20.5,23.5Z" style="fill:none;stroke-width:1px;stroke:rgb(96,186,178);"/> </g> <g id="feature-affiliate-area-XMLID_5_" transform="matrix(1,0,0,1,20.5565,7.95296)"> <path d="M0.5,4.5L23.5,4.5" style="fill:none;stroke-width:1px;stroke:rgb(96,186,178);"/> </g> <g> <g id="feature-affiliate-area-XMLID_2_" transform="matrix(1.45915,0,0,1.45915,17.1129,6.80509)"> <circle cx="7.5" cy="2.5" r="0.5" style="fill:rgb(96,186,178);"/> </g> <g id="feature-affiliate-area-XMLID_2_1" transform="matrix(1.45915,0,0,1.45915,15.1129,6.80509)"> <circle cx="7.5" cy="2.5" r="0.5" style="fill:rgb(96,186,178);"/> </g> <g id="feature-affiliate-area-XMLID_2_2" transform="matrix(1.45915,0,0,1.45915,13.103,6.80509)"> <circle cx="7.5" cy="2.5" r="0.5" style="fill:rgb(96,186,178);"/> </g> </g> <g transform="matrix(1.2427,0,0,1.2427,13.746,4.47836)"> <rect x="16.1" y="11.5" width="5.5" height="2.7" style="fill:none;stroke-width:0.8px;stroke:rgb(96,186,178);"/> </g> <g transform="matrix(1.2427,0,0,1.2427,13.0964,4.5066)"> <path d="M6.406,14.2L9.2,14.2L9.2,11.1L14.8,11.1L14.8,14.2L24.914,14.2" style="fill:none;stroke-width:0.8px;stroke:rgb(96,186,178);"/> </g> </g> </g> </symbol><symbol viewBox="0 0 23 22" id="icon-feature-affiliate-coupon-tracking"><title>feature-affiliate-coupon-tracking</title> <g id="feature-affiliate-coupon-tracking-Outline_Icons" transform="matrix(1,0,0,1,0.46,-1.77636e-15)"> <circle cx="3.25" cy="17.42" r="2.75" style="fill:none;stroke-width:1px;stroke:rgb(96,186,178);"/> <circle cx="3.25" cy="4.58" r="2.75" style="fill:none;stroke-width:1px;stroke:rgb(96,186,178);"/> <g> <path d="M9.67,16.04L10.13,16.04" style="fill:none;stroke-width:1px;stroke:rgb(96,186,178);"/> <path d="M12.13,16.04L20.12,16.04" style="fill:none;stroke-width:1px;stroke-dasharray:1.09,2.18;stroke:rgb(96,186,178);"/> <path d="M21.12,16.04L21.58,16.04" style="fill:none;stroke-width:1px;stroke:rgb(96,186,178);"/> </g> <path d="M10.04,14.21C7.544,11.618 6.115,8.178 6.04,4.58" style="fill:none;stroke-width:1px;stroke:rgb(96,186,178);"/> <path d="M6.04,17.42C6.04,10.24 12.92,1.6 21.58,5.58L7.7,11L16.04,14.21" style="fill:none;stroke-width:1px;stroke:rgb(96,186,178);"/> </g> </symbol><symbol viewBox="0 0 48 48" id="icon-feature-affiliate-management"><title>feature-affiliate-management</title> <clipPath id="feature-affiliate-management-_clip1"> <rect id="feature-affiliate-management-Artboard1" x="0" y="0" width="48" height="48"/> </clipPath> <g clip-path="url(#feature-affiliate-management-_clip1)"> <g transform="matrix(1,0,0,1,18.6191,11.8393)"> <g transform="matrix(1.91304,0,0,1.91304,-17.6191,-10.7958)"> <rect x="0.5" y="0.5" width="22" height="23" style="fill:none;stroke-width:1px;stroke:rgb(96,186,178);"/> </g> <g transform="matrix(1.91304,0,0,1.91304,-17.6191,-10.7958)"> <path d="M11.5,14.5L11.5,7.5" style="fill:none;stroke-width:1px;stroke:rgb(96,186,178);"/> </g> <g transform="matrix(1.91304,0,0,1.91304,-17.6191,-10.7958)"> <path d="M17.5,14.5L17.5,12.5" style="fill:none;stroke-width:1px;stroke:rgb(96,186,178);"/> </g> <g transform="matrix(1.91304,0,0,1.91304,-17.6191,-10.7958)"> <path d="M5.5,8.5L5.5,3.5" style="fill:none;stroke-width:1px;stroke:rgb(96,186,178);"/> </g> <g transform="matrix(1.91304,0,0,1.91304,-17.6191,-10.7958)"> <path d="M5.5,14.5L5.5,10.5" style="fill:none;stroke-width:1px;stroke:rgb(96,186,178);"/> </g> <g transform="matrix(1.91304,0,0,1.91304,-17.6191,-10.7958)"> <path d="M17.5,10.5L17.5,3.5" style="fill:none;stroke-width:1px;stroke:rgb(96,186,178);"/> </g> <g transform="matrix(1.91304,0,0,1.91304,-17.6191,-10.7958)"> <path d="M11.5,5.5L11.5,3.5" style="fill:none;stroke-width:1px;stroke:rgb(96,186,178);"/> </g> <g transform="matrix(1.91304,0,0,1.91304,-17.6191,-10.7958)"> <rect x="15.5" y="10.5" width="4" height="2" style="fill:none;stroke-width:1px;stroke:rgb(96,186,178);"/> </g> <g transform="matrix(1.91304,0,0,1.91304,-17.6191,-10.7958)"> <rect x="9.5" y="5.5" width="4" height="2" style="fill:none;stroke-width:1px;stroke:rgb(96,186,178);"/> </g> <g transform="matrix(1.91304,0,0,1.91304,-17.6191,-10.7958)"> <rect x="3.5" y="8.5" width="4" height="2" style="fill:none;stroke-width:1px;stroke:rgb(96,186,178);"/> </g> <g transform="matrix(1.91304,0,0,1.91304,-17.6191,-10.7958)"> <circle cx="17.5" cy="19" r="1.5" style="fill:none;stroke-width:1px;stroke:rgb(96,186,178);"/> </g> <g transform="matrix(1.91304,0,0,1.91304,-17.6191,-10.7958)"> <circle cx="11.5" cy="19" r="1.5" style="fill:none;stroke-width:1px;stroke:rgb(96,186,178);"/> </g> <g transform="matrix(1.91304,0,0,1.91304,-17.6191,-10.7958)"> <circle cx="5.5" cy="19" r="1.5" style="fill:none;stroke-width:1px;stroke:rgb(96,186,178);"/> </g> </g> </g> </symbol><symbol viewBox="0 0 23.04 23.04" id="icon-feature-affiliate-tracking"><title>feature-affiliate-tracking</title>  <g> <circle cx="8.65" cy="14.4" r="0.48" style="fill: none;stroke: #60B9B3;stroke-linecap: round;stroke-linejoin: round"/> <circle cx="8.65" cy="14.4" r="2.4" style="fill: none;stroke: #60B9B3;stroke-linecap: round;stroke-linejoin: round"/> <circle cx="8.65" cy="14.4" r="5.27" style="fill: none;stroke: #60B9B3;stroke-linecap: round;stroke-linejoin: round"/> <circle cx="8.65" cy="14.4" r="8.15" style="fill: none;stroke: #60B9B3;stroke-linecap: round;stroke-linejoin: round"/> <line x1="8.65" y1="14.4" x2="20.15" y2="2.9" style="fill: none;stroke: #60B9B3;stroke-linecap: round;stroke-linejoin: round"/> <path d="M20.63,3.38H23S20.63,11,16.79,7.21,20.63,1,20.63,1v2.4Z" transform="translate(-0.48 -0.48)" style="fill: none;stroke: #60B9B3;stroke-linecap: round;stroke-linejoin: round"/> <line x1="17.75" y1="5.29" x2="17.75" y2="1.55" style="fill: none;stroke: #60B9B3;stroke-linejoin: round"/> <line x1="0.5" y1="22.54" x2="2.9" y2="20.15" style="fill: none;stroke: #60B9B3;stroke-linecap: round;stroke-linejoin: round"/> <line x1="14.4" y1="20.15" x2="16.79" y2="22.54" style="fill: none;stroke: #60B9B3;stroke-linecap: round;stroke-linejoin: round"/> </g> <g id="feature-affiliate-tracking-invisible_shape" data-name="invisible shape"> <rect x="0.02" y="0.02" width="23" height="23" style="fill: none"/> </g> </symbol><symbol viewBox="0 0 48 48" id="icon-feature-automatic-affiliate-creation"><title>feature-automatic-affiliate-creation</title> <clipPath id="feature-automatic-affiliate-creation-_clip1"> <rect id="feature-automatic-affiliate-creation-Artboard1" x="0" y="0" width="48" height="48"/> </clipPath> <g clip-path="url(#feature-automatic-affiliate-creation-_clip1)"> <g transform="matrix(1.91332,0,0,1.91332,1.03688,1.61411)"> <g> <path d="M23.5,13.8L20.1,10L17.4,14.4" style="fill:none;stroke-width:1px;stroke:rgb(96,186,178);"/> <path d="M20,10.1C21.3,15.4 18.2,20.9 12.9,22.2" style="fill:none;stroke-width:1px;stroke:rgb(96,186,178);"/> </g> <g> <path d="M5.9,0.5L4,5.2L9.1,5.7" style="fill:none;stroke-width:1px;stroke:rgb(96,186,178);"/> <path d="M4,5.2C8.2,1.7 14.5,2 18.1,6.2" style="fill:none;stroke-width:1px;stroke:rgb(96,186,178);"/> </g> <g> <path d="M2.2,22.9L7.3,22.2L5.1,17.6" style="fill:none;stroke-width:1px;stroke:rgb(96,186,178);"/> <path d="M7.2,22.2C2,20.4 -0.8,14.7 1.1,9.6" style="fill:none;stroke-width:1px;stroke:rgb(96,186,178);"/> </g> </g> </g> </symbol><symbol viewBox="0 0 23 22" id="icon-feature-coupon-tracking"><title>feature-coupon-tracking</title> <g id="feature-coupon-tracking-Outline_Icons" transform="matrix(1,0,0,1,0.46,-1.77636e-15)"> <circle cx="3.25" cy="17.42" r="2.75" style="fill:none;stroke-width:1px;stroke:rgb(96,186,178);"/> <circle cx="3.25" cy="4.58" r="2.75" style="fill:none;stroke-width:1px;stroke:rgb(96,186,178);"/> <g> <path d="M9.67,16.04L10.13,16.04" style="fill:none;stroke-width:1px;stroke:rgb(96,186,178);"/> <path d="M12.13,16.04L20.12,16.04" style="fill:none;stroke-width:1px;stroke-dasharray:1.09,2.18;stroke:rgb(96,186,178);"/> <path d="M21.12,16.04L21.58,16.04" style="fill:none;stroke-width:1px;stroke:rgb(96,186,178);"/> </g> <path d="M10.04,14.21C7.544,11.618 6.115,8.178 6.04,4.58" style="fill:none;stroke-width:1px;stroke:rgb(96,186,178);"/> <path d="M6.04,17.42C6.04,10.24 12.92,1.6 21.58,5.58L7.7,11L16.04,14.21" style="fill:none;stroke-width:1px;stroke:rgb(96,186,178);"/> </g> </symbol><symbol viewBox="0 0 24 24" id="icon-feature-course-specific-rates"><title>feature-course-specific-rates</title> <g transform="matrix(0.956522,0,0,0.956522,0.521739,0.521739)"> <g transform="matrix(0.850649,0,0,0.850649,3.50974,3.50974)"> <circle cx="16.5" cy="16.5" r="7" style="fill:none;stroke-width:1px;stroke:rgb(96,186,178);"/> <g> <path d="M14.9,18.1C14.9,19 15.6,19.7 16.5,19.7C17.4,19.7 18.1,19 18.1,18.1C18.1,17.2 17.4,16.5 16.5,16.5C15.6,16.5 14.9,15.8 14.9,14.9C14.9,14 15.6,13.3 16.5,13.3C17.4,13.3 18.1,14 18.1,14.9" style="fill:none;stroke-width:1px;stroke-linecap:round;stroke:rgb(96,186,178);"/> <path d="M16.5,19.7L16.5,20.8" style="fill:none;stroke-width:1px;stroke-linecap:round;stroke:rgb(96,186,178);"/> <path d="M16.5,12.1L16.5,13.2" style="fill:none;stroke-width:1px;stroke-linecap:round;stroke:rgb(96,186,178);"/> </g> </g> <g> <g transform="matrix(1.53333,0,0,1.53333,-6.4,-6.81818)"> <path d="M12.5,11L19.5,8L12.5,5L5.5,8L12.5,11Z" style="fill:none;stroke-width:0.65px;stroke-linecap:round;stroke:rgb(96,186,178);"/> </g> <g transform="matrix(1.53333,0,0,1.53333,-6.4,-6.81818)"> <path d="M8.5,9.5L8.5,12.318L10.594,13.365" style="fill:none;stroke-width:0.65px;stroke-linecap:round;stroke:rgb(96,186,178);"/> </g> <g transform="matrix(1.53333,0,0,1.53333,-6.4,-6.81818)"> <path d="M16.5,10.85L16.5,9.5" style="fill:none;stroke-width:0.65px;stroke-linecap:round;stroke:rgb(96,186,178);"/> </g> <g transform="matrix(1.53333,0,0,1.53333,-6.4,-6.81818)"> <path d="M5.5,8L5.5,11.5" style="fill:none;stroke-width:0.65px;stroke-linecap:round;stroke:rgb(96,186,178);"/> </g> <g transform="matrix(1.53333,0,0,1.53333,-6.4,-6.81818)"> <path d="M5.5,11.5L4.5,14.5L6.5,14.5L5.5,11.5" style="fill:none;stroke-width:0.65px;stroke-linecap:round;stroke:rgb(96,186,178);"/> </g> </g> </g> </symbol><symbol viewBox="0 0 48 48" id="icon-feature-creatives"><title>feature-creatives</title> <clipPath id="feature-creatives-_clip1"> <rect id="feature-creatives-Artboard1" x="0" y="0" width="48" height="48"/> </clipPath> <g clip-path="url(#feature-creatives-_clip1)"> <g id="feature-creatives-creatives" transform="matrix(1.91304,0,-4.93038e-32,1.91304,1.82609,1.04348)"> <path d="M14.5,12.5L15.5,12.5C17.2,12.5 18.5,13.8 18.5,15.5C18.5,17.2 17.2,18.5 15.5,18.5L14.5,18.5" style="fill:none;stroke-width:1px;stroke:rgb(96,186,178);"/> <path d="M14.5,21.5C14.5,22.6 13.6,23.5 12.5,23.5L3.5,23.5C2.4,23.5 1.5,22.6 1.5,21.5L1.5,10.5L14.5,10.5L14.5,21.5Z" style="fill:none;stroke-width:1px;stroke:rgb(96,186,178);"/> <path d="M14.4,0.6C15.4,2.2 13.9,3 13.5,3.9C13.1,4.8 13.5,5.7 14.4,6C17.3,7.2 18.2,1.5 14.4,0.6Z" style="fill:none;stroke-width:1px;stroke:rgb(96,186,178);"/> <path d="M11.5,10.5L14.053,5.85" style="fill:none;stroke-width:1px;stroke:rgb(96,186,178);"/> <path d="M15.1,6.2L13.5,10.5" style="fill:none;stroke-width:1px;stroke:rgb(96,186,178);"/> <path d="M5.5,10.5L2.5,10.5L1,7.5L0.5,4.5L3,6L5.5,10.5Z" style="fill:none;stroke-width:1px;stroke:rgb(96,186,178);"/> <path d="M1,7.5L3,6" style="fill:none;stroke-width:1px;stroke:rgb(96,186,178);"/> <rect x="6.5" y="0.5" width="4" height="10" style="fill:none;stroke-width:1px;stroke:rgb(96,186,178);"/> <path d="M10.5,2.5L8.5,2.5" style="fill:none;stroke-width:1px;stroke:rgb(96,186,178);"/> <path d="M10.5,4.5L9.5,4.5" style="fill:none;stroke-width:1px;stroke:rgb(96,186,178);"/> <path d="M10.5,6.5L8.5,6.5" style="fill:none;stroke-width:1px;stroke:rgb(96,186,178);"/> <path d="M10.5,8.5L9.5,8.5" style="fill:none;stroke-width:1px;stroke:rgb(96,186,178);"/> </g> </g> </symbol><symbol viewBox="0 0 48 48" id="icon-feature-custom-emails"><title>feature-custom-emails</title> <clipPath id="feature-custom-emails-_clip1"> <rect id="feature-custom-emails-Artboard1" x="0" y="0" width="48" height="48"/> </clipPath> <g clip-path="url(#feature-custom-emails-_clip1)"> <g id="feature-custom-emails-XMLID_1_" transform="matrix(2,0,0,2,1,4)"> <g id="feature-custom-emails-XMLID_3_"> <path id="feature-custom-emails-XMLID_7_" d="M5.5,15.5L2.5,15.5C1.4,15.5 0.5,14.6 0.5,13.5L0.5,2.5C0.5,1.4 1.4,0.5 2.5,0.5L20.5,0.5C21.6,0.5 22.5,1.4 22.5,2.5L22.5,13.5C22.5,14.6 21.6,15.5 20.5,15.5L17.5,15.5" style="fill:none;stroke-width:1px;stroke:rgb(96,186,178);"/> <path id="feature-custom-emails-XMLID_6_" d="M2.5,2.5L10.3,8.1C11,8.6 12,8.6 12.8,8.1L20.6,2.5" style="fill:none;stroke-width:1px;stroke:rgb(96,186,178);"/> <path id="feature-custom-emails-XMLID_5_" d="M2.5,13.5L7.5,8.5" style="fill:none;stroke-width:1px;stroke:rgb(96,186,178);"/> <path id="feature-custom-emails-XMLID_4_" d="M20.5,13.5L15.5,8.5" style="fill:none;stroke-width:1px;stroke:rgb(96,186,178);"/> </g> <path id="feature-custom-emails-XMLID_2_" d="M11.5,14.5C11.5,13.3 10.4,12.3 9.2,12.5C8.2,12.7 7.5,13.6 7.5,14.6L7.5,14.7C7.5,15.2 7.7,15.7 8.1,16.1L11.5,19.5L14.9,16.1C15.3,15.7 15.5,15.2 15.5,14.7L15.5,14.6C15.5,13.6 14.8,12.7 13.8,12.5C12.6,12.3 11.5,13.3 11.5,14.5" style="fill:none;stroke-width:1px;stroke:rgb(96,186,178);"/> </g> </g> </symbol><symbol viewBox="0 0 48 48" id="icon-feature-developer-friendly"><title>feature-developer-friendly</title> <clipPath id="feature-developer-friendly-_clip1"> <rect id="feature-developer-friendly-Artboard1" x="0" y="0" width="48" height="48"/> </clipPath> <g clip-path="url(#feature-developer-friendly-_clip1)"> <g id="feature-developer-friendly-developer friendly" transform="matrix(1.91304,0,0,1.91304,1.04348,2)"> <path id="feature-developer-friendly-XMLID_4_" d="M16.5,0.5L7.5,22.5" style="fill:none;stroke-width:1px;stroke:rgb(96,186,178);"/> <path id="feature-developer-friendly-XMLID_3_" d="M17.5,4.5L23.5,11.5L17.5,18.5" style="fill:none;stroke-width:1px;stroke:rgb(96,186,178);"/> <path id="feature-developer-friendly-XMLID_2_" d="M6.5,18.5L0.5,11.5L6.5,4.5" style="fill:none;stroke-width:1px;stroke:rgb(96,186,178);"/> </g> </g> </symbol><symbol viewBox="0 0 48 48" id="icon-feature-documentation"><title>feature-documentation</title> <clipPath id="feature-documentation-_clip1"> <rect id="feature-documentation-Artboard1" x="0" y="0" width="48" height="48"/> </clipPath> <g clip-path="url(#feature-documentation-_clip1)"> <g id="feature-documentation-documentation" transform="matrix(0.977273,0,0,0.977273,0.545455,0.545455)"> <g id="feature-documentation-XMLID_5_" transform="matrix(1.91304,-8.2173e-33,-8.2173e-33,1.91304,5.82609,1.04348)"> <path id="feature-documentation-XMLID_7_" d="M18.5,6.5C17.2,5.2 17.2,1.8 18.5,0.5L3.2,0.5C1.8,0.5 0.5,1.6 0.5,3L0.5,4C0.5,5.4 1.8,6.5 3.2,6.5L18.5,6.5L18.5,23.5L3.7,23.5L2.7,23.5C1.3,23.5 0.5,22.4 0.5,21L0.5,4" style="fill:none;stroke-width:1px;stroke:rgb(96,186,178);"/> <path id="feature-documentation-XMLID_6_" d="M3,3.5L17.5,3.5" style="fill:none;stroke-width:1px;stroke-linejoin:miter;stroke:rgb(96,186,178);"/> </g> <g id="feature-documentation-documentation1" transform="matrix(1.91304,-8.2173e-33,-8.2173e-33,1.91304,5.82609,1.04348)"> <circle id="feature-documentation-XMLID_3_" cx="8.5" cy="14" r="3.5" style="fill:none;stroke-width:1px;stroke:rgb(96,186,178);"/> <path id="feature-documentation-XMLID_2_" d="M11,16.5L14,19.5" style="fill:none;stroke-width:1px;stroke:rgb(96,186,178);"/> </g> </g> </g> </symbol><symbol viewBox="0 0 48 48" id="icon-feature-easy-setup"><title>feature-easy-setup</title> <clipPath id="feature-easy-setup-_clip1"> <rect id="feature-easy-setup-Artboard1" x="0" y="0" width="48" height="48"/> </clipPath> <g clip-path="url(#feature-easy-setup-_clip1)"> <g id="feature-easy-setup-XMLID_1_" transform="matrix(1,0,0,1,7.02233,5.4781)"> <g id="feature-easy-setup-XMLID_9_" transform="matrix(1.94361,0,0,1.94361,-5.95695,-2.955)"> <path d="M11,11.5L21.3,21.8C21.7,22.2 22.3,22.2 22.7,21.8L22.8,21.7C23.2,21.3 23.2,20.7 22.8,20.3L11,8.5" style="fill:none;stroke-width:1px;stroke:rgb(96,186,178);"/> </g> <g id="feature-easy-setup-XMLID_8_" transform="matrix(1.94361,0,0,1.94361,-5.95695,-2.955)"> <path d="M3.5,0.5L4,4L0.5,5.5L4,7L3.5,10.5L6.5,8.5L9.5,10.5L9,7L12.5,5.5L9,4L9.5,0.5L6.5,2.5L3.5,0.5Z" style="fill:none;stroke-width:1px;stroke:rgb(96,186,178);"/> </g> <g id="feature-easy-setup-XMLID_7_" transform="matrix(1.94361,0,0,1.94361,-5.95695,-2.955)"> <path d="M6.5,1C6.2,1 6,0.8 6,0.5C6,0.2 6.2,0 6.5,0C6.8,0 7,0.2 7,0.5C7,0.8 6.8,1 6.5,1Z" style="fill:rgb(96,186,178);fill-rule:nonzero;"/> </g> <g id="feature-easy-setup-XMLID_6_" transform="matrix(1.94361,0,0,1.94361,-5.95695,-2.955)"> <path d="M11.5,3C11.2,3 11,2.8 11,2.5C11,2.2 11.2,2 11.5,2C11.8,2 12,2.2 12,2.5C12,2.8 11.8,3 11.5,3Z" style="fill:rgb(96,186,178);fill-rule:nonzero;"/> </g> <g id="feature-easy-setup-XMLID_5_" transform="matrix(1.94361,0,0,1.94361,-5.95695,-2.955)"> <path d="M1.5,3C1.2,3 1,2.8 1,2.5C1,2.2 1.2,2 1.5,2C1.8,2 2,2.2 2,2.5C2,2.8 1.8,3 1.5,3Z" style="fill:rgb(96,186,178);fill-rule:nonzero;"/> </g> <g id="feature-easy-setup-XMLID_4_" transform="matrix(1.94361,0,0,1.94361,-5.95695,-2.955)"> <path d="M6.5,11C6.2,11 6,10.8 6,10.5C6,10.2 6.2,10 6.5,10C6.8,10 7,10.2 7,10.5C7,10.8 6.8,11 6.5,11Z" style="fill:rgb(96,186,178);fill-rule:nonzero;"/> </g> <g id="feature-easy-setup-XMLID_3_" transform="matrix(1.94361,0,0,1.94361,-5.95695,-2.955)"> <path d="M1.5,9C1.2,9 1,8.8 1,8.5C1,8.2 1.2,8 1.5,8C1.8,8 2,8.2 2,8.5C2,8.8 1.8,9 1.5,9Z" style="fill:rgb(96,186,178);fill-rule:nonzero;"/> </g> <g id="feature-easy-setup-XMLID_2_" transform="matrix(1.94361,0,0,1.94361,-5.95695,-2.955)"> <path d="M18,16L17,17" style="fill:none;stroke-width:1px;stroke:rgb(96,186,178);"/> </g> </g> </g> </symbol><symbol viewBox="0 0 24 24" id="icon-feature-edd-commissions-integration"><title>feature-edd-commissions-integration</title> <g> <path d="M8,16L16,8" style="fill:none;stroke-width:1px;stroke:rgb(96,186,178);"/> <circle cx="9" cy="9" r="1.5" style="fill:none;stroke-width:1px;stroke:rgb(96,186,178);"/> <circle cx="15" cy="15" r="1.5" style="fill:none;stroke-width:1px;stroke:rgb(96,186,178);"/> <circle cx="12" cy="12" r="11" style="fill:none;stroke-width:1px;stroke-linecap:butt;stroke:rgb(96,186,178);"/> </g> </symbol><symbol viewBox="0 0 48 48" id="icon-feature-export"><title>feature-export</title> <clipPath id="feature-export-_clip1"> <rect id="feature-export-Artboard1" x="0" y="0" width="48" height="48"/> </clipPath> <g clip-path="url(#feature-export-_clip1)"> <g transform="matrix(1.91304,0,0,1.91304,4.86957,1.04348)"> <g transform="matrix(1,0,0,1,-1.56818,0)"> <path d="M8.3,17.3C8.3,18 8.9,18.5 9.5,18.5C10.2,18.5 10.7,17.9 10.7,17.2C10.7,16.1 9.7,16.1 9.5,16C9.3,15.9 8.3,15.9 8.3,14.8C8.3,14.1 8.9,13.5 9.5,13.5C10.2,13.5 10.7,14 10.7,14.7" style="fill:none;stroke-width:1px;stroke:rgb(96,186,178);"/> </g> <g transform="matrix(1,0,0,1,-1.56818,0)"> <path d="M6.2,14.7C6,14 5.7,13.5 4.9,13.5C3.7,13.5 3.5,14.5 3.5,16C3.5,17.5 3.7,18.5 4.9,18.5C5.7,18.5 6,18 6.2,17.3" style="fill:none;stroke-width:1px;stroke:rgb(96,186,178);"/> </g> <g transform="matrix(1,0,0,1,-1.56818,0)"> <path d="M13,13.5L14.5,18.5L16,13.5" style="fill:none;stroke-width:1px;stroke:rgb(96,186,178);"/> </g> <g transform="matrix(1,0,0,1,-1.56818,0)"> <path d="M19.5,23.5L0.5,23.5L0.5,0.5L13.5,0.5L19.5,6.5L19.5,23.5Z" style="fill:none;stroke-width:1px;stroke:rgb(96,186,178);"/> <path d="M13.5,0.5L13.5,6.5L19.5,6.5" style="fill:none;stroke-width:1px;stroke:rgb(96,186,178);"/> </g> </g> </g> </symbol><symbol viewBox="0 0 48 48" id="icon-feature-integration"><title>feature-integration</title> <clipPath id="feature-integration-_clip1"> <rect id="feature-integration-Artboard1" x="0" y="0" width="48" height="48"/> </clipPath> <g clip-path="url(#feature-integration-_clip1)"> <g id="feature-integration-complete integration" transform="matrix(1.91304,0,0,1.91304,1.04348,9.65217)"> <path id="feature-integration-XMLID_9_" d="M4,8.5C4.4,8.8 5.5,10.1 6,10.5C7.9,12.1 10.1,13.7 10.5,14C10.8,14.2 11.5,14.5 12,14.5C12.5,14.5 12.9,14.4 13,14C13.7,14.7 14.9,14 15,13C15.6,13.6 17.1,13 17,12C17.7,12.5 19,11.6 18.5,10.5C17.8,9.1 14,6.5 12.5,5C11.6,5.3 11.7,5.4 11,5.5C10.5,6.2 9.7,6.9 8.5,6.5C7.3,6.1 8.3,4.2 9.2,3.3C10.9,1.6 12,1.1 14,2C16,2.9 18,3.6 18,3.6" style="fill:none;stroke-width:1px;stroke:rgb(96,186,178);"/> <path id="feature-integration-XMLID_8_" d="M10,2.5C8.8,2.5 6.5,2.5 5.5,2.5" style="fill:none;stroke-width:1px;stroke:rgb(96,186,178);"/> <path id="feature-integration-XMLID_7_" d="M18.5,10.5L20,9.5" style="fill:none;stroke-width:1px;stroke:rgb(96,186,178);"/> <path id="feature-integration-XMLID_6_" d="M17,12C16.5,11.6 14,9 14,9" style="fill:none;stroke-width:1px;stroke:rgb(96,186,178);"/> <path id="feature-integration-XMLID_5_" d="M15,13C14.4,12.5 12.8,10.8 12.5,10.5" style="fill:none;stroke-width:1px;stroke:rgb(96,186,178);"/> <path id="feature-integration-XMLID_4_" d="M13,14C12.3,13.4 11,12.1 10.5,11.5" style="fill:none;stroke-width:1px;stroke:rgb(96,186,178);"/> <path id="feature-integration-XMLID_3_" d="M0.5,9.5C1.7,9.5 3.5,9.5 3.5,9.5C3.5,9.5 5.3,4.1 5.5,1.5C4.7,0.7 0.5,0.5 0.5,0.5C0.5,0.5 0.5,5.8 0.5,9.5Z" style="fill:none;stroke-width:1px;stroke:rgb(96,186,178);"/> <path id="feature-integration-XMLID_2_" d="M17.5,2.5C18.2,3.6 20.1,9.2 20.5,10.5C21.4,10.5 23.5,10.5 23.5,10.5C23.5,10.5 23.5,3.6 23.5,1.5C19.6,1.5 17.5,2.5 17.5,2.5Z" style="fill:none;stroke-width:1px;stroke:rgb(96,186,178);"/> </g> </g> </symbol><symbol viewBox="0 0 48 48" id="icon-feature-money-back-guarantee"><title>feature-money-back-guarantee</title> <clipPath id="feature-money-back-guarantee-_clip1"> <rect id="feature-money-back-guarantee-Artboard1" x="0" y="0" width="48" height="48"/> </clipPath> <g clip-path="url(#feature-money-back-guarantee-_clip1)"> <g id="feature-money-back-guarantee-_Group_" transform="matrix(1.91304,0,0,1.91304,3.91304,1.04348)"> <g id="feature-money-back-guarantee-_Path_" transform="matrix(1,0,0,1,-817,-1056)"> <path d="M827.5,1079.5C831.25,1078.33 837.5,1074.5 837.5,1070.5L837.5,1059.5L827.5,1056.5L817.5,1059.5L817.5,1070.5C817.5,1074.5 823.75,1078.33 827.5,1079.5Z" style="fill:none;stroke-width:1px;stroke:rgb(96,186,178);"/> </g> <g id="feature-money-back-guarantee-_Group_2_"> <circle id="feature-money-back-guarantee-_Path_2_" cx="10.5" cy="11.5" r="5" style="fill:none;stroke-width:1px;stroke:rgb(96,186,178);"/> <path id="feature-money-back-guarantee-_Path_3_" d="M7.5,11.5L9.5,13.5L13.5,9.5" style="fill:none;stroke-width:1px;stroke:rgb(96,186,178);"/> </g> </g> </g> </symbol><symbol viewBox="0 0 24 24" id="icon-feature-product-specific-rates"><title>feature-product-specific-rates</title> <g transform="matrix(0.956522,0,0,0.956522,0.521739,0.521739)"> <path d="M6.5,15.5L0.5,15.5L0.5,4.5L14.5,4.5L14.5,6.5" style="fill:none;stroke-width:1px;stroke:rgb(96,186,178);"/> <path d="M14.5,4.5L0.5,4.5L4.5,0.5L10.5,0.5L14.5,4.5Z" style="fill:none;stroke-width:1px;stroke:rgb(96,186,178);"/> <path d="M7.5,0.5L7.5,4.5" style="fill:none;stroke-width:1px;stroke:rgb(96,186,178);"/> <g> <circle cx="16.5" cy="16.5" r="7" style="fill:none;stroke-width:1px;stroke-linecap:butt;stroke:rgb(96,186,178);"/> <g> <path d="M14.9,18.1C14.9,19 15.6,19.7 16.5,19.7C17.4,19.7 18.1,19 18.1,18.1C18.1,17.2 17.4,16.5 16.5,16.5C15.6,16.5 14.9,15.8 14.9,14.9C14.9,14 15.6,13.3 16.5,13.3C17.4,13.3 18.1,14 18.1,14.9" style="fill:none;stroke-width:1px;stroke:rgb(96,186,178);"/> <path d="M16.5,19.7L16.5,20.8" style="fill:none;stroke-width:1px;stroke:rgb(96,186,178);"/> <path d="M16.5,12.1L16.5,13.2" style="fill:none;stroke-width:1px;stroke:rgb(96,186,178);"/> </g> </g> </g> </symbol><symbol viewBox="0 0 48 48" id="icon-feature-referral-link-generator"><title>feature-referral-link-generator</title> <clipPath id="feature-referral-link-generator-_clip1"> <rect id="feature-referral-link-generator-Artboard1" x="0" y="0" width="48" height="48"/> </clipPath> <g clip-path="url(#feature-referral-link-generator-_clip1)"> <g id="feature-referral-link-generator-referral link generator" transform="matrix(1.91304,0,0,1.91304,0.826087,1.04348)"> <path id="feature-referral-link-generator-XMLID_10_" d="M8.5,0.5L8.5,2.5" style="fill:none;stroke-width:1px;stroke:rgb(96,186,178);"/> <path id="feature-referral-link-generator-XMLID_9_" d="M14.5,8.5L16.5,8.5" style="fill:none;stroke-width:1px;stroke:rgb(96,186,178);"/> <path id="feature-referral-link-generator-XMLID_8_" d="M2.5,8.5L0.5,8.5" style="fill:none;stroke-width:1px;stroke:rgb(96,186,178);"/> <path id="feature-referral-link-generator-XMLID_7_" d="M12.7,4.3L14.2,2.8" style="fill:none;stroke-width:1px;stroke:rgb(96,186,178);"/> <path id="feature-referral-link-generator-XMLID_6_" d="M4.3,4.3L2.8,2.8" style="fill:none;stroke-width:1px;stroke:rgb(96,186,178);"/> <g id="feature-referral-link-generator-XMLID_3_"> <path id="feature-referral-link-generator-XMLID_5_" d="M9.5,15.5L11.1,14.4C11.9,13.9 12.9,14.1 13.5,14.8C13.8,15.2 13.8,15.7 13.4,16.1L9.4,20.5C8.8,21.1 8,21.5 7.2,21.5L5.5,21.5C3.3,21.5 1.5,19.7 1.5,17.5L1.5,13.5C1.5,12.9 1.9,12.5 2.5,12.5C3.1,12.5 3.5,12.9 3.5,13.5L3.5,14L3.5,12.5C3.5,11.9 3.9,11.5 4.5,11.5C5.1,11.5 5.5,11.9 5.5,12.5L5.5,14L5.5,11.5C5.5,10.9 5.9,10.5 6.5,10.5C7.1,10.5 7.5,10.9 7.5,11.5L7.5,14L7.5,8.5C7.5,7.9 7.9,7.5 8.5,7.5C9.1,7.5 9.5,7.9 9.5,8.5L9.5,15.5" style="fill:none;stroke-width:1px;stroke:rgb(96,186,178);"/> <path id="feature-referral-link-generator-XMLID_4_" d="M2.5,23.5L2.5,21.5L9.5,21.5L9.5,23.5" style="fill:none;stroke-width:1px;stroke:rgb(96,186,178);"/> </g> <path id="feature-referral-link-generator-XMLID_2_" d="M5.5,8.5C5.5,6.8 6.8,5.5 8.5,5.5C10.2,5.5 11.5,6.8 11.5,8.5" style="fill:none;stroke-width:1px;stroke:rgb(96,186,178);"/> </g> </g> </symbol><symbol viewBox="0 0 48 48" id="icon-feature-referral-rate-types"><title>feature-referral-rate-types</title> <clipPath id="feature-referral-rate-types-_clip1"> <rect id="feature-referral-rate-types-Artboard1" x="0" y="0" width="48" height="48"/> </clipPath> <g clip-path="url(#feature-referral-rate-types-_clip1)"> <g id="feature-referral-rate-types-XMLID_5_" transform="matrix(1.91304,0,0,1.91304,1.04348,1.04348)"> <g id="feature-referral-rate-types-XMLID_13_"> <path id="feature-referral-rate-types-XMLID_15_" d="M1.5,19.5L2.5,17.5L4.5,18.5" style="fill:none;stroke-width:1px;stroke:rgb(96,186,178);"/> <path id="feature-referral-rate-types-XMLID_14_" d="M7.5,22.5C4.7,22.5 2.8,20.1 2.5,17.5" style="fill:none;stroke-width:1px;stroke:rgb(96,186,178);"/> </g> <g id="feature-referral-rate-types-XMLID_10_"> <path id="feature-referral-rate-types-XMLID_12_" d="M22.5,4.5L21.5,6.5L19.5,5.5" style="fill:none;stroke-width:1px;stroke:rgb(96,186,178);"/> <path id="feature-referral-rate-types-XMLID_11_" d="M16.5,1.5C19.3,1.5 21.2,3.9 21.5,6.5" style="fill:none;stroke-width:1px;stroke:rgb(96,186,178);"/> </g> <path id="feature-referral-rate-types-XMLID_9_" d="M12.5,17.5C12.5,18.6 13.8,19.5 15.5,19.5C17.2,19.5 18.5,18.6 18.5,17.5C18.5,16.4 17.2,15.5 15.5,15.5C13.8,15.5 12.5,14.6 12.5,13.5C12.5,12.4 13.8,11.5 15.5,11.5C17.2,11.5 18.5,12.4 18.5,13.5" style="fill:none;stroke-width:1px;stroke:rgb(96,186,178);"/> <path id="feature-referral-rate-types-XMLID_8_" d="M15.5,10.5L15.5,20.5" style="fill:none;stroke-width:1px;stroke:rgb(96,186,178);"/> <path id="feature-referral-rate-types-XMLID_7_" d="M7.5,14.5C3.6,14.5 0.5,11.4 0.5,7.5C0.5,3.6 3.6,0.5 7.5,0.5C11.4,0.5 14.5,3.6 14.5,7.5" style="fill:none;stroke-width:1px;stroke:rgb(96,186,178);"/> <circle id="feature-referral-rate-types-XMLID_6_" cx="15.5" cy="15.5" r="8" style="fill:none;stroke-width:1px;stroke:rgb(96,186,178);"/> <g> <path id="feature-referral-rate-types-XMLID_4_" d="M5.5,10.5L9.5,3.8" style="fill:none;stroke-width:1px;stroke:rgb(96,186,178);"/> <circle id="feature-referral-rate-types-XMLID_3_" cx="4.4" cy="5.7" r="1.3" style="fill:none;stroke-width:1px;stroke:rgb(96,186,178);"/> <path id="feature-referral-rate-types-XMLID_1_" d="M9.6,10C9.4,9.8 9.2,9.5 9.2,9.2C9.2,8.5 9.8,7.9 10.5,7.9C11,7.9 11.4,8.2 11.6,8.5" style="fill:none;stroke-width:1px;stroke:rgb(96,186,178);"/> </g> </g> </g> </symbol><symbol viewBox="0 0 24 24" id="icon-feature-reject-referrals"><title>feature-reject-referrals</title> <g transform="matrix(0.952381,0,0,0.952381,0.52381,0.52381)"> <path d="M8.5,12.3C6.6,13.7 6.8,16.3 7.5,17.4C8,17 8.4,16.5 8.5,15.9C10.2,16.6 11.1,17.9 11.1,19.5C11.1,21.8 9.3,23.6 7,23.6C4.7,23.6 2.9,21.8 2.9,19.5C2.9,16.1 5.3,13 8.5,12.3Z" style="fill:none;stroke-width:1px;stroke:rgb(96,186,178);"/> <path d="M7.6,19C7.3,19.9 8.6,20.8 8.6,21.9C8.6,22.8 7.9,23.5 7,23.5C6.1,23.5 5.4,22.8 5.4,21.9C5.3,20.6 6.3,19.3 7.6,19Z" style="fill:none;stroke-width:1px;stroke:rgb(96,186,178);"/> <path d="M3.3,13.8L2.3,12.8L14.6,0.5L21.8,7.7L12.4,17.1" style="fill:none;stroke-width:1px;stroke-linecap:round;stroke:rgb(96,186,178);"/> <path d="M10.647,8.769C11.428,7.989 12.695,7.988 13.476,8.769C14.256,9.549 14.256,10.817 13.476,11.597C12.696,12.378 11.428,12.378 10.648,11.598C9.867,10.817 9.867,9.55 10.647,8.769Z" style="fill:none;stroke-width:1px;stroke-linecap:round;stroke:rgb(96,186,178);"/> <path d="M13.1,4.8L14.6,3.4" style="fill:none;stroke-width:1px;stroke-linecap:round;stroke:rgb(96,186,178);"/> </g> </symbol><symbol viewBox="0 0 48 48" id="icon-feature-reporting"><title>feature-reporting</title> <clipPath id="feature-reporting-_clip1"> <rect id="feature-reporting-Artboard1" x="0" y="0" width="48" height="48"/> </clipPath> <g clip-path="url(#feature-reporting-_clip1)"> <g transform="matrix(1.91304,0,0,1.91304,1.04348,1.04348)"> <path d="M23.5,23.5L0.5,23.5L0.5,0.5" style="fill:none;stroke-width:1px;stroke:rgb(96,186,178);"/> <circle cx="7.5" cy="16.5" r="1.5" style="fill:none;stroke-width:1px;stroke:rgb(96,186,178);"/> <g transform="matrix(0.989736,0,0,0.995052,0.173456,0.0410645)"> <path d="M16.9,8.3L21,3.1" style="fill:none;stroke-width:1px;stroke:rgb(96,186,178);"/> </g> <g transform="matrix(0.990084,0,0,0.974416,0.0981655,0.191878)"> <path d="M9.9,7.5L14.6,9.1" style="fill:none;stroke-width:1px;stroke:rgb(96,186,178);"/> </g> <path d="M0.5,11.8L7.2,7.8" style="fill:none;stroke-width:1px;stroke:rgb(96,186,178);"/> <g transform="matrix(0.987017,0,0,0.987363,0.268743,0.168078)"> <path d="M16.3,15.8L20.7,13.3" style="fill:none;stroke-width:1px;stroke:rgb(96,186,178);"/> </g> <path d="M9,16.5L13.5,16.5" style="fill:none;stroke-width:1px;stroke:rgb(96,186,178);"/> <path d="M0.5,21L6.2,17.3" style="fill:none;stroke-width:1px;stroke:rgb(96,186,178);"/> <circle cx="8.5" cy="7" r="1.5" style="fill:none;stroke-width:1px;stroke:rgb(96,186,178);"/> <circle cx="16" cy="9.5" r="1.5" style="fill:none;stroke-width:1px;stroke:rgb(96,186,178);"/> <circle cx="22" cy="2" r="1.5" style="fill:none;stroke-width:1px;stroke:rgb(96,186,178);"/> <circle cx="22" cy="12.5" r="1.5" style="fill:none;stroke-width:1px;stroke:rgb(96,186,178);"/> <circle cx="15" cy="16.5" r="1.5" style="fill:none;stroke-width:1px;stroke:rgb(96,186,178);"/> </g> </g> </symbol><symbol viewBox="0 0 48 48" id="icon-feature-secure-payment"><title>feature-secure-payment</title> <clipPath id="feature-secure-payment-_clip1"> <rect id="feature-secure-payment-Artboard1" x="0" y="0" width="48" height="48"/> </clipPath> <g clip-path="url(#feature-secure-payment-_clip1)"> <g id="feature-secure-payment-secure payment" transform="matrix(1.91304,7.10185e-30,6.91722e-30,1.91304,8.69565,1.04348)"> <path d="M1.5,11.5L1.5,7C1.5,3.41 4.41,0.5 8,0.5C11.59,0.5 14.5,3.41 14.5,7L14.5,11.5" style="fill:none;stroke-width:1.05px;stroke:rgb(96,186,178);"/> <path d="M3.5,11.5L3.5,7C3.5,4.515 5.515,2.5 8,2.5C10.485,2.5 12.5,4.515 12.5,7L12.5,11.5" style="fill:none;stroke-width:1.05px;stroke:rgb(96,186,178);"/> <path d="M1.5,11.5L14.5,11.5C15.052,11.5 15.5,11.948 15.5,12.5L15.5,21.5C15.5,22.605 14.605,23.5 13.5,23.5L2.5,23.5C1.395,23.5 0.5,22.605 0.5,21.5L0.5,12.5C0.5,11.948 0.948,11.5 1.5,11.5Z" style="fill:none;stroke-width:1.05px;stroke:rgb(96,186,178);"/> <path d="M9.5,16C9.5,15.172 8.828,14.5 8,14.5C7.172,14.5 6.5,15.172 6.5,16C6.5,16.549 6.798,17.024 7.238,17.286L6.5,19.5L9.5,19.5L8.762,17.286C9.202,17.024 9.5,16.549 9.5,16Z" style="fill:none;stroke-width:1.05px;stroke:rgb(96,186,178);"/> </g> </g> </symbol><symbol viewBox="0 0 24 24" id="icon-feature-support"><title>feature-support</title><g id="feature-support-Outline_Icons"><path d="M7.219,13.5l-6.719,0l0,-3l6.703,0" style="fill:none;stroke-width:1px;stroke:#60B9B3;"/><path d="M13.5,16.766l0,6.734l-3,0l0,-6.734" style="fill:none;stroke-width:1px;stroke:#60B9B3;"/><path d="M16.766,10.5l6.734,0l0,3l-6.75,0" style="fill:none;stroke-width:1px;stroke:#60B9B3;"/><path d="M10.5,7.219l0,-6.719l3,0l0,6.734" style="fill:none;stroke-width:1px;stroke:#60B9B3;"/><circle cx="12" cy="12" r="5" style="fill:none;stroke-width:1px;stroke:#60B9B3;"/><path d="M13.5,1.607c4.598,0.659 8.235,4.294 8.893,8.893" style="fill:none;stroke-width:1px;stroke:#60B9B3;"/><path d="M1.605,10.5c0.659,-4.599 4.295,-8.234 8.895,-8.893" style="fill:none;stroke-width:1px;stroke:#60B9B3;"/><path d="M10.5,22.394c-4.6,-0.657 -8.236,-4.294 -8.895,-8.894" style="fill:none;stroke-width:1px;stroke:#60B9B3;"/><path d="M22.393,13.5c-0.657,4.6 -4.295,8.237 -8.893,8.894" style="fill:none;stroke-width:1px;stroke:#60B9B3;"/></g></symbol><symbol viewBox="0 0 48 48" id="icon-feature-translated"><title>feature-translated</title> <clipPath id="feature-translated-_clip1"> <rect id="feature-translated-Artboard1" x="0" y="0" width="48" height="48"/> </clipPath> <g clip-path="url(#feature-translated-_clip1)"> <g id="feature-translated-fully internationized" transform="matrix(1.99637,0,3.08149e-33,1.99637,1.00181,1.00181)"> <circle cx="11.52" cy="11.52" r="11.02" style="fill:none;stroke-width:1px;stroke:rgb(96,185,179);"/> <g transform="matrix(1,0,0,1,-0.48,-0.48)"> <path d="M20.15,4.58C20.15,4.58 19.67,7.21 17.75,8.17C15.83,7.69 13.92,9.17 14.4,9.17C14.88,9.17 15.4,11.09 15.4,11.09C15.846,11.345 16.394,11.345 16.84,11.09C18.04,12.29 14.92,14.44 14.92,14.92C14.92,15.4 16.12,15.64 15.4,16.36C14.998,16.793 14.506,17.134 13.96,17.36C13.96,19.76 11.56,19.76 11.09,19.76C10.62,19.76 9.6,17.75 9.6,17.27C9.6,16.79 10.08,16.27 10.08,15.83C9.868,15.276 9.524,14.782 9.08,14.39C9.13,12.48 7.69,13 6.25,13C4.81,13 4.81,11 4.81,11C4.81,11 4.81,7.65 7.21,7.17C9.61,6.69 9.61,7.65 9.61,7.65C10.61,8.65 12.49,7.65 13.44,7.65C13.44,7.65 13.92,4.3 12.96,4.78C12.752,4.936 12.499,5.021 12.239,5.021C11.581,5.021 11.039,4.479 11.039,3.821C11.039,3.807 11.04,3.793 11.04,3.78C10.9,2.28 14.719,1.38 14.719,1.38" style="fill:none;stroke-width:1px;stroke:rgb(96,185,179);"/> </g> </g> </g> </symbol><symbol viewBox="0 0 48 48" id="icon-feature-unlimited-affiliates"><title>feature-unlimited-affiliates</title> <clipPath id="feature-unlimited-affiliates-_clip1"> <rect id="feature-unlimited-affiliates-Artboard1" x="0" y="0" width="48" height="48"/> </clipPath> <g clip-path="url(#feature-unlimited-affiliates-_clip1)"> <g id="feature-unlimited-affiliates-Outline_Icons-2" transform="matrix(1.99637,0,9.86076e-32,1.99637,0.00362976,0.0435572)"> <path d="M13,14.39C13,14.39 14.91,17.26 17.78,17.26C20.666,17.26 23.04,14.886 23.04,12C23.04,9.114 20.666,6.74 17.78,6.74C13,6.74 11,17.26 6.26,17.26C3.374,17.26 1,14.886 1,12C1,9.114 3.374,6.74 6.26,6.74C9.13,6.74 10.56,10.09 10.56,10.09" style="fill:none;stroke-width:1px;stroke:rgb(96,185,179);"/> </g> </g> </symbol><symbol viewBox="0 0 48 48" id="icon-feature-wordpress"><title>feature-wordpress</title> <clipPath id="feature-wordpress-_clip1"> <rect id="feature-wordpress-Artboard1" x="0" y="0" width="48" height="48"/> </clipPath> <g clip-path="url(#feature-wordpress-_clip1)"> <g id="feature-wordpress-XMLID_1_" transform="matrix(1.91304,0,0,1.91304,1.04348,1.04348)"> <circle id="feature-wordpress-XMLID_10_" cx="12" cy="12" r="11.5" style="fill:none;stroke-width:1px;stroke:rgb(96,186,178);"/> <path id="feature-wordpress-XMLID_9_" d="M14.5,6.5C13.7,6.8 12.3,6.7 11.5,6.7C10.7,6.7 9.3,6.7 8.5,6.5" style="fill:none;stroke-width:1px;stroke:rgb(96,186,178);"/> <path id="feature-wordpress-XMLID_8_" d="M10,7L15.5,22.5" style="fill:none;stroke-width:1px;stroke:rgb(96,186,178);"/> <path id="feature-wordpress-XMLID_7_" d="M13.5,7L17.5,19.5" style="fill:none;stroke-width:1px;stroke:rgb(96,186,178);"/> <path id="feature-wordpress-XMLID_6_" d="M6.5,6.5C5.7,6.8 4.3,6.7 3.5,6.7C2.5,6.8 2,6.5 2,6.5" style="fill:none;stroke-width:1px;stroke:rgb(96,186,178);"/> <path id="feature-wordpress-XMLID_5_" d="M2,7L7.5,22.5" style="fill:none;stroke-width:1px;stroke:rgb(96,186,178);"/> <path id="feature-wordpress-XMLID_4_" d="M5.5,7L9.5,19.5" style="fill:none;stroke-width:1px;stroke:rgb(96,186,178);"/> <path id="feature-wordpress-XMLID_3_" d="M17,22C17,22 19.5,14.3 20.5,11C21.5,7.7 21.5,5.9 21,5C20.5,4.1 19.9,3.5 19,3.5C18.1,3.5 17.5,4 17.5,5.5C17.5,7 20.7,10.1 20,12.5" style="fill:none;stroke-width:1px;stroke:rgb(96,186,178);"/> <path id="feature-wordpress-XMLID_2_" d="M8.5,22.5L12,12.5" style="fill:none;stroke-width:1px;stroke:rgb(96,186,178);"/> </g> </g> </symbol></svg>