<?xml version="1.0" standalone="no"?>
<!DOCTYPE svg PUBLIC "-//W3C//DTD SVG 1.1//EN" "http://www.w3.org/Graphics/SVG/1.1/DTD/svg11.dtd">
<svg width="100%" height="100%" viewBox="0 0 600 300" version="1.1" xmlns="http://www.w3.org/2000/svg" xmlns:xlink="http://www.w3.org/1999/xlink" xml:space="preserve" style="fill-rule:evenodd;clip-rule:evenodd;stroke-linecap:round;stroke-linejoin:round;stroke-miterlimit:1.41421;">
    <g id="group two">
        <g opacity="0.1">
            <g id="smiley face" transform="matrix(2.40368,0,0,2.40368,-22.3364,150.507)">
                <g transform="matrix(1.66667,0,0,1.66667,16,16)">
                    <circle cx="12" cy="12" r="11.5" style="fill:none;stroke-width:1px;stroke:black;"/>
                </g>
                <g transform="matrix(1.66667,0,0,1.66667,16,16)">
                    <path d="M19.5,13.5C19.5,17.143 16.142,20.5 12,20.5C7.858,20.5 4.5,17.143 4.5,13.5L19.5,13.5Z" style="fill:none;stroke-width:1px;stroke:black;"/>
                </g>
                <g transform="matrix(1.66667,0,0,1.66667,16,16)">
                    <path d="M5.5,10C5.5,7.357 9.5,7.354 9.5,10" style="fill:none;stroke-width:1px;stroke:black;"/>
                </g>
                <g transform="matrix(1.66667,0,0,1.66667,16,16)">
                    <path d="M18.5,10C18.5,7.357 14.5,7.354 14.5,10" style="fill:none;stroke-width:1px;stroke:black;"/>
                </g>
            </g>
            <g id="cash" transform="matrix(4.91712,0,0,4.91712,245.995,-361.369)">
                <g transform="matrix(1,0,0,1,0,89.5742)">
                    <path d="M23.5,8.5L17.5,12.5L12.5,12.5" style="fill:none;stroke-width:1px;stroke:black;"/>
                </g>
                <g transform="matrix(1,0,0,1,0,89.5742)">
                    <path d="M23.5,10.5L17.5,14.5L12.5,14.5" style="fill:none;stroke-width:1px;stroke:black;"/>
                </g>
                <g transform="matrix(1,0,0,1,0,89.5742)">
                    <path d="M23.5,12.5L17.5,16.5L12.5,16.5" style="fill:none;stroke-width:1px;stroke:black;"/>
                </g>
                <g transform="matrix(1,0,0,1,0,89.5742)">
                    <path d="M23.5,14.5L17.5,18.5L12.5,18.5" style="fill:none;stroke-width:1px;stroke:black;"/>
                </g>
                <g transform="matrix(1,0,0,1,0,89.5742)">
                    <path d="M12.5,19.5L5.5,19.5L5.5,10L11.5,5.5L18.5,5.5L12.5,10L12.5,19.5Z" style="fill:none;stroke-width:1px;stroke:black;"/>
                </g>
                <g transform="matrix(1,0,0,1,0,89.5742)">
                    <path d="M5.5,12.5L0.5,12.5" style="fill:none;stroke-width:1px;stroke:black;"/>
                </g>
                <g transform="matrix(1,0,0,1,0,89.5742)">
                    <path d="M5.5,14.5L0.5,14.5" style="fill:none;stroke-width:1px;stroke:black;"/>
                </g>
                <g transform="matrix(1,0,0,1,0,89.5742)">
                    <path d="M5.5,16.5L0.5,16.5" style="fill:none;stroke-width:1px;stroke:black;"/>
                </g>
                <g transform="matrix(1,0,0,1,0,89.5742)">
                    <path d="M5.5,18.5L0.5,18.5" style="fill:none;stroke-width:1px;stroke:black;"/>
                </g>
                <g transform="matrix(1,0,0,1,0,89.5742)">
                    <path d="M17.167,6.5L23.5,6.5L17.5,10.5L12.5,10.5" style="fill:none;stroke-width:1px;stroke-linecap:butt;stroke:black;"/>
                </g>
                <g transform="matrix(1,0,0,1,0,89.5742)">
                    <path d="M5.5,10.5L0.5,10.5L6.5,6.5L10.167,6.5" style="fill:none;stroke-width:1px;stroke-linecap:butt;stroke:black;"/>
                </g>
                <g transform="matrix(1,0,0,1,0,89.5742)">
                    <path d="M9,17L9,18" style="fill:none;stroke-width:1px;stroke:black;"/>
                </g>
                <g transform="matrix(1,0,0,1,0,89.5742)">
                    <path d="M9,10L9,11" style="fill:none;stroke-width:1px;stroke:black;"/>
                </g>
                <g transform="matrix(1,0,0,1,0,89.5742)">
                    <path d="M7.5,15.5C7.5,16.328 8.172,17 9,17C9.828,17 10.5,16.328 10.5,15.5C10.5,14.671 9.828,14 9,14C8.172,14 7.5,13.328 7.5,12.5C7.5,11.671 8.172,11 9,11C9.828,11 10.5,11.671 10.5,12.5" style="fill:none;stroke-width:1px;stroke:black;"/>
                </g>
            </g>
            <g id="treasure chest" transform="matrix(3.63929,0,0,3.63929,308.18,213.569)">
                <rect id="XMLID_11_" x="0.5" y="6.5" width="23" height="12" style="fill:none;stroke-width:1px;stroke:black;"/>
                <path id="XMLID_10_" d="M14.5,8.5L21.5,8.5L21.5,16.5L2.5,16.5L2.5,8.5L9.5,8.5" style="fill:none;stroke-width:1px;stroke:black;"/>
                <path id="XMLID_9_" d="M9.5,6.5L9.5,9C9.5,10.4 10.6,11.5 12,11.5C13.4,11.5 14.5,10.4 14.5,9L14.5,6.5L9.5,6.5Z" style="fill:none;stroke-width:1px;stroke:black;"/>
                <path id="XMLID_8_" d="M0.5,6.5L0.5,4.5C0.5,2.3 2.3,0.5 4.5,0.5L19.5,0.5C21.7,0.5 23.5,2.3 23.5,4.5L23.5,6.5" style="fill:none;stroke-width:1px;stroke:black;"/>
                <path id="XMLID_7_" d="M2.5,6.5L2.5,5.5C2.5,2.7 4.7,0.5 7.5,0.5" style="fill:none;stroke-width:1px;stroke:black;"/>
                <path id="XMLID_6_" d="M21.5,6.5L21.5,5.5C21.5,2.7 19.3,0.5 16.5,0.5" style="fill:none;stroke-width:1px;stroke:black;"/>
                <path id="XMLID_5_" d="M2.5,12.5L21.5,12.5" style="fill:none;stroke-width:1px;stroke:black;"/>
                <path id="XMLID_4_" d="M3.5,3.5L20.5,3.5" style="fill:none;stroke-width:1px;stroke:black;"/>
                <circle id="XMLID_3_" cx="12" cy="8.5" r="0.5" style="fill:none;stroke-width:1px;stroke:black;"/>
                <path id="XMLID_2_" d="M12,8.5L12,9.5" style="fill:none;stroke-width:1px;stroke:black;"/>
            </g>
            <g id="XMLID_1_" transform="matrix(3.01407,0,0,3.01407,34.6521,19.3401)">
                <g id="XMLID_8_1">
                    <path id="XMLID_11_1" d="M0.5,21.5C1.7,21.5 3.5,21.5 3.5,21.5C3.5,21.5 5.3,16.1 5.5,13.5C4.7,12.7 0.5,12.5 0.5,12.5C0.5,12.5 0.5,17.8 0.5,21.5Z" style="fill:none;stroke-width:1px;stroke:black;"/>
                    <path id="XMLID_10_1" d="M16.5,19L20.3,18C21.6,17.7 22.9,18.3 23.5,19.5L18,22C13.8,23.7 13.5,23.8 11.5,23L4,20.5" style="fill:none;stroke-width:1px;stroke:black;"/>
                    <path id="XMLID_9_1" d="M5.5,14.5L14.5,16.5C15.8,16.8 16.5,17.5 16.5,18.8L16.5,19L15.2,19.3C14.8,19.4 14.3,19.4 13.9,19.3L9.6,18.4" style="fill:none;stroke-width:1px;stroke:black;"/>
                </g>
                <g id="XMLID_2_1">
                    <path id="XMLID_7_1" d="M22.3,18C22.4,17.5 22.5,17 22.5,16.5C22.5,13.8 16.5,6.5 16.5,6.5L12.5,6.5C12.5,6.5 8.1,11.8 7,14.5" style="fill:none;stroke-width:1px;stroke:black;"/>
                    <path id="XMLID_6_1" d="M10.5,6.5L18.5,6.5" style="fill:none;stroke-width:1px;stroke:black;"/>
                    <path id="XMLID_5_1" d="M12.5,6.5C12.5,6.5 7.3,2.4 8.5,1C9.2,0.2 12.5,2.5 12.5,2.5C12.5,2.5 13.8,0.5 14.5,0.5C15.2,0.5 16.5,2.5 16.5,2.5C16.5,2.5 19.8,0.2 20.5,1C21.7,2.4 16.5,6.5 16.5,6.5L12.5,6.5Z" style="fill:none;stroke-width:1px;stroke:black;"/>
                    <path id="XMLID_4_1" d="M16,17C16.3,16.7 16.5,16.4 16.5,16C16.5,14.8 14.9,14.6 14.5,14.5C14.2,14.4 12.5,14.2 12.5,13C12.5,12.2 13.4,11.5 14.5,11.5C15.6,11.5 16.4,12.1 16.5,12.9" style="fill:none;stroke-width:1px;stroke:black;"/>
                    <path id="XMLID_3_1" d="M14.5,10.5L14.5,16" style="fill:none;stroke-width:1px;stroke:black;"/>
                </g>
            </g>
            <g id="graph" transform="matrix(4,0,0,4,493.293,4.74444)">
                <g>
                    <path d="M5.011,16.509C-2.75,12.374 0.153,0.5 9,0.5C15.935,0.5 19.884,8.343 15.942,13.906" style="fill:none;stroke-width:1px;stroke:black;"/>
                    <path d="M9,12.4L9,13.533" style="fill:none;stroke-width:1px;stroke:black;"/>
                    <path d="M9,4.467L9,5.602" style="fill:none;stroke-width:1px;stroke:black;"/>
                    <path d="M7.301,10.701C7.301,11.639 8.062,12.4 9,12.4C9.938,12.4 10.7,11.638 10.7,10.701C10.7,9.761 9.938,9 9,9C8.062,9 7.301,8.238 7.301,7.301C7.301,6.361 8.062,5.602 9,5.602C9.938,5.602 10.7,6.361 10.7,7.301" style="fill:none;stroke-width:1px;stroke:black;"/>
                </g>
                <g>
                    <path d="M2,23.5L11,15.5L16,19.5L23.5,12.5" style="fill:none;stroke-width:1px;stroke:black;"/>
                    <path d="M19.5,12.5L23.5,12.5L23.5,16.5" style="fill:none;stroke-width:1px;stroke:black;"/>
                </g>
            </g>
        </g>
    </g>
</svg>
