<?xml version="1.0" standalone="no"?>
<!DOCTYPE svg PUBLIC "-//W3C//DTD SVG 1.1//EN" "http://www.w3.org/Graphics/SVG/1.1/DTD/svg11.dtd">
<svg width="100%" height="100%" viewBox="0 0 600 300" version="1.1" xmlns="http://www.w3.org/2000/svg" xmlns:xlink="http://www.w3.org/1999/xlink" xml:space="preserve" style="fill-rule:evenodd;clip-rule:evenodd;stroke-linecap:round;stroke-linejoin:round;stroke-miterlimit:1.41421;">
    <g id="group one">
        <g opacity="0.05">
            <g id="money bag" transform="matrix(4.12019,0,0,4.12019,483.957,181.348)">
                <g>
                    <path d="M11,18.5C11,19.329 11.672,20 12.5,20C13.328,20 14,19.329 14,18.5C14,17.672 13.328,17 12.5,17C11.672,17 11,16.329 11,15.5C11,14.672 11.672,14 12.5,14C13.328,14 14,14.672 14,15.5" style="fill:none;stroke-width:1px;stroke:black;"/>
                    <path d="M12.5,20L12.5,21" style="fill:none;stroke-width:1px;stroke:black;"/>
                    <path d="M12.5,13L12.5,14" style="fill:none;stroke-width:1px;stroke:black;"/>
                </g>
                <path d="M14.78,10.5L9.22,10.5C7.021,12.122 4.5,15.405 4.5,18C4.5,21.591 6.5,23.5 12,23.5C17.5,23.5 19.5,21.591 19.5,18C19.5,15.405 16.979,12.122 14.78,10.5Z" style="fill:none;stroke-width:1px;stroke:black;"/>
                <path d="M8.5,8.5L15.5,8.5" style="fill:none;stroke-width:1px;stroke:black;"/>
                <path d="M16.5,1.5L13,3L12,0.5L11,3L7.5,1.5C7.5,1.5 9.5,4.5 9.5,6.5L14.5,6.5C14.5,4.5 16.5,1.5 16.5,1.5Z" style="fill:none;stroke-width:1px;stroke:black;"/>
            </g>
            <g id="coin and notes" transform="matrix(1,0,0,1,162,-78.1254)">
                <g transform="matrix(2.86571,0,0,2.86571,41.0671,88.519)">
                    <ellipse cx="9.5" cy="12.5" rx="5" ry="1" style="fill:none;stroke-width:1px;stroke:black;"/>
                </g>
                <g transform="matrix(2.86571,0,0,2.86571,41.0671,88.519)">
                    <path d="M4.5,12.5L4.5,14.5C4.5,15.053 6.738,15.5 9.5,15.5C12.262,15.5 14.5,15.053 14.5,14.5L14.5,12.5" style="fill:none;stroke-width:1px;stroke:black;"/>
                </g>
                <g transform="matrix(2.86571,0,0,2.86571,41.0671,88.519)">
                    <path d="M14.5,14.5L14.5,16.5C14.5,17.053 12.262,17.5 9.5,17.5C6.738,17.5 4.5,17.053 4.5,16.5L4.5,14.5" style="fill:none;stroke-width:1px;stroke:black;"/>
                </g>
                <g transform="matrix(2.86571,0,0,2.86571,41.0671,88.519)">
                    <path d="M14.5,16.5L14.5,18.5C14.5,19.053 12.262,19.5 9.5,19.5C6.738,19.5 4.5,19.053 4.5,18.5L4.5,16.5" style="fill:none;stroke-width:1px;stroke:black;"/>
                </g>
                <g transform="matrix(2.86571,0,0,2.86571,41.0671,88.519)">
                    <path d="M14.5,18.5L14.5,20.5C14.5,21.053 12.262,21.5 9.5,21.5C6.738,21.5 4.5,21.053 4.5,20.5L4.5,18.5" style="fill:none;stroke-width:1px;stroke:black;"/>
                </g>
                <g transform="matrix(2.86571,0,0,2.86571,41.0671,88.519)">
                    <path d="M14.5,20.5L14.5,22.5C14.5,23.053 12.262,23.5 9.5,23.5C6.738,23.5 4.5,23.053 4.5,22.5L4.5,20.5" style="fill:none;stroke-width:1px;stroke:black;"/>
                </g>
                <g transform="matrix(2.86571,0,0,2.86571,41.0671,88.519)">
                    <path d="M4.5,14.5L0.5,14.5L0.5,0.5L23.5,0.5L23.5,14.5L14.5,14.5" style="fill:none;stroke-width:1px;stroke:black;"/>
                </g>
                <g transform="matrix(2.86571,0,0,2.86571,41.0671,88.519)">
                    <circle cx="12" cy="7.5" r="3" style="fill:none;stroke-width:1px;stroke:black;"/>
                </g>
                <g transform="matrix(2.86571,0,0,2.86571,41.0671,88.519)">
                    <circle cx="5" cy="5" r="0.5" style="fill:none;stroke-width:1px;stroke:black;"/>
                </g>
                <g transform="matrix(2.86571,0,0,2.86571,41.0671,88.519)">
                    <circle cx="19" cy="10" r="0.5" style="fill:none;stroke-width:1px;stroke:black;"/>
                </g>
                <g transform="matrix(2.86571,0,0,2.86571,41.0671,88.519)">
                    <path d="M4.5,12.5C3.396,12.5 2.5,11.604 2.5,10.5L2.5,4.5C2.5,3.396 3.396,2.5 4.5,2.5L19.5,2.5C20.604,2.5 21.5,3.396 21.5,4.5L21.5,10.5C21.5,11.604 20.604,12.5 19.5,12.5L14.5,12.5" style="fill:none;stroke-width:1px;stroke:black;"/>
                </g>
            </g>
            <g id="coins" transform="matrix(3.55646,0,0,3.55646,367.221,18.7799)">
                <ellipse id="XMLID_13_" cx="5.5" cy="2" rx="5" ry="1.5" style="fill:none;stroke-width:1px;stroke:black;"/>
                <path id="XMLID_12_" d="M10.5,2L10.5,4C10.5,4.8 8.3,5.5 5.5,5.5C2.7,5.5 0.5,4.8 0.5,4L0.5,2" style="fill:none;stroke-width:1px;stroke:black;"/>
                <path id="XMLID_11_" d="M10.5,4L10.5,6C10.5,6.8 8.3,7.5 5.5,7.5C2.7,7.5 0.5,6.8 0.5,6L0.5,4" style="fill:none;stroke-width:1px;stroke:black;"/>
                <ellipse id="XMLID_10_" cx="18.5" cy="12" rx="5" ry="1.5" style="fill:none;stroke-width:1px;stroke:black;"/>
                <path id="XMLID_9_" d="M23.5,12L23.5,14C23.5,14.8 21.3,15.5 18.5,15.5C15.7,15.5 13.5,14.8 13.5,14L13.5,12" style="fill:none;stroke-width:1px;stroke:black;"/>
                <path id="XMLID_8_" d="M23.5,14L23.5,16C23.5,16.8 21.3,17.5 18.5,17.5C15.7,17.5 13.5,16.8 13.5,16L13.5,14" style="fill:none;stroke-width:1px;stroke:black;"/>
                <path id="XMLID_7_" d="M23.5,16L23.5,18C23.5,18.8 21.3,19.5 18.5,19.5C15.7,19.5 13.5,18.8 13.5,18L13.5,16" style="fill:none;stroke-width:1px;stroke:black;"/>
                <path id="XMLID_6_" d="M10.5,6L10.5,8C10.5,8.8 8.3,9.5 5.5,9.5C2.7,9.5 0.5,8.8 0.5,8L0.5,6" style="fill:none;stroke-width:1px;stroke:black;"/>
                <path id="XMLID_5_" d="M10.5,8L10.5,10C10.5,10.8 8.3,11.5 5.5,11.5C2.7,11.5 0.5,10.8 0.5,10L0.5,8" style="fill:none;stroke-width:1px;stroke:black;"/>
                <path id="XMLID_4_" d="M10.5,10L10.5,12C10.5,12.8 8.3,13.5 5.5,13.5C2.7,13.5 0.5,12.8 0.5,12L0.5,10" style="fill:none;stroke-width:1px;stroke:black;"/>
                <path id="XMLID_3_" d="M10.5,12L10.5,14C10.5,14.8 8.3,15.5 5.5,15.5C2.7,15.5 0.5,14.8 0.5,14L0.5,12" style="fill:none;stroke-width:1px;stroke:black;"/>
                <path id="XMLID_2_" d="M10.5,14L10.5,16C10.5,16.8 8.3,17.5 5.5,17.5C2.7,17.5 0.5,16.8 0.5,16L0.5,14" style="fill:none;stroke-width:1px;stroke:black;"/>
            </g>
            <g id="cash" transform="matrix(4.47121,0,0,4.47121,396.928,118.604)">
                <g id="XMLID_9_1">
                    <rect id="XMLID_13_1" x="0.5" y="6.5" width="16" height="10" style="fill:none;stroke-width:1px;stroke:black;"/>
                    <path id="XMLID_11_1" d="M12.5,8.5L13.5,8.5C13.5,9.1 13.9,9.5 14.5,9.5L14.5,13.5C13.9,13.5 13.5,13.9 13.5,14.5L12.5,14.5" style="fill:none;stroke-width:1px;stroke:black;"/>
                    <path id="XMLID_10_1" d="M4.5,8.5L3.5,8.5C3.5,9.1 3.1,9.5 2.5,9.5L2.5,13.5C3.1,13.5 3.5,13.9 3.5,14.5L4.5,14.5" style="fill:none;stroke-width:1px;stroke:black;"/>
                </g>
                <circle id="XMLID_8_1" cx="8.5" cy="11.5" r="3" style="fill:none;stroke-width:1px;stroke:black;"/>
                <path id="XMLID_7_1" d="M2.5,6.5L2.5,4.5L18.5,4.5L18.5,14.5L16.5,14.5" style="fill:none;stroke-width:1px;stroke:black;"/>
                <path id="XMLID_5_1" d="M4.5,4.5L4.5,2.5L20.5,2.5L20.5,12.5L18.5,12.5" style="fill:none;stroke-width:1px;stroke:black;"/>
                <path id="XMLID_3_1" d="M6.5,2.5L6.5,0.5L22.5,0.5L22.5,10.5L20.5,10.5" style="fill:none;stroke-width:1px;stroke:black;"/>
            </g>
            <g id="cash1" transform="matrix(3.26087,0,0,3.26087,116.754,93.9876)">
                <g id="XMLID_8_2">
                    <rect id="XMLID_12_1" x="0.5" y="2.5" width="20" height="10" style="fill:none;stroke-width:1px;stroke:black;"/>
                    <path id="XMLID_10_2" d="M14.5,4.5L17.5,4.5C17.5,5.1 17.9,5.5 18.5,5.5L18.5,9.5C17.9,9.5 17.5,9.9 17.5,10.5L14.5,10.5" style="fill:none;stroke-width:1px;stroke:black;"/>
                    <path id="XMLID_9_2" d="M6.5,4.5L3.5,4.5C3.5,5.1 3.1,5.5 2.5,5.5L2.5,9.5C3.1,9.5 3.5,9.9 3.5,10.5L6.5,10.5" style="fill:none;stroke-width:1px;stroke:black;"/>
                </g>
                <path id="XMLID_7_2" d="M0.5,2.5L3.5,0.5L23.5,0.5L23.5,10.5L20.5,12.5" style="fill:none;stroke-width:1px;stroke:black;"/>
                <path id="XMLID_4_1" d="M20.5,2.5L23.5,0.5" style="fill:none;stroke-width:1px;stroke:black;"/>
                <path id="XMLID_3_2" d="M11.5,0.5L8.5,2.5L8.5,12.5" style="fill:none;stroke-width:1px;stroke:black;"/>
                <path id="XMLID_2_1" d="M15.5,0.5L12.5,2.5L12.5,12.5" style="fill:none;stroke-width:1px;stroke:black;"/>
            </g>
            <g id="gold bars 2" transform="matrix(3.69946,0,0,3.69946,147.448,176.26)">
                <path id="XMLID_7_3" d="M0.5,16.5L3,10.7C3.3,10 4,9.5 4.8,9.5L11.2,9.5C12,9.5 12.7,10 13,10.7L15.5,16.5L0.5,16.5Z" style="fill:none;stroke-width:1px;stroke:black;"/>
                <path id="XMLID_6_1" d="M3.5,14.5L4.8,11.5L10.5,11.5" style="fill:none;stroke-width:1px;stroke:black;"/>
                <path id="XMLID_5_2" d="M7.5,5.5L8.8,2.5L14.5,2.5" style="fill:none;stroke-width:1px;stroke:black;"/>
                <path id="XMLID_4_2" d="M4.5,7.5L7,1.7C7.3,1 8,0.5 8.8,0.5L15.2,0.5C16,0.5 16.7,1 17,1.7L19.5,7.5L4.5,7.5Z" style="fill:none;stroke-width:1px;stroke:black;"/>
                <path id="XMLID_3_3" d="M14.5,9.5L19.2,9.5C20,9.5 20.7,10 21,10.7L23.5,16.5L17.5,16.5" style="fill:none;stroke-width:1px;stroke:black;"/>
                <path id="XMLID_2_2" d="M15.5,11.5L18.5,11.5" style="fill:none;stroke-width:1px;stroke:black;"/>
            </g>
            <g id="gold bars" transform="matrix(3.03431,0,0,3.03431,3.81779,113.666)">
                <g id="XMLID_6_2">
                    <path id="XMLID_9_3" d="M1.5,12.5L0.5,12.5L2.1,7C2.3,6.1 3.1,5.5 4,5.5L7,5.5C7.9,5.5 8.7,6.1 8.9,7" style="fill:none;stroke-width:1px;stroke:black;"/>
                    <path id="XMLID_8_3" d="M0.5,12.5L2.2,6.5C2.4,5.9 2.8,5.4 3.4,5.2L14.8,0.8C15.3,0.6 15.7,0.5 16.2,0.5L19,0.5C19.9,0.5 20.7,1.1 20.9,2L21.5,4" style="fill:none;stroke-width:1px;stroke:black;"/>
                    <path id="XMLID_7_4" d="M10.5,5.5L18.5,2.5" style="fill:none;stroke-width:1px;stroke:black;"/>
                </g>
                <g id="XMLID_2_3">
                    <path id="XMLID_5_3" d="M1.5,17.5L3.1,12C3.3,11.1 4.1,10.5 5,10.5L8,10.5C8.9,10.5 9.7,11.1 9.9,12L11.5,17.5L1.5,17.5Z" style="fill:none;stroke-width:1px;stroke:black;"/>
                    <path id="XMLID_4_3" d="M1.5,17.5L3.2,11.5C3.4,10.9 3.8,10.4 4.4,10.2L15.8,5.8C16.3,5.6 16.7,5.5 17.2,5.5L20,5.5C20.9,5.5 21.7,6.1 21.9,7L23.5,12.5L11.5,17.5" style="fill:none;stroke-width:1px;stroke:black;"/>
                    <path id="XMLID_3_4" d="M11.5,10.5L19.5,7.5" style="fill:none;stroke-width:1px;stroke:black;"/>
                </g>
            </g>
        </g>
    </g>
</svg>
