<?xml version="1.0" standalone="no"?>
<!DOCTYPE svg PUBLIC "-//W3C//DTD SVG 1.1//EN" "http://www.w3.org/Graphics/SVG/1.1/DTD/svg11.dtd">
<svg width="100%" height="100%" viewBox="0 0 24 24" version="1.1" xmlns="http://www.w3.org/2000/svg" xmlns:xlink="http://www.w3.org/1999/xlink" xml:space="preserve" style="fill-rule:evenodd;clip-rule:evenodd;stroke-linecap:round;stroke-linejoin:round;stroke-miterlimit:1.41421;">
    <g id="Layer1">
        <g transform="matrix(1,0,0,1,0.5,-0.5)">
            <path d="M18.5,6.5L18.5,4.5L0.5,4.5L0.5,16.5" style="fill:none;stroke-width:1px;stroke:rgb(96,185,179);"/>
        </g>
        <g transform="matrix(1,0,0,1,0.5,-0.5)">
            <path d="M20.5,8.5L20.5,6.5L2.5,6.5L2.5,18.5" style="fill:none;stroke-width:1px;stroke:rgb(96,185,179);"/>
        </g>
        <g transform="matrix(1,0,0,1,0.5,-0.5)">
            <rect x="4.5" y="8.5" width="18" height="12" style="fill:none;stroke-width:1px;stroke:rgb(96,185,179);"/>
        </g>
        <g transform="matrix(1,0,0,1,0.5,-0.5)">
            <path d="M18.5,18.5L15.5,11.167L13,16.667L10.5,13.667L7.5,18.5" style="fill:none;stroke-width:1px;stroke-linecap:butt;stroke:rgb(96,185,179);"/>
        </g>
        <g transform="matrix(1,0,0,1,0.5,-0.5)">
            <path d="M6.562,18.5L20.531,18.5" style="fill:none;stroke-width:1px;stroke:rgb(96,185,179);"/>
        </g>
        <g transform="matrix(1,0,0,1,0.5,-0.5)">
            <circle cx="9" cy="11" r="0.5" style="fill:none;stroke-width:1px;stroke-linecap:butt;stroke:rgb(96,185,179);"/>
        </g>
    </g>
</svg>
