<?xml version="1.0" standalone="no"?>
<!DOCTYPE svg PUBLIC "-//W3C//DTD SVG 1.1//EN" "http://www.w3.org/Graphics/SVG/1.1/DTD/svg11.dtd">
<svg width="100%" height="100%" viewBox="0 0 24 24" version="1.1" xmlns="http://www.w3.org/2000/svg" xmlns:xlink="http://www.w3.org/1999/xlink" xml:space="preserve" style="fill-rule:evenodd;clip-rule:evenodd;stroke-linecap:round;stroke-linejoin:round;stroke-miterlimit:1.41421;">
    <g id="XMLID_1_" transform="matrix(0.927117,0,0,0.927117,0.87459,0.882076)">
        <g id="XMLID_8_">
            <path id="XMLID_11_" d="M0.5,21.5C1.7,21.5 3.5,21.5 3.5,21.5C3.5,21.5 5.3,16.1 5.5,13.5C4.7,12.7 0.5,12.5 0.5,12.5C0.5,12.5 0.5,17.8 0.5,21.5Z" style="fill:none;stroke-width:1px;stroke:rgb(96,185,179);"/>
            <path id="XMLID_10_" d="M16.5,19L20.3,18C21.6,17.7 22.9,18.3 23.5,19.5L18,22C13.8,23.7 13.5,23.8 11.5,23L4,20.5" style="fill:none;stroke-width:1px;stroke:rgb(96,185,179);"/>
            <path id="XMLID_9_" d="M5.5,14.5L14.5,16.5C15.8,16.8 16.5,17.5 16.5,18.8L16.5,19L15.2,19.3C14.8,19.4 14.3,19.4 13.9,19.3L9.6,18.4" style="fill:none;stroke-width:1px;stroke:rgb(96,185,179);"/>
        </g>
        <g id="XMLID_2_">
            <path id="XMLID_7_" d="M22.3,18C22.4,17.5 22.5,17 22.5,16.5C22.5,13.8 16.5,6.5 16.5,6.5L12.5,6.5C12.5,6.5 8.1,11.8 7,14.5" style="fill:none;stroke-width:1px;stroke:rgb(96,185,179);"/>
            <path id="XMLID_6_" d="M10.5,6.5L18.5,6.5" style="fill:none;stroke-width:1px;stroke:rgb(96,185,179);"/>
            <path id="XMLID_5_" d="M12.5,6.5C12.5,6.5 7.3,2.4 8.5,1C9.2,0.2 12.5,2.5 12.5,2.5C12.5,2.5 13.8,0.5 14.5,0.5C15.2,0.5 16.5,2.5 16.5,2.5C16.5,2.5 19.8,0.2 20.5,1C21.7,2.4 16.5,6.5 16.5,6.5L12.5,6.5Z" style="fill:none;stroke-width:1px;stroke:rgb(96,185,179);"/>
            <path id="XMLID_4_" d="M16,17C16.3,16.7 16.5,16.4 16.5,16C16.5,14.8 14.9,14.6 14.5,14.5C14.2,14.4 12.5,14.2 12.5,13C12.5,12.2 13.4,11.5 14.5,11.5C15.6,11.5 16.4,12.1 16.5,12.9" style="fill:none;stroke-width:1px;stroke:rgb(96,185,179);"/>
            <path id="XMLID_3_" d="M14.5,10.5L14.5,16" style="fill:none;stroke-width:1px;stroke:rgb(96,185,179);"/>
        </g>
    </g>
</svg>
