<?xml version="1.0" standalone="no"?>
<!DOCTYPE svg PUBLIC "-//W3C//DTD SVG 1.1//EN" "http://www.w3.org/Graphics/SVG/1.1/DTD/svg11.dtd">
<svg width="100%" height="100%" viewBox="0 0 24 24" version="1.1" xmlns="http://www.w3.org/2000/svg" xmlns:xlink="http://www.w3.org/1999/xlink" xml:space="preserve" style="fill-rule:evenodd;clip-rule:evenodd;stroke-linejoin:round;stroke-miterlimit:1.41421;">
    <g transform="matrix(0.956522,0,1.54074e-33,0.956522,2.91304,0.521739)">
        <path d="M18.5,3.114C18.5,1.671 17.329,0.5 15.886,0.5L3.114,0.5C1.671,0.5 0.5,1.671 0.5,3.114L0.5,20.886C0.5,22.329 1.671,23.5 3.114,23.5L15.886,23.5C17.329,23.5 18.5,22.329 18.5,20.886L18.5,3.114Z" style="fill:none;stroke-width:1px;stroke:white;"/>
        <path d="M16.5,3.43C16.5,2.917 16.083,2.5 15.57,2.5L3.43,2.5C2.917,2.5 2.5,2.917 2.5,3.43L2.5,5.57C2.5,6.083 2.917,6.5 3.43,6.5L15.57,6.5C16.083,6.5 16.5,6.083 16.5,5.57L16.5,3.43Z" style="fill:none;stroke-width:1px;stroke:white;"/>
        <path d="M0.5,15.5L18.5,15.5" style="fill:none;stroke-width:1px;stroke:white;"/>
        <path d="M0.5,8.5L18.5,8.5" style="fill:none;stroke-width:1px;stroke:white;"/>
        <path d="M9.5,8.5L9.5,23.5" style="fill:none;stroke-width:1px;stroke:white;"/>
        <path d="M3,12.5L6,12.5" style="fill:none;stroke-width:1px;stroke-linecap:round;stroke:white;"/>
        <path d="M12.5,12.5L15.5,12.5" style="fill:none;stroke-width:1px;stroke-linecap:round;stroke:white;"/>
        <path d="M12.5,20.5L15.5,20.5" style="fill:none;stroke-width:1px;stroke-linecap:round;stroke:white;"/>
        <path d="M12.5,18.5L15.5,18.5" style="fill:none;stroke-width:1px;stroke-linecap:round;stroke:white;"/>
        <path d="M4.5,11L4.5,14" style="fill:none;stroke-width:1px;stroke-linecap:round;stroke:white;"/>
        <path d="M3,18L6,21" style="fill:none;stroke-width:1px;stroke-linecap:round;stroke:white;"/>
        <path d="M6,18L3,21" style="fill:none;stroke-width:1px;stroke-linecap:round;stroke:white;"/>
    </g>
</svg>
