<?xml version="1.0" standalone="no"?>
<!DOCTYPE svg PUBLIC "-//W3C//DTD SVG 1.1//EN" "http://www.w3.org/Graphics/SVG/1.1/DTD/svg11.dtd">
<svg width="100%" height="100%" viewBox="0 0 24 24" version="1.1" xmlns="http://www.w3.org/2000/svg" xmlns:xlink="http://www.w3.org/1999/xlink" xml:space="preserve" style="fill-rule:evenodd;clip-rule:evenodd;stroke-linecap:round;stroke-linejoin:round;stroke-miterlimit:1.41421;">
    <g id="Artboard1" transform="matrix(0.75,0,0,0.75,0,0)">
        <g id="XMLID_1_" transform="matrix(1.33333,0,0,1.33333,-3.33067e-16,2.33147e-15)">
            <g id="XMLID_12_" transform="matrix(0.956522,0,0,0.956522,0.521739,0.521739)">
                <path d="M19.4,21.5L4.6,21.5C3.5,21.5 2.5,20.5 2.6,19.4L3.4,3.4C3.5,1.8 4.8,0.5 6.4,0.5L17.7,0.5C19.3,0.5 20.6,1.8 20.7,3.4L21.5,19.4C21.5,20.5 20.5,21.5 19.4,21.5Z" style="fill:none;stroke-width:1.05px;stroke:rgb(227,79,67);"/>
            </g>
            <g id="XMLID_11_" transform="matrix(0.956522,0,0,0.956522,0.521739,0.521739)">
                <path d="M3,4.5L2.5,4.5C1.4,4.5 0.5,5.4 0.5,6.5L0.5,7.5C0.5,8.1 0.9,8.5 1.5,8.5L3,8.5" style="fill:none;stroke-width:1.05px;stroke:rgb(227,79,67);"/>
            </g>
            <g id="XMLID_10_" transform="matrix(0.956522,0,0,0.956522,0.521739,0.521739)">
                <path d="M21,4.5L21.5,4.5C22.6,4.5 23.5,5.4 23.5,6.5L23.5,7.5C23.5,8.1 23.1,8.5 22.5,8.5L21,8.5" style="fill:none;stroke-width:1.05px;stroke:rgb(227,79,67);"/>
            </g>
            <g id="XMLID_9_" transform="matrix(0.956522,0,0,0.956522,0.521739,0.521739)">
                <path d="M18.6,3.5C18.6,3 18.1,2.5 17.6,2.5L6.4,2.5C5.9,2.5 5.4,2.9 5.4,3.5L5,11.5C5,12.6 8.1,13.5 12,13.5C15.9,13.5 19,12.6 19,11.5L18.6,3.5Z" style="fill:none;stroke-width:1.05px;stroke:rgb(227,79,67);"/>
            </g>
            <g id="XMLID_8_" transform="matrix(0.956522,0,0,0.956522,0.521739,0.521739)">
                <circle cx="6.5" cy="17.5" r="1" style="fill:none;stroke-width:1.05px;stroke:rgb(227,79,67);"/>
            </g>
            <g id="XMLID_7_" transform="matrix(0.956522,0,0,0.956522,0.521739,0.521739)">
                <circle cx="17.5" cy="17.5" r="1" style="fill:none;stroke-width:1.05px;stroke:rgb(227,79,67);"/>
            </g>
            <g id="XMLID_6_" transform="matrix(0.956522,0,0,0.956522,0.521739,0.521739)">
                <path d="M9.5,15.5L14.5,15.5" style="fill:none;stroke-width:1.05px;stroke:rgb(227,79,67);"/>
            </g>
            <g id="XMLID_5_" transform="matrix(0.956522,0,0,0.956522,0.521739,0.521739)">
                <path d="M9.5,17.5L14.5,17.5" style="fill:none;stroke-width:1.05px;stroke:rgb(227,79,67);"/>
            </g>
            <g id="XMLID_4_" transform="matrix(0.956522,0,0,0.956522,0.521739,0.521739)">
                <path d="M9.5,19.5L14.5,19.5" style="fill:none;stroke-width:1.05px;stroke:rgb(227,79,67);"/>
            </g>
            <g id="XMLID_3_" transform="matrix(0.956522,0,0,0.956522,0.521739,0.521739)">
                <path d="M4.5,21.5L4.5,22.5C4.5,23.1 4.9,23.5 5.5,23.5L7.5,23.5C8.1,23.5 8.5,23.1 8.5,22.5L8.5,21.5" style="fill:none;stroke-width:1.05px;stroke:rgb(227,79,67);"/>
            </g>
            <g id="XMLID_2_" transform="matrix(0.956522,0,0,0.956522,0.521739,0.521739)">
                <path d="M15.5,21.5L15.5,22.5C15.5,23.1 15.9,23.5 16.5,23.5L18.5,23.5C19.1,23.5 19.5,23.1 19.5,22.5L19.5,21.5" style="fill:none;stroke-width:1.05px;stroke:rgb(227,79,67);"/>
            </g>
        </g>
    </g>
</svg>
