<?xml version="1.0" standalone="no"?>
<!DOCTYPE svg PUBLIC "-//W3C//DTD SVG 1.1//EN" "http://www.w3.org/Graphics/SVG/1.1/DTD/svg11.dtd">
<svg width="100%" height="100%" viewBox="0 0 24 24" version="1.1" xmlns="http://www.w3.org/2000/svg" xmlns:xlink="http://www.w3.org/1999/xlink" xml:space="preserve" style="fill-rule:evenodd;clip-rule:evenodd;stroke-linecap:round;stroke-linejoin:round;stroke-miterlimit:1.41421;">
    <g id="_Group_" transform="matrix(0.956522,0,0,0.956522,1,0.521739)">
        <path id="_Path_" d="M11.5,23.5L0.5,20.5L0.5,3.5L11.5,0.5L22.5,3.5L22.5,20.5L11.5,23.5" style="fill:none;stroke-width:1px;stroke:rgb(227,79,67);"/>
        <path id="_Path_2_" d="M11.5,23.5L11.5,0.5" style="fill:none;stroke-width:1px;stroke:rgb(227,79,67);"/>
        <path id="_Path_3_" d="M7.5,19.5L7.5,16.5" style="fill:none;stroke-width:1px;stroke:rgb(227,79,67);"/>
        <path id="_Path_4_" d="M6,18L7.5,16.5L9,18" style="fill:none;stroke-width:1px;stroke:rgb(227,79,67);"/>
        <path id="_Path_5_" d="M13.5,19.5L16.5,18.5" style="fill:none;stroke-width:1px;stroke:rgb(227,79,67);"/>
        <path id="_Path_6_" d="M15.5,2L15.5,11.5L16.5,12.5L17.5,11.5L18.5,12.5L19.5,11.5L19.5,3" style="fill:none;stroke-width:1px;stroke:rgb(227,79,67);"/>
        <path id="_Path_7_" d="M7.5,2L7.5,11.5L6.5,12.5L5.5,11.5L4.5,12.5L3.5,11.5L3.5,3" style="fill:none;stroke-width:1px;stroke:rgb(227,79,67);"/>
    </g>
</svg>
