<?xml version="1.0" standalone="no"?>
<!DOCTYPE svg PUBLIC "-//W3C//DTD SVG 1.1//EN" "http://www.w3.org/Graphics/SVG/1.1/DTD/svg11.dtd">
<svg width="100%" height="100%" viewBox="0 0 24 24" version="1.1" xmlns="http://www.w3.org/2000/svg" xmlns:xlink="http://www.w3.org/1999/xlink" xml:space="preserve" style="fill-rule:evenodd;clip-rule:evenodd;stroke-linejoin:round;stroke-miterlimit:1.41421;">
    <g id="Outline_Icons" transform="matrix(0.963813,0,0,0.963813,0.449663,0.434242)">
        <g>
            <circle cx="8.5" cy="15.5" r="3" style="fill:none;stroke-width:1px;stroke:rgb(227,79,67);"/>
            <path d="M14.851,14.143L16.428,13.232L14.428,9.768L12.854,10.677C12.175,10.066 11.372,9.606 10.5,9.323L10.5,7.5L6.5,7.5L6.5,9.321C5.604,9.611 4.807,10.076 4.144,10.677L2.571,9.768L0.571,13.232L2.149,14.144C1.962,15.014 1.951,15.934 2.149,16.857L0.571,17.768L2.571,21.232L4.145,20.323C4.824,20.935 5.628,21.395 6.499,21.677L6.499,23.5L10.499,23.5L10.499,21.679C11.395,21.39 12.191,20.924 12.855,20.324L14.427,21.232L16.427,17.768L14.849,16.858C15.037,15.987 15.048,15.066 14.851,14.143Z" style="fill:none;stroke-width:1px;stroke:rgb(227,79,67);"/>
        </g>
        <g>
            <circle cx="19" cy="5" r="1.5" style="fill:none;stroke-width:1px;stroke:rgb(227,79,67);"/>
            <path d="M22.39,4.197L23.397,3.615L22.397,1.883L21.39,2.465C21.005,2.102 20.54,1.817 20,1.655L20,0.5L18,0.5L18,1.656C17.478,1.812 17.002,2.088 16.605,2.462L15.603,1.883L14.603,3.615L15.603,4.192C15.473,4.74 15.485,5.286 15.608,5.802L14.603,6.383L15.603,8.115L16.608,7.534C16.994,7.898 17.459,8.184 18,8.346L18,9.5L20,9.5L20,8.344C20.522,8.187 20.998,7.911 21.395,7.537L22.397,8.116L23.397,6.384L22.396,5.806C22.525,5.257 22.512,4.712 22.39,4.197Z" style="fill:none;stroke-width:1px;stroke:rgb(227,79,67);"/>
        </g>
    </g>
</svg>
