<?xml version="1.0" standalone="no"?>
<!DOCTYPE svg PUBLIC "-//W3C//DTD SVG 1.1//EN" "http://www.w3.org/Graphics/SVG/1.1/DTD/svg11.dtd">
<svg width="100%" height="100%" viewBox="0 0 24 24" version="1.1" xmlns="http://www.w3.org/2000/svg" xmlns:xlink="http://www.w3.org/1999/xlink" xml:space="preserve" style="fill-rule:evenodd;clip-rule:evenodd;stroke-linecap:round;stroke-linejoin:round;stroke-miterlimit:1.41421;">
    <g id="Artboard1" transform="matrix(0.75,0,0,0.75,0,0)">
        <g id="blog" transform="matrix(1.27135,6.47112e-32,6.47112e-32,1.27135,0.697659,1.65528)">
            <g transform="matrix(0.535638,-0.849608,0.845945,0.533328,-2.53223,18.5238)">
                <rect x="9.8" y="9.9" width="11.3" height="3.2" style="fill:none;stroke-width:1px;stroke:rgb(227,79,67);"/>
            </g>
            <path d="M22.8,2.9C23.6,3.4 23.8,4.4 23.3,5.1L19.9,10.5" style="fill:none;stroke-width:1px;stroke:rgb(227,79,67);"/>
            <g transform="matrix(0.523241,-0.829789,0.8459,0.5334,6.18721,18.5667)">
                <rect x="16.9" y="2.5" width="6.4" height="3.2" style="fill:none;stroke-width:1px;stroke:rgb(227,79,67);"/>
            </g>
            <path d="M10.3,19.7L13.799,17.184L11.092,15.478L10.3,19.7Z" style="fill:none;stroke-width:1px;stroke:rgb(227,79,67);"/>
            <path d="M0.5,22L3.5,19L5.5,21L7.5,19L9,20.5" style="fill:none;stroke-width:1px;stroke:rgb(227,79,67);"/>
        </g>
    </g>
</svg>
