<?xml version="1.0" standalone="no"?>
<!DOCTYPE svg PUBLIC "-//W3C//DTD SVG 1.1//EN" "http://www.w3.org/Graphics/SVG/1.1/DTD/svg11.dtd">
<svg width="100%" height="100%" viewBox="0 0 24 24" version="1.1" xmlns="http://www.w3.org/2000/svg" xmlns:xlink="http://www.w3.org/1999/xlink" xml:space="preserve" style="fill-rule:evenodd;clip-rule:evenodd;stroke-linejoin:round;stroke-miterlimit:1.41421;">
    <g id="Artboard1" transform="matrix(0.75,0,0,0.75,0,0)">
        <g id="about" transform="matrix(1.33333,0,0,1.33333,0.0334821,3.87172)">
            <g transform="matrix(0.956522,4.93038e-32,4.93038e-32,0.956522,0.496628,0.0217391)">
                <path d="M7.9,18.5L15.5,18.5C15.5,18.5 15.5,15.5 15.5,14C15.5,13.5 12.5,12 10,11L10,9C10,9 11,8.7 11,6.5C11.7,6.5 12,4.5 11,4.5C11,4.3 11.8,3.2 11.5,2C11,0 6,0 5.5,2C3.4,1.6 5,4.2 5,4.5C4,4.5 4.3,6.5 5,6.5C5,8.7 6,9 6,9L6,11C3.5,12 0.5,13.5 0.5,14C0.5,15 0.5,18.5 0.5,18.5L7.9,18.5Z" style="fill:none;stroke-width:1.05px;stroke:rgb(227,79,67);"/>
            </g>
            <g transform="matrix(0.956522,4.93038e-32,4.93038e-32,0.956522,0.496628,0.0217391)">
                <path d="M18,18.5L23.5,18.5C23.5,18.5 23.5,15.2 23.5,14C23.5,13.5 21,12.8 19,12L19,10.5C19,10.5 20,10.2 20,8.5C20.6,8.5 20.8,6.5 20,6.5C20,6.3 20.8,5.4 20.5,4.5C20,3 16,3 15.5,4.5C13.8,4.2 15,6.3 15,6.5C14.2,6.5 14.4,8.5 15,8.5C15,10.2 16,10.5 16,10.5L16,11.5" style="fill:none;stroke-width:1.05px;stroke-linecap:round;stroke:rgb(227,79,67);"/>
            </g>
        </g>
    </g>
</svg>
