<?xml version="1.0" standalone="no"?>
<!DOCTYPE svg PUBLIC "-//W3C//DTD SVG 1.1//EN" "http://www.w3.org/Graphics/SVG/1.1/DTD/svg11.dtd">
<svg width="100%" height="100%" viewBox="0 0 24 24" version="1.1" xmlns="http://www.w3.org/2000/svg" xmlns:xlink="http://www.w3.org/1999/xlink" xml:space="preserve" style="fill-rule:evenodd;clip-rule:evenodd;stroke-linecap:round;stroke-linejoin:round;stroke-miterlimit:1.41421;">
    <g id="Artboard1" transform="matrix(0.75,0,0,0.75,0,0)">
        <g transform="matrix(1,0,0,1,0.666667,0.666667)">
            <g transform="matrix(1.27536,0,0,1.27536,0.0289855,0.0289855)">
                <path d="M7.219,13.5L0.5,13.5L0.5,10.5L7.203,10.5" style="fill:none;stroke-width:1.05px;stroke:rgb(227,79,67);"/>
            </g>
            <g transform="matrix(1.27536,0,0,1.27536,0.0289855,0.0289855)">
                <path d="M13.5,16.766L13.5,23.5L10.5,23.5L10.5,16.766" style="fill:none;stroke-width:1.05px;stroke:rgb(227,79,67);"/>
            </g>
            <g transform="matrix(1.27536,0,0,1.27536,0.0289855,0.0289855)">
                <path d="M16.766,10.5L23.5,10.5L23.5,13.5L16.75,13.5" style="fill:none;stroke-width:1.05px;stroke:rgb(227,79,67);"/>
            </g>
            <g transform="matrix(1.27536,0,0,1.27536,0.0289855,0.0289855)">
                <path d="M10.5,7.219L10.5,0.5L13.5,0.5L13.5,7.234" style="fill:none;stroke-width:1.05px;stroke:rgb(227,79,67);"/>
            </g>
            <g transform="matrix(1.27536,0,0,1.27536,0.0289855,0.0289855)">
                <circle cx="12" cy="12" r="5" style="fill:none;stroke-width:1.05px;stroke:rgb(227,79,67);"/>
            </g>
            <g transform="matrix(1.27536,0,0,1.27536,0.0289855,0.0289855)">
                <path d="M13.5,1.607C18.098,2.266 21.735,5.901 22.393,10.5" style="fill:none;stroke-width:1.05px;stroke:rgb(227,79,67);"/>
            </g>
            <g transform="matrix(1.27536,0,0,1.27536,0.0289855,0.0289855)">
                <path d="M1.605,10.5C2.264,5.901 5.9,2.266 10.5,1.607" style="fill:none;stroke-width:1.05px;stroke:rgb(227,79,67);"/>
            </g>
            <g transform="matrix(1.27536,0,0,1.27536,0.0289855,0.0289855)">
                <path d="M10.5,22.394C5.9,21.737 2.264,18.1 1.605,13.5" style="fill:none;stroke-width:1.05px;stroke:rgb(227,79,67);"/>
            </g>
            <g transform="matrix(1.27536,0,0,1.27536,0.0289855,0.0289855)">
                <path d="M22.393,13.5C21.736,18.1 18.098,21.737 13.5,22.394" style="fill:none;stroke-width:1.05px;stroke:rgb(227,79,67);"/>
            </g>
        </g>
    </g>
</svg>
