<?xml version="1.0" standalone="no"?>
<!DOCTYPE svg PUBLIC "-//W3C//DTD SVG 1.1//EN" "http://www.w3.org/Graphics/SVG/1.1/DTD/svg11.dtd">
<svg width="100%" height="100%" viewBox="0 0 24 24" version="1.1" xmlns="http://www.w3.org/2000/svg" xmlns:xlink="http://www.w3.org/1999/xlink" xml:space="preserve" style="fill-rule:evenodd;clip-rule:evenodd;stroke-linecap:round;stroke-linejoin:round;stroke-miterlimit:1.41421;">
    <g id="Artboard1" transform="matrix(0.75,0,0,0.75,0,0)">
        <g id="pricing" transform="matrix(1.27536,0,0,1.27536,0.695652,0.695652)">
            <path id="XMLID_5_" d="M8.5,12.7C8,13.3 8.2,14.4 8.9,15.1C9.7,15.9 10.8,16 11.4,15.5C12.3,14.6 11.2,13.3 11,13C10.8,12.7 9.8,11.4 10.6,10.5C11.2,9.9 12.3,10.1 13.1,10.9C13.9,11.7 14,12.7 13.5,13.3" style="fill:none;stroke-width:1.05px;stroke:rgb(227,79,67);"/>
            <path id="XMLID_4_" d="M13.5,10.5L8.5,15.5" style="fill:none;stroke-width:1.05px;stroke:rgb(227,79,67);"/>
            <path id="XMLID_3_" d="M0.5,14.5L9.5,23.5L23.5,9.5L23.5,0.5L14.5,0.5L0.5,14.5Z" style="fill:none;stroke-width:1.05px;stroke:rgb(227,79,67);"/>
            <circle id="XMLID_2_" cx="18.5" cy="5.5" r="2" style="fill:none;stroke-width:1.05px;stroke:rgb(227,79,67);"/>
        </g>
    </g>
</svg>
