<?xml version="1.0" standalone="no"?>
<!DOCTYPE svg PUBLIC "-//W3C//DTD SVG 1.1//EN" "http://www.w3.org/Graphics/SVG/1.1/DTD/svg11.dtd">
<svg width="100%" height="100%" viewBox="0 0 24 24" version="1.1" xmlns="http://www.w3.org/2000/svg" xmlns:xlink="http://www.w3.org/1999/xlink" xml:space="preserve" style="fill-rule:evenodd;clip-rule:evenodd;stroke-linecap:round;stroke-linejoin:round;stroke-miterlimit:1.41421;">
    <g id="Artboard1" transform="matrix(0.75,0,0,0.75,0,0)">
        <g id="login" transform="matrix(1.28093,0,0,1.28093,1.74195,0.692868)">
            <g id="XMLID_7_" transform="matrix(0.985714,0,0,1,0.0785714,1.11022e-16)">
                <path d="M12.5,20.5L7.5,20.5C6.4,20.5 5.5,20.102 5.5,19.4L5.5,13.5" style="fill:none;stroke-width:1px;stroke:rgb(227,79,67);"/>
            </g>
            <path id="XMLID_6_" d="M19.5,0.5L7.5,0.5C6.4,0.5 5.5,1.4 5.5,2.5L5.5,7.5" style="fill:none;stroke-width:1px;stroke:rgb(227,79,67);"/>
            <path id="XMLID_5_" d="M14.5,13.5L14.5,11.5" style="fill:none;stroke-width:1px;stroke:rgb(227,79,67);"/>
            <path id="XMLID_4_" d="M0.5,10.5L10.5,10.5" style="fill:none;stroke-width:1px;stroke:rgb(227,79,67);"/>
            <path id="XMLID_3_" d="M7.5,7.5L10.5,10.5L7.5,13.5" style="fill:none;stroke-width:1px;stroke:rgb(227,79,67);"/>
            <path id="XMLID_2_" d="M19.8,0.5C19.6,0.5 19.4,0.5 19.1,0.6L13.4,3C12.8,3.3 12.4,3.9 12.4,4.5L12.4,21.7C12.4,22.6 13.1,23.4 14.1,23.4C14.3,23.4 14.5,23.4 14.8,23.3L20.5,20.9C21.1,20.6 21.5,20 21.5,19.4L21.5,2.2C21.5,1.2 20.8,0.5 19.8,0.5Z" style="fill:none;stroke-width:1px;stroke:rgb(227,79,67);"/>
        </g>
    </g>
</svg>
